{
.appVersion = "926";
classes = (
{
automatic = 1;

glyphs = (
{
glyphname = A;
layers = (
{
anchors = (
{
name = bottom;
position = "{326, 0}";
},
{
name = ogonek;
position = "{587, 10}";
},
{
name = top;
position = "{326, 649}";
}
);
layerId = UUID0;
paths = (
{
closed = 1;
nodes = (
"385 649 LINE",
"273 649 LINE",
"15 0 LINE",
"111 0 LINE",
"184 197 LINE",
"462 197 LINE",
"536 0 LINE",
"637 0 LINE"
);
},
{
closed = 1;
nodes = (
"209 264 LINE",
"319 557 LINE",
"328 557 LINE",
"438 264 LINE"
);
}
);
width = 652;
},
{
anchors = (
{
name = bottom;
position = "{334, 0}";
},
{
name = ogonek;
position = "{601, 10}";
},
{
name = top;
position = "{334, 649}";
}
);
layerId = "206DC524-6BEE-4011-B4E8-F862EC5B14D0";
paths = (
{
closed = 1;
nodes = (
"432 649 LINE",
"242 649 LINE",
"2 0 LINE",
"156 0 LINE",
"213 171 LINE",
"450 171 LINE",
"508 0 LINE",
"666 0 LINE"
);
},
{
closed = 1;
nodes = (
"248 275 LINE",
"330 519 LINE",
"334 519 LINE",
"416 275 LINE"
);
}
);
width = 668;
}
);
unicode = 0041;
},
{
glyphname = Adieresis;
layers = (
{
layerId = UUID0;
paths = (
{
closed = 1;
nodes = (
"385 649 LINE",
"273 649 LINE",
"15 0 LINE",
"111 0 LINE",
"184 197 LINE",
"462 197 LINE",
"536 0 LINE",
"637 0 LINE"
);
},
{
closed = 1;
nodes = (
"209 264 LINE",
"319 557 LINE",
"328 557 LINE",
"438 264 LINE"
);
},
{
closed = 1;
nodes = (
"280 809 LINE",
"190 809 LINE",
"190 715 LINE",
"280 715 LINE"
);
},
{
closed = 1;
nodes = (
"450 809 LINE",
"360 809 LINE",
"360 715 LINE",
"450 715 LINE"
);
}
);
width = 652;
},
{
layerId = "206DC524-6BEE-4011-B4E8-F862EC5B14D0";
paths = (
{
closed = 1;
nodes = (
"432 649 LINE",
"242 649 LINE",
"2 0 LINE",
"156 0 LINE",
"213 171 LINE",
"450 171 LINE",
"508 0 LINE",
"666 0 LINE"
);
},
{
closed = 1;
nodes = (
"248 275 LINE",
"330 519 LINE",
"334 519 LINE",
"416 275 LINE"
);
},
{
closed = 1;
nodes = (
"491 833 LINE",
"365 833 LINE",
"365 715 LINE",
"491 715 LINE"
);
},
{
closed = 1;
nodes = (
"301 833 LINE",
"175 833 LINE",
"175 715 LINE",
"301 715 LINE"
);
}
);
width = 668;
}
);
unicode = 00C4;
},
{
glyphname = Amacron;
layers = (
{
layerId = UUID0;
paths = (
{
closed = 1;
nodes = (
"385 649 LINE",
"273 649 LINE",
"15 0 LINE",
"111 0 LINE",
"184 197 LINE",
"462 197 LINE",
"536 0 LINE",
"637 0 LINE"
);
},
{
closed = 1;
nodes = (
"209 264 LINE",
"319 557 LINE",
"328 557 LINE",
"438 264 LINE"
);
},
{
closed = 1;
nodes = (
"433 798 LINE",
"215 798 LINE",
"215 739 LINE",
"433 739 LINE"
);
}
);
width = 652;
},
{
layerId = "206DC524-6BEE-4011-B4E8-F862EC5B14D0";
paths = (
{
closed = 1;
nodes = (
"432 649 LINE",
"242 649 LINE",
"2 0 LINE",
"156 0 LINE",
"213 171 LINE",
"450 171 LINE",
"508 0 LINE",
"666 0 LINE"
);
},
{
closed = 1;
nodes = (
"248 275 LINE",
"330 519 LINE",
"334 519 LINE",
"416 275 LINE"
);
},
{
closed = 1;
nodes = (
"473 814 LINE",
"195 814 LINE",
"195 725 LINE",
"473 725 LINE"
);
}
);
width = 668;
}
);
unicode = 0100;
},
{
glyphname = Aogonek;
layers = (
{
layerId = UUID0;
paths = (
{
closed = 1;
nodes = (
"633 -186 OFFCURVE",
"650 -183 OFFCURVE",
"664 -176 CURVE",
"664 -123 LINE",
"649 -128 OFFCURVE",
"638 -130 OFFCURVE",
"633 -130 CURVE SMOOTH",
"607 -130 OFFCURVE",
"594 -119 OFFCURVE",
"594 -97 CURVE SMOOTH",
"594 -67 OFFCURVE",
"608 -35 OFFCURVE",
"637 0 CURVE",
"385 649 LINE",
"273 649 LINE",
"15 0 LINE",
"111 0 LINE",
"184 197 LINE",
"462 197 LINE",
"536 0 LINE",
"522 -43 OFFCURVE",
"515 -79 OFFCURVE",
"515 -106 CURVE SMOOTH",
"515 -163 OFFCURVE",
"547 -186 OFFCURVE",
"614 -186 CURVE SMOOTH"
);
},
{
closed = 1;
nodes = (
"209 264 LINE",
"319 557 LINE",
"328 557 LINE",
"438 264 LINE"
);
}
);
width = 652;
},
{
layerId = "206DC524-6BEE-4011-B4E8-F862EC5B14D0";
paths = (
{
closed = 1;
nodes = (
"615 -186 OFFCURVE",
"638 -183 OFFCURVE",
"652 -176 CURVE",
"652 -109 LINE",
"640 -113 OFFCURVE",
"630 -115 OFFCURVE",
"622 -115 CURVE SMOOTH",
"604 -115 OFFCURVE",
"595 -105 OFFCURVE",
"595 -86 CURVE SMOOTH",
"595 -45 OFFCURVE",
"619 -17 OFFCURVE",
"666 0 CURVE",
"432 649 LINE",
"242 649 LINE",
"2 0 LINE",
"156 0 LINE",
"213 171 LINE",
"450 171 LINE",
"508 0 LINE",
"491 -32 OFFCURVE",
"483 -67 OFFCURVE",
"483 -106 CURVE SMOOTH",
"483 -157 OFFCURVE",
"522 -186 OFFCURVE",
"582 -186 CURVE SMOOTH"
);
},
{
closed = 1;
nodes = (
"248 275 LINE",
"330 519 LINE",
"334 519 LINE",
"416 275 LINE"
);
}
);
width = 668;
}
);
unicode = 0104;
},
{
glyphname = Aring;
layers = (
{
layerId = UUID0;
paths = (
{
closed = 1;
nodes = (
"415 561 LINE",
"450 575 OFFCURVE",
"467 603 OFFCURVE",
"467 646 CURVE SMOOTH",
"467 659 LINE SMOOTH",
"467 678 OFFCURVE",
"465 695 OFFCURVE",
"460 708 CURVE SMOOTH",
"450 734 OFFCURVE",
"437 747 OFFCURVE",
"410 755 CURVE",
"382 762 OFFCURVE",
"365 762 OFFCURVE",
"326 762 CURVE SMOOTH",
"307 762 OFFCURVE",
"291 762 OFFCURVE",
"280 761 CURVE SMOOTH",
"257 760 OFFCURVE",
"226 753 OFFCURVE",
"211 738 CURVE SMOOTH",
"196 723 OFFCURVE",
"185 698 OFFCURVE",
"185 659 CURVE SMOOTH",
"185 646 LINE SMOOTH",
"185 600 OFFCURVE",
"204 571 OFFCURVE",
"242 560 CURVE",
"15 0 LINE",
"111 0 LINE",
"185 198 LINE",
"462 198 LINE",
"536 0 LINE",
"637 0 LINE"
);
},
{
closed = 1;
nodes = (
"400 643 LINE",
"400 628 OFFCURVE",
"397 618 OFFCURVE",
"390 611 CURVE SMOOTH",
"377 597 OFFCURVE",
"362 596 OFFCURVE",
"326 596 CURVE SMOOTH",
"273 596 OFFCURVE",
"252 602 OFFCURVE",
"252 643 CURVE SMOOTH",
"252 657 LINE SMOOTH",
"252 702 OFFCURVE",
"271 709 OFFCURVE",
"326 709 CURVE SMOOTH",
"381 709 OFFCURVE",
"400 702 OFFCURVE",
"400 657 CURVE SMOOTH"
);
},
{
closed = 1;
nodes = (
"209 264 LINE",
"315 545 LINE",
"332 545 LINE",
"438 264 LINE"
);
}
);
width = 652;
},
{
layerId = "206DC524-6BEE-4011-B4E8-F862EC5B14D0";
paths = (
{
closed = 1;
nodes = (
"460 574 LINE",
"483 589 OFFCURVE",
"494 614 OFFCURVE",
"494 649 CURVE SMOOTH",
"494 681 LINE SMOOTH",
"494 728 OFFCURVE",
"478 758 OFFCURVE",
"443 771 CURVE SMOOTH",
"408 783 OFFCURVE",
"384 785 OFFCURVE",
"335 785 CURVE SMOOTH",
"286 785 OFFCURVE",
"262 783 OFFCURVE",
"227 771 CURVE SMOOTH",
"192 758 OFFCURVE",
"176 728 OFFCURVE",
"176 681 CURVE SMOOTH",
"176 649 LINE SMOOTH",
"176 612 OFFCURVE",
"189 586 OFFCURVE",
"214 571 CURVE",
"3 0 LINE",
"156 0 LINE",
"214 171 LINE",
"451 171 LINE",
"509 0 LINE",
"667 0 LINE"
);
},
{
closed = 1;
nodes = (
"405 642 LINE",
"405 610 OFFCURVE",
"390 603 OFFCURVE",
"335 603 CURVE SMOOTH",
"280 603 OFFCURVE",
"265 610 OFFCURVE",
"265 642 CURVE SMOOTH",
"265 679 LINE SMOOTH",
"265 718 OFFCURVE",
"274 723 OFFCURVE",
"335 723 CURVE SMOOTH",
"396 723 OFFCURVE",
"405 718 OFFCURVE",
"405 679 CURVE SMOOTH"
);
},
{
closed = 1;
nodes = (
"248 275 LINE",
"330 519 LINE",
"335 519 LINE",
"417 275 LINE"
);
}
);
width = 652;
}
);
unicode = 00C5;
},
{
glyphname = AE;
layers = (
{
layerId = UUID0;
paths = (
{
closed = 1;
nodes = (
"873 68 LINE",
"554 68 LINE",
"554 301 LINE",
"830 301 LINE",
"830 369 LINE",
"554 369 LINE",
"554 581 LINE",
"863 581 LINE",
"863 649 LINE",
"358 649 LINE",
"0 0 LINE",
"109 0 LINE",
"211 197 LINE",
"457 197 LINE",
"457 0 LINE",
"873 0 LINE"
);
},
{
closed = 1;
nodes = (
"245 264 LINE",
"409 581 LINE",
"457 581 LINE",
"457 264 LINE"
);
}
);
width = 923;
},
{
layerId = "206DC524-6BEE-4011-B4E8-F862EC5B14D0";
paths = (
{
closed = 1;
nodes = (
"955 111 LINE",
"623 111 LINE",
"623 278 LINE",
"912 278 LINE",
"912 389 LINE",
"623 389 LINE",
"623 538 LINE",
"945 538 LINE",
"945 649 LINE",
"330 649 LINE",
"0 0 LINE",
"166 0 LINE",
"245 171 LINE",
"470 171 LINE",
"470 0 LINE",
"955 0 LINE"
);
},
{
closed = 1;
nodes = (
"292 275 LINE",
"413 538 LINE",
"470 538 LINE",
"470 275 LINE"
);
}
);
width = 990;
}
);
unicode = 00C6;
},
{
glyphname = B;
layers = (
{
layerId = UUID0;
paths = (
{
closed = 1;
nodes = (
"553 238 LINE",
"553 294 OFFCURVE",
"504 331 OFFCURVE",
"435 343 CURVE",
"435 347 LINE",
"494 360 OFFCURVE",
"524 386 OFFCURVE",
"524 439 CURVE SMOOTH",
"524 526 LINE SMOOTH",
"524 578 OFFCURVE",
"511 609 OFFCURVE",
"448 632 CURVE SMOOTH",
"416 643 OFFCURVE",
"372 649 OFFCURVE",
"316 649 CURVE SMOOTH",
"84 649 LINE",
"84 0 LINE",
"323 0 LINE SMOOTH",
"486 0 OFFCURVE",
"553 34 OFFCURVE",
"553 129 CURVE SMOOTH"
);
},
{
closed = 1;
nodes = (
"433 442 LINE",
"433 389 OFFCURVE",
"402 365 OFFCURVE",
"319 365 CURVE SMOOTH",
"181 365 LINE",
"181 585 LINE",
"316 585 LINE SMOOTH",
"400 585 OFFCURVE",
"433 567 OFFCURVE",
"433 518 CURVE SMOOTH"
);
},
{
closed = 1;
nodes = (
"456 133 LINE",
"456 109 OFFCURVE",
"446 92 OFFCURVE",
"426 82 CURVE SMOOTH",
"406 72 OFFCURVE",
"372 67 OFFCURVE",
"323 67 CURVE SMOOTH",
"181 67 LINE",
"181 304 LINE",
"323 304 LINE SMOOTH",
"366 304 OFFCURVE",
"383 303 OFFCURVE",
"413 295 CURVE SMOOTH",
"443 286 OFFCURVE",
"456 266 OFFCURVE",
"456 231 CURVE SMOOTH"
);
}
);
width = 613;
},
{
layerId = "206DC524-6BEE-4011-B4E8-F862EC5B14D0";
paths = (
{
closed = 1;
nodes = (
"598 245 LINE",
"598 293 OFFCURVE",
"545 336 OFFCURVE",
"497 341 CURVE",
"497 346 LINE",
"534 357 OFFCURVE",
"569 393 OFFCURVE",
"569 430 CURVE SMOOTH",
"569 510 LINE SMOOTH",
"569 613 OFFCURVE",
"517 649 OFFCURVE",
"333 649 CURVE SMOOTH",
"70 649 LINE",
"70 0 LINE",
"340 0 LINE SMOOTH",
"511 0 OFFCURVE",
"598 37 OFFCURVE",
"598 145 CURVE SMOOTH"
);
},
{
closed = 1;
nodes = (
"419 450 LINE",
"419 401 OFFCURVE",
"406 385 OFFCURVE",
"333 385 CURVE SMOOTH",
"226 385 LINE",
"226 538 LINE",
"330 538 LINE SMOOTH",
"409 538 OFFCURVE",
"419 525 OFFCURVE",
"419 482 CURVE SMOOTH"
);
},
{
closed = 1;
nodes = (
"442 166 LINE",
"442 127 OFFCURVE",
"413 111 OFFCURVE",
"337 111 CURVE SMOOTH",
"226 111 LINE",
"226 284 LINE",
"358 284 LINE SMOOTH",
"421 284 OFFCURVE",
"442 266 OFFCURVE",
"442 218 CURVE SMOOTH"
);
}
);
width = 635;
}
);
unicode = 0042;
},
{
glyphname = C;
layers = (
{
layerId = UUID0;
paths = (
{
closed = 1;
nodes = (
"519 83 LINE",
"455 67 OFFCURVE",
"396 59 OFFCURVE",
"343 59 CURVE SMOOTH",
"219 59 OFFCURVE",
"157 96 OFFCURVE",
"157 171 CURVE SMOOTH",
"157 475 LINE SMOOTH",
"157 524 OFFCURVE",
"178 557 OFFCURVE",
"215 573 CURVE SMOOTH",
"252 588 OFFCURVE",
"288 593 OFFCURVE",
"339 593 CURVE SMOOTH",
"392 593 OFFCURVE",
"451 585 OFFCURVE",
"515 569 CURVE",
"515 641 LINE",
"457 654 OFFCURVE",
"398 660 OFFCURVE",
"337 660 CURVE SMOOTH",
"155 660 OFFCURVE",
"64 598 OFFCURVE",
"64 474 CURVE SMOOTH",
"64 166 LINE SMOOTH",
"64 49 OFFCURVE",
"155 -10 OFFCURVE",
"337 -10 CURVE SMOOTH",
"400 -10 OFFCURVE",
"461 -4 OFFCURVE",
"519 9 CURVE"
);
}
);
width = 564;
},
{
layerId = "206DC524-6BEE-4011-B4E8-F862EC5B14D0";
paths = (
{
closed = 1;
nodes = (
"567 130 LINE",
"485 111 OFFCURVE",
"420 101 OFFCURVE",
"373 101 CURVE SMOOTH",
"266 101 OFFCURVE",
"212 130 OFFCURVE",
"212 189 CURVE SMOOTH",
"212 465 LINE SMOOTH",
"212 502 OFFCURVE",
"227 525 OFFCURVE",
"259 536 CURVE SMOOTH",
"290 547 OFFCURVE",
"314 548 OFFCURVE",
"359 548 CURVE SMOOTH",
"416 548 OFFCURVE",
"484 539 OFFCURVE",
"563 520 CURVE",
"563 637 LINE",
"475 652 OFFCURVE",
"406 659 OFFCURVE",
"357 659 CURVE SMOOTH",
"156 659 OFFCURVE",
"56 594 OFFCURVE",
"56 463 CURVE SMOOTH",
"56 178 LINE SMOOTH",
"56 146 OFFCURVE",
"63 118 OFFCURVE",
"77 95 CURVE SMOOTH",
"105 47 OFFCURVE",
"145 24 OFFCURVE",
"203 9 CURVE SMOOTH",
"261 -7 OFFCURVE",
"304 -10 OFFCURVE",
"357 -10 CURVE SMOOTH",
"424 -10 OFFCURVE",
"494 -3 OFFCURVE",
"567 12 CURVE"
);
}
);
width = 597;
}
);
unicode = 0043;
},
{
glyphname = Cacute;
layers = (
{
layerId = UUID0;
paths = (
{
closed = 1;
nodes = (
"519 83 LINE",
"455 67 OFFCURVE",
"396 59 OFFCURVE",
"343 59 CURVE SMOOTH",
"219 59 OFFCURVE",
"157 96 OFFCURVE",
"157 171 CURVE SMOOTH",
"157 475 LINE SMOOTH",
"157 524 OFFCURVE",
"178 557 OFFCURVE",
"215 573 CURVE SMOOTH",
"252 588 OFFCURVE",
"288 593 OFFCURVE",
"339 593 CURVE SMOOTH",
"392 593 OFFCURVE",
"451 585 OFFCURVE",
"515 569 CURVE",
"515 641 LINE",
"457 654 OFFCURVE",
"398 660 OFFCURVE",
"337 660 CURVE SMOOTH",
"155 660 OFFCURVE",
"64 598 OFFCURVE",
"64 474 CURVE SMOOTH",
"64 166 LINE SMOOTH",
"64 49 OFFCURVE",
"155 -10 OFFCURVE",
"337 -10 CURVE SMOOTH",
"400 -10 OFFCURVE",
"461 -4 OFFCURVE",
"519 9 CURVE"
);
},
{
closed = 1;
nodes = (
"355 830 LINE",
"265 703 LINE",
"339 703 LINE",
"464 830 LINE"
);
}
);
width = 564;
},
{
layerId = "206DC524-6BEE-4011-B4E8-F862EC5B14D0";
paths = (
{
closed = 1;
nodes = (
"567 130 LINE",
"485 111 OFFCURVE",
"420 101 OFFCURVE",
"373 101 CURVE SMOOTH",
"266 101 OFFCURVE",
"212 130 OFFCURVE",
"212 189 CURVE SMOOTH",
"212 465 LINE SMOOTH",
"212 502 OFFCURVE",
"227 525 OFFCURVE",
"259 536 CURVE SMOOTH",
"290 547 OFFCURVE",
"314 548 OFFCURVE",
"359 548 CURVE SMOOTH",
"416 548 OFFCURVE",
"484 539 OFFCURVE",
"563 520 CURVE",
"563 637 LINE",
"475 652 OFFCURVE",
"406 659 OFFCURVE",
"357 659 CURVE SMOOTH",
"156 659 OFFCURVE",
"56 594 OFFCURVE",
"56 463 CURVE SMOOTH",
"56 178 LINE SMOOTH",
"56 146 OFFCURVE",
"63 118 OFFCURVE",
"77 95 CURVE SMOOTH",
"105 47 OFFCURVE",
"145 24 OFFCURVE",
"203 9 CURVE SMOOTH",
"261 -7 OFFCURVE",
"304 -10 OFFCURVE",
"357 -10 CURVE SMOOTH",
"424 -10 OFFCURVE",
"494 -3 OFFCURVE",
"567 12 CURVE"
);
},
{
closed = 1;
nodes = (
"324 845 LINE",
"234 718 LINE",
"358 718 LINE",
"483 845 LINE"
);
}
);
width = 597;
}
);
unicode = 0106;
},
{
glyphname = Ccaron;
layers = (
{
layerId = UUID0;
paths = (
{
closed = 1;
nodes = (
"519 83 LINE",
"455 67 OFFCURVE",
"396 59 OFFCURVE",
"343 59 CURVE SMOOTH",
"219 59 OFFCURVE",
"157 96 OFFCURVE",
"157 171 CURVE SMOOTH",
"157 475 LINE SMOOTH",
"157 524 OFFCURVE",
"178 557 OFFCURVE",
"215 573 CURVE SMOOTH",
"252 588 OFFCURVE",
"288 593 OFFCURVE",
"339 593 CURVE SMOOTH",
"392 593 OFFCURVE",
"451 585 OFFCURVE",
"515 569 CURVE",
"515 641 LINE",
"457 654 OFFCURVE",
"398 660 OFFCURVE",
"337 660 CURVE SMOOTH",
"155 660 OFFCURVE",
"64 598 OFFCURVE",
"64 474 CURVE SMOOTH",
"64 166 LINE SMOOTH",
"64 49 OFFCURVE",
"155 -10 OFFCURVE",
"337 -10 CURVE SMOOTH",
"400 -10 OFFCURVE",
"461 -4 OFFCURVE",
"519 9 CURVE"
);
},
{
closed = 1;
nodes = (
"358 703 LINE",
"424 830 LINE",
"366 830 LINE",
"304 743 LINE",
"241 830 LINE",
"183 830 LINE",
"251 703 LINE"
);
}
);
width = 564;
},
{
layerId = "206DC524-6BEE-4011-B4E8-F862EC5B14D0";
paths = (
{
closed = 1;
nodes = (
"567 130 LINE",
"485 111 OFFCURVE",
"420 101 OFFCURVE",
"373 101 CURVE SMOOTH",
"266 101 OFFCURVE",
"212 130 OFFCURVE",
"212 189 CURVE SMOOTH",
"212 465 LINE SMOOTH",
"212 502 OFFCURVE",
"227 525 OFFCURVE",
"259 536 CURVE SMOOTH",
"290 547 OFFCURVE",
"314 548 OFFCURVE",
"359 548 CURVE SMOOTH",
"416 548 OFFCURVE",
"484 539 OFFCURVE",
"563 520 CURVE",
"563 637 LINE",
"475 652 OFFCURVE",
"406 659 OFFCURVE",
"357 659 CURVE SMOOTH",
"156 659 OFFCURVE",
"56 594 OFFCURVE",
"56 463 CURVE SMOOTH",
"56 178 LINE SMOOTH",
"56 146 OFFCURVE",
"63 118 OFFCURVE",
"77 95 CURVE SMOOTH",
"105 47 OFFCURVE",
"145 24 OFFCURVE",
"203 9 CURVE SMOOTH",
"261 -7 OFFCURVE",
"304 -10 OFFCURVE",
"357 -10 CURVE SMOOTH",
"424 -10 OFFCURVE",
"494 -3 OFFCURVE",
"567 12 CURVE"
);
},
{
closed = 1;
nodes = (
"391 845 LINE",
"339 758 LINE",
"286 845 LINE",
"188 845 LINE",
"246 718 LINE",
"433 718 LINE",
"489 845 LINE"
);
}
);
width = 597;
}
);
unicode = 010C;
},
{
glyphname = Ccedilla;
layers = (
{
layerId = UUID0;
paths = (
{
closed = 1;
nodes = (
"519 83 LINE",
"455 67 OFFCURVE",
"396 59 OFFCURVE",
"343 59 CURVE SMOOTH",
"219 59 OFFCURVE",
"157 96 OFFCURVE",
"157 171 CURVE SMOOTH",
"157 475 LINE SMOOTH",
"157 524 OFFCURVE",
"178 557 OFFCURVE",
"215 573 CURVE SMOOTH",
"252 588 OFFCURVE",
"288 593 OFFCURVE",
"339 593 CURVE SMOOTH",
"392 593 OFFCURVE",
"451 585 OFFCURVE",
"515 569 CURVE",
"515 641 LINE",
"457 654 OFFCURVE",
"398 660 OFFCURVE",
"337 660 CURVE SMOOTH",
"155 660 OFFCURVE",
"64 598 OFFCURVE",
"64 474 CURVE SMOOTH",
"64 166 LINE SMOOTH",
"64 58 OFFCURVE",
"142 0 OFFCURVE",
"297 -9 CURVE",
"282 -39 OFFCURVE",
"267 -67 OFFCURVE",
"252 -92 CURVE",
"285 -92 LINE SMOOTH",
"330 -92 OFFCURVE",
"363 -108 OFFCURVE",
"363 -133 CURVE SMOOTH",
"363 -160 OFFCURVE",
"347 -173 OFFCURVE",
"316 -173 CURVE SMOOTH",
"297 -173 OFFCURVE",
"278 -167 OFFCURVE",
"258 -156 CURVE",
"237 -201 LINE",
"258 -214 OFFCURVE",
"285 -220 OFFCURVE",
"318 -220 CURVE SMOOTH",
"378 -220 OFFCURVE",
"431 -189 OFFCURVE",
"431 -130 CURVE SMOOTH",
"431 -79 OFFCURVE",
"387 -53 OFFCURVE",
"338 -52 CURVE",
"359 -10 LINE",
"414 -9 OFFCURVE",
"467 -2 OFFCURVE",
"519 9 CURVE"
);
}
);
width = 564;
},
{
layerId = "206DC524-6BEE-4011-B4E8-F862EC5B14D0";
paths = (
{
closed = 1;
nodes = (
"567 130 LINE",
"485 111 OFFCURVE",
"420 101 OFFCURVE",
"373 101 CURVE SMOOTH",
"266 101 OFFCURVE",
"212 130 OFFCURVE",
"212 189 CURVE SMOOTH",
"212 465 LINE SMOOTH",
"212 502 OFFCURVE",
"227 525 OFFCURVE",
"259 536 CURVE SMOOTH",
"290 547 OFFCURVE",
"314 548 OFFCURVE",
"359 548 CURVE SMOOTH",
"416 548 OFFCURVE",
"484 539 OFFCURVE",
"563 520 CURVE",
"563 637 LINE",
"475 652 OFFCURVE",
"406 659 OFFCURVE",
"357 659 CURVE SMOOTH",
"156 659 OFFCURVE",
"56 594 OFFCURVE",
"56 463 CURVE SMOOTH",
"56 178 LINE SMOOTH",
"56 63 OFFCURVE",
"143 0 OFFCURVE",
"317 -9 CURVE",
"313 -15 OFFCURVE",
"306 -25 OFFCURVE",
"297 -39 CURVE SMOOTH",
"287 -53 OFFCURVE",
"278 -65 OFFCURVE",
"271 -76 CURVE SMOOTH",
"264 -87 OFFCURVE",
"260 -94 OFFCURVE",
"259 -96 CURVE",
"299 -96 LINE SMOOTH",
"349 -96 OFFCURVE",
"374 -109 OFFCURVE",
"374 -134 CURVE SMOOTH",
"374 -157 OFFCURVE",
"358 -169 OFFCURVE",
"327 -169 CURVE SMOOTH",
"306 -169 OFFCURVE",
"285 -163 OFFCURVE",
"265 -151 CURVE",
"243 -197 LINE",
"266 -212 OFFCURVE",
"297 -220 OFFCURVE",
"334 -220 CURVE SMOOTH",
"397 -220 OFFCURVE",
"454 -189 OFFCURVE",
"454 -129 CURVE SMOOTH",
"454 -77 OFFCURVE",
"412 -54 OFFCURVE",
"357 -50 CURVE",
"386 -10 LINE",
"439 -9 OFFCURVE",
"499 -1 OFFCURVE",
"567 12 CURVE"
);
}
);
width = 597;
}
);
unicode = 00C7;
},
{
glyphname = Ccircumflex;
layers = (
{
layerId = UUID0;
paths = (
{
closed = 1;
nodes = (
"519 83 LINE",
"455 67 OFFCURVE",
"396 59 OFFCURVE",
"343 59 CURVE SMOOTH",
"219 59 OFFCURVE",
"157 96 OFFCURVE",
"157 171 CURVE SMOOTH",
"157 475 LINE SMOOTH",
"157 524 OFFCURVE",
"178 557 OFFCURVE",
"215 573 CURVE SMOOTH",
"252 588 OFFCURVE",
"288 593 OFFCURVE",
"339 593 CURVE SMOOTH",
"392 593 OFFCURVE",
"451 585 OFFCURVE",
"515 569 CURVE",
"515 641 LINE",
"457 654 OFFCURVE",
"398 660 OFFCURVE",
"337 660 CURVE SMOOTH",
"155 660 OFFCURVE",
"64 598 OFFCURVE",
"64 474 CURVE SMOOTH",
"64 166 LINE SMOOTH",
"64 49 OFFCURVE",
"155 -10 OFFCURVE",
"337 -10 CURVE SMOOTH",
"400 -10 OFFCURVE",
"461 -4 OFFCURVE",
"519 9 CURVE"
);
},
{
closed = 1;
nodes = (
"269 703 LINE",
"332 790 LINE",
"394 703 LINE",
"452 703 LINE",
"386 830 LINE",
"279 830 LINE",
"211 703 LINE"
);
}
);
width = 564;
},
{
layerId = "206DC524-6BEE-4011-B4E8-F862EC5B14D0";
paths = (
{
closed = 1;
nodes = (
"567 130 LINE",
"485 111 OFFCURVE",
"420 101 OFFCURVE",
"373 101 CURVE SMOOTH",
"266 101 OFFCURVE",
"212 130 OFFCURVE",
"212 189 CURVE SMOOTH",
"212 465 LINE SMOOTH",
"212 502 OFFCURVE",
"227 525 OFFCURVE",
"259 536 CURVE SMOOTH",
"290 547 OFFCURVE",
"314 548 OFFCURVE",
"359 548 CURVE SMOOTH",
"416 548 OFFCURVE",
"484 539 OFFCURVE",
"563 520 CURVE",
"563 637 LINE",
"475 652 OFFCURVE",
"406 659 OFFCURVE",
"357 659 CURVE SMOOTH",
"156 659 OFFCURVE",
"56 594 OFFCURVE",
"56 463 CURVE SMOOTH",
"56 178 LINE SMOOTH",
"56 146 OFFCURVE",
"63 118 OFFCURVE",
"77 95 CURVE SMOOTH",
"105 47 OFFCURVE",
"145 24 OFFCURVE",
"203 9 CURVE SMOOTH",
"261 -7 OFFCURVE",
"304 -10 OFFCURVE",
"357 -10 CURVE SMOOTH",
"424 -10 OFFCURVE",
"494 -3 OFFCURVE",
"567 12 CURVE"
);
},
{
closed = 1;
nodes = (
"431 845 LINE",
"244 845 LINE",
"188 718 LINE",
"286 718 LINE",
"338 805 LINE",
"391 718 LINE",
"489 718 LINE"
);
}
);
width = 597;
}
);
unicode = 0108;
},
{
glyphname = Cdotaccent;
layers = (
{
layerId = UUID0;
paths = (
{
closed = 1;
nodes = (
"519 83 LINE",
"455 67 OFFCURVE",
"396 59 OFFCURVE",
"343 59 CURVE SMOOTH",
"219 59 OFFCURVE",
"157 96 OFFCURVE",
"157 171 CURVE SMOOTH",
"157 475 LINE SMOOTH",
"157 524 OFFCURVE",
"178 557 OFFCURVE",
"215 573 CURVE SMOOTH",
"252 588 OFFCURVE",
"288 593 OFFCURVE",
"339 593 CURVE SMOOTH",
"392 593 OFFCURVE",
"451 585 OFFCURVE",
"515 569 CURVE",
"515 641 LINE",
"457 654 OFFCURVE",
"398 660 OFFCURVE",
"337 660 CURVE SMOOTH",
"155 660 OFFCURVE",
"64 598 OFFCURVE",
"64 474 CURVE SMOOTH",
"64 166 LINE SMOOTH",
"64 49 OFFCURVE",
"155 -10 OFFCURVE",
"337 -10 CURVE SMOOTH",
"400 -10 OFFCURVE",
"461 -4 OFFCURVE",
"519 9 CURVE"
);
},
{
closed = 1;
nodes = (
"380 830 LINE",
"290 830 LINE",
"290 732 LINE",
"380 732 LINE"
);
}
);
width = 564;
},
{
layerId = "206DC524-6BEE-4011-B4E8-F862EC5B14D0";
paths = (
{
closed = 1;
nodes = (
"567 130 LINE",
"485 111 OFFCURVE",
"420 101 OFFCURVE",
"373 101 CURVE SMOOTH",
"266 101 OFFCURVE",
"212 130 OFFCURVE",
"212 189 CURVE SMOOTH",
"212 465 LINE SMOOTH",
"212 502 OFFCURVE",
"227 525 OFFCURVE",
"259 536 CURVE SMOOTH",
"290 547 OFFCURVE",
"314 548 OFFCURVE",
"359 548 CURVE SMOOTH",
"416 548 OFFCURVE",
"484 539 OFFCURVE",
"563 520 CURVE",
"563 637 LINE",
"475 652 OFFCURVE",
"406 659 OFFCURVE",
"357 659 CURVE SMOOTH",
"156 659 OFFCURVE",
"56 594 OFFCURVE",
"56 463 CURVE SMOOTH",
"56 178 LINE SMOOTH",
"56 146 OFFCURVE",
"63 118 OFFCURVE",
"77 95 CURVE SMOOTH",
"105 47 OFFCURVE",
"145 24 OFFCURVE",
"203 9 CURVE SMOOTH",
"261 -7 OFFCURVE",
"304 -10 OFFCURVE",
"357 -10 CURVE SMOOTH",
"424 -10 OFFCURVE",
"494 -3 OFFCURVE",
"567 12 CURVE"
);
},
{
closed = 1;
nodes = (
"411 845 LINE",
"265 845 LINE",
"265 730 LINE",
"411 730 LINE"
);
}
);
width = 597;
}
);
unicode = 010A;
},
{
glyphname = D;
layers = (
{
layerId = UUID0;
paths = (
{
closed = 1;
nodes = (
"615 463 LINE",
"615 587 OFFCURVE",
"524 649 OFFCURVE",
"342 649 CURVE SMOOTH",
"84 649 LINE",
"84 0 LINE",
"343 0 LINE SMOOTH",
"524 0 OFFCURVE",
"615 59 OFFCURVE",
"615 176 CURVE SMOOTH"
);
},
{
closed = 1;
nodes = (
"522 178 LINE",
"522 103 OFFCURVE",
"460 66 OFFCURVE",
"336 66 CURVE SMOOTH",
"181 66 LINE",
"181 582 LINE",
"341 582 LINE SMOOTH",
"392 582 OFFCURVE",
"428 577 OFFCURVE",
"465 562 CURVE",
"501 546 OFFCURVE",
"522 513 OFFCURVE",
"522 464 CURVE SMOOTH"
);
}
);
width = 679;
},
{
layerId = "206DC524-6BEE-4011-B4E8-F862EC5B14D0";
paths = (
{
closed = 1;
nodes = (
"654 452 LINE",
"654 605 OFFCURVE",
"566 649 OFFCURVE",
"346 649 CURVE SMOOTH",
"70 649 LINE",
"70 0 LINE",
"347 0 LINE SMOOTH",
"575 0 OFFCURVE",
"654 41 OFFCURVE",
"654 188 CURVE SMOOTH"
);
},
{
closed = 1;
nodes = (
"498 188 LINE",
"498 121 OFFCURVE",
"460 111 OFFCURVE",
"340 111 CURVE SMOOTH",
"226 111 LINE",
"226 538 LINE",
"345 538 LINE SMOOTH",
"448 538 OFFCURVE",
"498 518 OFFCURVE",
"498 455 CURVE SMOOTH"
);
}
);
width = 710;
}
);
unicode = 0044;
},
{
glyphname = Eth;
layers = (
{
layerId = UUID0;
paths = (
{
closed = 1;
nodes = (
"84 0 LINE",
"343 0 LINE SMOOTH",
"524 0 OFFCURVE",
"615 59 OFFCURVE",
"615 176 CURVE SMOOTH",
"615 463 LINE SMOOTH",
"615 587 OFFCURVE",
"524 649 OFFCURVE",
"342 649 CURVE SMOOTH",
"84 649 LINE",
"84 369 LINE",
"20 369 LINE",
"20 301 LINE",
"84 301 LINE"
);
},
{
closed = 1;
nodes = (
"287 369 LINE",
"181 369 LINE",
"181 582 LINE",
"341 582 LINE SMOOTH",
"392 582 OFFCURVE",
"428 577 OFFCURVE",
"465 562 CURVE",
"501 546 OFFCURVE",
"522 513 OFFCURVE",
"522 464 CURVE SMOOTH",
"522 178 LINE SMOOTH",
"522 103 OFFCURVE",
"460 66 OFFCURVE",
"336 66 CURVE SMOOTH",
"181 66 LINE",
"181 301 LINE",
"287 301 LINE"
);
}
);
width = 679;
},
{
layerId = "206DC524-6BEE-4011-B4E8-F862EC5B14D0";
paths = (
{
closed = 1;
nodes = (
"10 284 LINE",
"348 284 LINE",
"348 385 LINE",
"10 385 LINE"
);
},
{
closed = 1;
nodes = (
"654 452 LINE",
"654 605 OFFCURVE",
"566 649 OFFCURVE",
"346 649 CURVE SMOOTH",
"70 649 LINE",
"70 0 LINE",
"347 0 LINE SMOOTH",
"575 0 OFFCURVE",
"654 41 OFFCURVE",
"654 188 CURVE SMOOTH"
);
},
{
closed = 1;
nodes = (
"498 188 LINE",
"498 121 OFFCURVE",
"460 111 OFFCURVE",
"340 111 CURVE SMOOTH",
"226 111 LINE",
"226 538 LINE",
"345 538 LINE SMOOTH",
"448 538 OFFCURVE",
"498 518 OFFCURVE",
"498 455 CURVE SMOOTH"
);
}
);
width = 677;
}
);
unicode = 00D0;
},
{
glyphname = Dcaron;
layers = (
{
layerId = UUID0;
paths = (
{
closed = 1;
nodes = (
"615 463 LINE",
"615 587 OFFCURVE",
"524 649 OFFCURVE",
"342 649 CURVE SMOOTH",
"84 649 LINE",
"84 0 LINE",
"343 0 LINE SMOOTH",
"524 0 OFFCURVE",
"615 59 OFFCURVE",
"615 176 CURVE SMOOTH"
);
},
{
closed = 1;
nodes = (
"522 178 LINE",
"522 103 OFFCURVE",
"460 66 OFFCURVE",
"336 66 CURVE SMOOTH",
"181 66 LINE",
"181 582 LINE",
"341 582 LINE SMOOTH",
"392 582 OFFCURVE",
"428 577 OFFCURVE",
"465 562 CURVE",
"501 546 OFFCURVE",
"522 513 OFFCURVE",
"522 464 CURVE SMOOTH"
);
},
{
closed = 1;
nodes = (
"394 718 LINE",
"460 845 LINE",
"402 845 LINE",
"340 758 LINE",
"277 845 LINE",
"219 845 LINE",
"287 718 LINE"
);
}
);
width = 679;
},
{
layerId = "206DC524-6BEE-4011-B4E8-F862EC5B14D0";
paths = (
{
closed = 1;
nodes = (
"654 452 LINE",
"654 605 OFFCURVE",
"566 649 OFFCURVE",
"346 649 CURVE SMOOTH",
"70 649 LINE",
"70 0 LINE",
"347 0 LINE SMOOTH",
"575 0 OFFCURVE",
"654 41 OFFCURVE",
"654 188 CURVE SMOOTH"
);
},
{
closed = 1;
nodes = (
"498 188 LINE",
"498 121 OFFCURVE",
"460 111 OFFCURVE",
"340 111 CURVE SMOOTH",
"226 111 LINE",
"226 538 LINE",
"345 538 LINE SMOOTH",
"448 538 OFFCURVE",
"498 518 OFFCURVE",
"498 455 CURVE SMOOTH"
);
},
{
closed = 1;
nodes = (
"407 845 LINE",
"355 758 LINE",
"302 845 LINE",
"204 845 LINE",
"262 718 LINE",
"449 718 LINE",
"505 845 LINE"
);
}
);
width = 710;
}
);
unicode = 010E;
},
{
color = 9;
glyphname = Dcroat;
layers = (
{
layerId = UUID0;
paths = (
{
closed = 1;
nodes = (
"84 0 LINE",
"343 0 LINE SMOOTH",
"524 0 OFFCURVE",
"615 59 OFFCURVE",
"615 176 CURVE SMOOTH",
"615 463 LINE SMOOTH",
"615 587 OFFCURVE",
"524 649 OFFCURVE",
"342 649 CURVE SMOOTH",
"84 649 LINE",
"84 369 LINE",
"20 369 LINE",
"20 301 LINE",
"84 301 LINE"
);
},
{
closed = 1;
nodes = (
"287 369 LINE",
"181 369 LINE",
"181 582 LINE",
"341 582 LINE SMOOTH",
"392 582 OFFCURVE",
"428 577 OFFCURVE",
"465 562 CURVE",
"501 546 OFFCURVE",
"522 513 OFFCURVE",
"522 464 CURVE SMOOTH",
"522 178 LINE SMOOTH",
"522 103 OFFCURVE",
"460 66 OFFCURVE",
"336 66 CURVE SMOOTH",
"181 66 LINE",
"181 301 LINE",
"287 301 LINE"
);
}
);
width = 679;
},
{
layerId = "206DC524-6BEE-4011-B4E8-F862EC5B14D0";
paths = (
{
closed = 1;
nodes = (
"627 452 LINE",
"627 604 OFFCURVE",
"565 649 OFFCURVE",
"326 649 CURVE SMOOTH",
"70 649 LINE",
"70 379 LINE",
"10 379 LINE",
"10 288 LINE",
"70 288 LINE",
"70 0 LINE",
"327 0 LINE SMOOTH",
"532 0 OFFCURVE",
"627 53 OFFCURVE",
"627 188 CURVE SMOOTH"
);
},
{
closed = 1;
nodes = (
"478 186 LINE",
"478 153 OFFCURVE",
"460 130 OFFCURVE",
"426 121 CURVE SMOOTH",
"392 112 OFFCURVE",
"364 109 OFFCURVE",
"320 109 CURVE SMOOTH",
"223 109 LINE",
"223 288 LINE",
"357 288 LINE",
"357 379 LINE",
"223 379 LINE",
"223 543 LINE",
"325 543 LINE SMOOTH",
"428 543 OFFCURVE",
"478 523 OFFCURVE",
"478 460 CURVE SMOOTH"
);
}
);
width = 677;
}
);
unicode = 0110;
},
{
glyphname = E;
layers = (
{
anchors = (
{
name = bottom;
position = "{290, 0}";
},
{
name = ogonek;
position = "{522, 10}";
},
{
name = top;
position = "{290, 649}";
},
{
name = topleft;
position = "{20, 649}";
}
);
layerId = UUID0;
paths = (
{
closed = 1;
nodes = (
"530 68 LINE",
"181 68 LINE",
"181 301 LINE",
"487 301 LINE",
"487 369 LINE",
"181 369 LINE",
"181 581 LINE",
"520 581 LINE",
"520 649 LINE",
"84 649 LINE",
"84 0 LINE",
"530 0 LINE"
);
}
);
width = 580;
},
{
anchors = (
{
name = bottom;
position = "{305, 0}";
},
{
name = ogonek;
position = "{549, 10}";
},
{
name = top;
position = "{305, 649}";
},
{
name = topleft;
position = "{20, 649}";
}
);
layerId = "206DC524-6BEE-4011-B4E8-F862EC5B14D0";
paths = (
{
closed = 1;
nodes = (
"575 111 LINE",
"226 111 LINE",
"226 278 LINE",
"532 278 LINE",
"532 389 LINE",
"226 389 LINE",
"226 538 LINE",
"565 538 LINE",
"565 649 LINE",
"70 649 LINE",
"70 0 LINE",
"575 0 LINE"
);
}
);
width = 610;
}
);
unicode = 0045;
},
{
glyphname = Ebreve;
layers = (
{
layerId = UUID0;
paths = (
{
closed = 1;
nodes = (
"530 68 LINE",
"181 68 LINE",
"181 301 LINE",
"487 301 LINE",
"487 369 LINE",
"181 369 LINE",
"181 581 LINE",
"520 581 LINE",
"520 649 LINE",
"84 649 LINE",
"84 0 LINE",
"530 0 LINE"
);
},
{
closed = 1;
nodes = (
"386 830 LINE",
"371 782 OFFCURVE",
"349 762 OFFCURVE",
"305 762 CURVE SMOOTH",
"260 762 OFFCURVE",
"240 781 OFFCURVE",
"223 830 CURVE",
"187 830 LINE",
"191 753 OFFCURVE",
"233 703 OFFCURVE",
"305 703 CURVE SMOOTH",
"376 703 OFFCURVE",
"418 753 OFFCURVE",
"423 830 CURVE"
);
}
);
width = 580;
},
{
layerId = "206DC524-6BEE-4011-B4E8-F862EC5B14D0";
paths = (
{
closed = 1;
nodes = (
"575 111 LINE",
"226 111 LINE",
"226 278 LINE",
"532 278 LINE",
"532 389 LINE",
"226 389 LINE",
"226 538 LINE",
"565 538 LINE",
"565 649 LINE",
"70 649 LINE",
"70 0 LINE",
"575 0 LINE"
);
},
{
closed = 1;
nodes = (
"389 845 LINE",
"385 808 OFFCURVE",
"366 790 OFFCURVE",
"333 790 CURVE SMOOTH",
"297 790 OFFCURVE",
"284 806 OFFCURVE",
"276 845 CURVE",
"195 845 LINE",
"199 769 OFFCURVE",
"250 718 OFFCURVE",
"333 718 CURVE SMOOTH",
"414 718 OFFCURVE",
"466 769 OFFCURVE",
"471 845 CURVE"
);
}
);
width = 610;
}
);
unicode = 0114;
},
{
glyphname = Ecaron;
layers = (
{
layerId = UUID0;
paths = (
{
closed = 1;
nodes = (
"530 68 LINE",
"181 68 LINE",
"181 301 LINE",
"487 301 LINE",
"487 369 LINE",
"181 369 LINE",
"181 581 LINE",
"520 581 LINE",
"520 649 LINE",
"84 649 LINE",
"84 0 LINE",
"530 0 LINE"
);
},
{
closed = 1;
nodes = (
"356 703 LINE",
"422 830 LINE",
"364 830 LINE",
"302 743 LINE",
"239 830 LINE",
"181 830 LINE",
"249 703 LINE"
);
}
);
width = 580;
},
{
layerId = "206DC524-6BEE-4011-B4E8-F862EC5B14D0";
paths = (
{
closed = 1;
nodes = (
"575 111 LINE",
"226 111 LINE",
"226 278 LINE",
"532 278 LINE",
"532 389 LINE",
"226 389 LINE",
"226 538 LINE",
"565 538 LINE",
"565 649 LINE",
"70 649 LINE",
"70 0 LINE",
"575 0 LINE"
);
},
{
closed = 1;
nodes = (
"375 845 LINE",
"323 758 LINE",
"270 845 LINE",
"172 845 LINE",
"230 718 LINE",
"417 718 LINE",
"473 845 LINE"
);
}
);
width = 610;
}
);
unicode = 011A;
},
{
glyphname = Edieresis;
layers = (
{
layerId = UUID0;
paths = (
{
closed = 1;
nodes = (
"530 68 LINE",
"181 68 LINE",
"181 301 LINE",
"487 301 LINE",
"487 369 LINE",
"181 369 LINE",
"181 581 LINE",
"520 581 LINE",
"520 649 LINE",
"84 649 LINE",
"84 0 LINE",
"530 0 LINE"
);
},
{
closed = 1;
nodes = (
"266 809 LINE",
"176 809 LINE",
"176 715 LINE",
"266 715 LINE"
);
},
{
closed = 1;
nodes = (
"436 809 LINE",
"346 809 LINE",
"346 715 LINE",
"436 715 LINE"
);
}
);
width = 580;
},
{
layerId = "206DC524-6BEE-4011-B4E8-F862EC5B14D0";
paths = (
{
closed = 1;
nodes = (
"575 111 LINE",
"226 111 LINE",
"226 278 LINE",
"532 278 LINE",
"532 389 LINE",
"226 389 LINE",
"226 538 LINE",
"565 538 LINE",
"565 649 LINE",
"70 649 LINE",
"70 0 LINE",
"575 0 LINE"
);
},
{
closed = 1;
nodes = (
"463 848 LINE",
"337 848 LINE",
"337 730 LINE",
"463 730 LINE"
);
},
{
closed = 1;
nodes = (
"273 848 LINE",
"147 848 LINE",
"147 730 LINE",
"273 730 LINE"
);
}
);
width = 610;
}
);
unicode = 00CB;
},
{
glyphname = Edotaccent;
layers = (
{
layerId = UUID0;
paths = (
{
closed = 1;
nodes = (
"530 68 LINE",
"181 68 LINE",
"181 301 LINE",
"487 301 LINE",
"487 369 LINE",
"181 369 LINE",
"181 581 LINE",
"520 581 LINE",
"520 649 LINE",
"84 649 LINE",
"84 0 LINE",
"530 0 LINE"
);
},
{
closed = 1;
nodes = (
"346 830 LINE",
"256 830 LINE",
"256 732 LINE",
"346 732 LINE"
);
}
);
width = 580;
},
{
layerId = "206DC524-6BEE-4011-B4E8-F862EC5B14D0";
paths = (
{
closed = 1;
nodes = (
"575 111 LINE",
"226 111 LINE",
"226 278 LINE",
"532 278 LINE",
"532 389 LINE",
"226 389 LINE",
"226 538 LINE",
"565 538 LINE",
"565 649 LINE",
"70 649 LINE",
"70 0 LINE",
"575 0 LINE"
);
},
{
closed = 1;
nodes = (
"398 845 LINE",
"252 845 LINE",
"252 730 LINE",
"398 730 LINE"
);
}
);
width = 610;
}
);
unicode = 0116;
},
{
glyphname = Emacron;
layers = (
{
layerId = UUID0;
paths = (
{
closed = 1;
nodes = (
"530 68 LINE",
"181 68 LINE",
"181 301 LINE",
"487 301 LINE",
"487 369 LINE",
"181 369 LINE",
"181 581 LINE",
"520 581 LINE",
"520 649 LINE",
"84 649 LINE",
"84 0 LINE",
"530 0 LINE"
);
},
{
closed = 1;
nodes = (
"411 798 LINE",
"193 798 LINE",
"193 739 LINE",
"411 739 LINE"
);
}
);
width = 580;
},
{
layerId = "206DC524-6BEE-4011-B4E8-F862EC5B14D0";
paths = (
{
closed = 1;
nodes = (
"575 111 LINE",
"226 111 LINE",
"226 278 LINE",
"532 278 LINE",
"532 389 LINE",
"226 389 LINE",
"226 538 LINE",
"565 538 LINE",
"565 649 LINE",
"70 649 LINE",
"70 0 LINE",
"575 0 LINE"
);
},
{
closed = 1;
nodes = (
"444 814 LINE",
"166 814 LINE",
"166 725 LINE",
"444 725 LINE"
);
}
);
width = 610;
}
);
unicode = 0112;
},
{
glyphname = Eogonek;
layers = (
{
layerId = UUID0;
paths = (
{
closed = 1;
nodes = (
"456 -186 OFFCURVE",
"473 -183 OFFCURVE",
"487 -176 CURVE",
"487 -123 LINE",
"472 -128 OFFCURVE",
"461 -130 OFFCURVE",
"456 -130 CURVE SMOOTH",
"430 -130 OFFCURVE",
"417 -119 OFFCURVE",
"417 -97 CURVE SMOOTH",
"417 -66 OFFCURVE",
"428 -33 OFFCURVE",
"449 0 CURVE",
"530 0 LINE",
"530 68 LINE",
"181 68 LINE",
"181 301 LINE",
"487 301 LINE",
"487 369 LINE",
"181 369 LINE",
"181 581 LINE",
"520 581 LINE",
"520 649 LINE",
"84 649 LINE",
"84 0 LINE",
"374 0 LINE",
"350 -37 OFFCURVE",
"338 -73 OFFCURVE",
"338 -106 CURVE SMOOTH",
"338 -163 OFFCURVE",
"372 -186 OFFCURVE",
"437 -186 CURVE SMOOTH"
);
}
);
width = 580;
},
{
layerId = "206DC524-6BEE-4011-B4E8-F862EC5B14D0";
paths = (
{
closed = 1;
nodes = (
"575 111 LINE",
"226 111 LINE",
"226 278 LINE",
"532 278 LINE",
"532 389 LINE",
"226 389 LINE",
"226 538 LINE",
"565 538 LINE",
"565 649 LINE",
"70 649 LINE",
"70 0 LINE",
"575 0 LINE"
);
},
{
closed = 1;
nodes = (
"575 -109 LINE",
"563 -113 OFFCURVE",
"553 -115 OFFCURVE",
"545 -115 CURVE SMOOTH",
"516 -115 OFFCURVE",
"507 -104 OFFCURVE",
"507 -83 CURVE SMOOTH",
"507 -59 OFFCURVE",
"517 -31 OFFCURVE",
"537 0 CURVE",
"442 0 LINE",
"418 -37 OFFCURVE",
"406 -73 OFFCURVE",
"406 -106 CURVE SMOOTH",
"406 -163 OFFCURVE",
"440 -186 OFFCURVE",
"505 -186 CURVE SMOOTH",
"538 -186 OFFCURVE",
"561 -183 OFFCURVE",
"575 -176 CURVE"
);
}
);
width = 610;
}
);
unicode = 0118;
},
{
glyphname = F;
layers = (
{
layerId = UUID0;
paths = (
{
closed = 1;
nodes = (
"530 649 LINE",
"84 649 LINE",
"84 0 LINE",
"181 0 LINE",
"181 301 LINE",
"497 301 LINE",
"497 369 LINE",
"181 369 LINE",
"181 581 LINE",
"530 581 LINE"
);
}
);
width = 560;
},
{
layerId = "206DC524-6BEE-4011-B4E8-F862EC5B14D0";
paths = (
{
closed = 1;
nodes = (
"575 649 LINE",
"70 649 LINE",
"70 0 LINE",
"226 0 LINE",
"226 268 LINE",
"542 268 LINE",
"542 379 LINE",
"226 379 LINE",
"226 538 LINE",
"575 538 LINE"
);
}
);
width = 610;
}
);
unicode = 0046;
},
{
glyphname = G;
layers = (
{
layerId = UUID0;
paths = (
{
closed = 1;
nodes = (
"602 369 LINE",
"360 369 LINE",
"360 301 LINE",
"512 301 LINE",
"512 74 LINE",
"461 62 OFFCURVE",
"414 56 OFFCURVE",
"369 56 CURVE SMOOTH",
"318 56 OFFCURVE",
"277 61 OFFCURVE",
"233 77 CURVE",
"188 92 OFFCURVE",
"160 124 OFFCURVE",
"160 168 CURVE SMOOTH",
"160 474 LINE SMOOTH",
"160 553 OFFCURVE",
"228 592 OFFCURVE",
"365 592 CURVE SMOOTH",
"421 592 OFFCURVE",
"536 580 OFFCURVE",
"587 568 CURVE",
"587 643 LINE",
"518 654 OFFCURVE",
"443 659 OFFCURVE",
"363 659 CURVE SMOOTH",
"296 659 OFFCURVE",
"240 651 OFFCURVE",
"173 627 CURVE SMOOTH",
"106 603 OFFCURVE",
"64 549 OFFCURVE",
"64 473 CURVE SMOOTH",
"64 166 LINE SMOOTH",
"64 137 OFFCURVE",
"71 112 OFFCURVE",
"84 90 CURVE SMOOTH",
"111 46 OFFCURVE",
"151 24 OFFCURVE",
"207 9 CURVE SMOOTH",
"263 -7 OFFCURVE",
"308 -10 OFFCURVE",
"363 -10 CURVE SMOOTH",
"436 -10 OFFCURVE",
"515 0 OFFCURVE",
"602 20 CURVE"
);
}
);
width = 666;
},
{
layerId = "206DC524-6BEE-4011-B4E8-F862EC5B14D0";
paths = (
{
closed = 1;
nodes = (
"649 369 LINE",
"394 369 LINE",
"394 267 LINE",
"500 267 LINE",
"500 116 LINE",
"463 106 OFFCURVE",
"428 101 OFFCURVE",
"395 101 CURVE SMOOTH",
"278 101 OFFCURVE",
"212 122 OFFCURVE",
"212 189 CURVE SMOOTH",
"212 450 LINE SMOOTH",
"212 515 OFFCURVE",
"268 548 OFFCURVE",
"381 548 CURVE SMOOTH",
"478 548 OFFCURVE",
"566 539 OFFCURVE",
"645 520 CURVE",
"645 638 LINE",
"561 652 OFFCURVE",
"473 659 OFFCURVE",
"381 659 CURVE SMOOTH",
"350 659 OFFCURVE",
"321 658 OFFCURVE",
"294 655 CURVE SMOOTH",
"238 649 OFFCURVE",
"173 628 OFFCURVE",
"130 599 CURVE SMOOTH",
"87 570 OFFCURVE",
"56 516 OFFCURVE",
"56 448 CURVE SMOOTH",
"56 178 LINE SMOOTH",
"56 147 OFFCURVE",
"62 121 OFFCURVE",
"74 98 CURVE SMOOTH",
"98 53 OFFCURVE",
"137 28 OFFCURVE",
"195 12 CURVE SMOOTH",
"253 -5 OFFCURVE",
"307 -10 OFFCURVE",
"379 -10 CURVE SMOOTH",
"466 -10 OFFCURVE",
"582 8 OFFCURVE",
"649 32 CURVE"
);
}
);
width = 705;
}
);
unicode = 0047;
},
{
glyphname = Gbreve;
layers = (
{
layerId = UUID0;
paths = (
{
closed = 1;
nodes = (
"602 369 LINE",
"360 369 LINE",
"360 301 LINE",
"512 301 LINE",
"512 74 LINE",
"461 62 OFFCURVE",
"414 56 OFFCURVE",
"369 56 CURVE SMOOTH",
"318 56 OFFCURVE",
"277 61 OFFCURVE",
"233 77 CURVE",
"188 92 OFFCURVE",
"160 124 OFFCURVE",
"160 168 CURVE SMOOTH",
"160 474 LINE SMOOTH",
"160 553 OFFCURVE",
"228 592 OFFCURVE",
"365 592 CURVE SMOOTH",
"421 592 OFFCURVE",
"536 580 OFFCURVE",
"587 568 CURVE",
"587 643 LINE",
"518 654 OFFCURVE",
"443 659 OFFCURVE",
"363 659 CURVE SMOOTH",
"296 659 OFFCURVE",
"240 651 OFFCURVE",
"173 627 CURVE SMOOTH",
"106 603 OFFCURVE",
"64 549 OFFCURVE",
"64 473 CURVE SMOOTH",
"64 166 LINE SMOOTH",
"64 137 OFFCURVE",
"71 112 OFFCURVE",
"84 90 CURVE SMOOTH",
"111 46 OFFCURVE",
"151 24 OFFCURVE",
"207 9 CURVE SMOOTH",
"263 -7 OFFCURVE",
"308 -10 OFFCURVE",
"363 -10 CURVE SMOOTH",
"436 -10 OFFCURVE",
"515 0 OFFCURVE",
"602 20 CURVE"
);
},
{
closed = 1;
nodes = (
"439 776 OFFCURVE",
"450 806 OFFCURVE",
"451 845 CURVE",
"397 845 LINE",
"393 800 OFFCURVE",
"372 777 OFFCURVE",
"333 777 CURVE SMOOTH",
"294 777 OFFCURVE",
"273 800 OFFCURVE",
"269 845 CURVE",
"215 845 LINE",
"218 768 OFFCURVE",
"261 718 OFFCURVE",
"333 718 CURVE SMOOTH",
"369 718 OFFCURVE",
"397 730 OFFCURVE",
"418 753 CURVE SMOOTH"
);
}
);
width = 666;
},
{
layerId = "206DC524-6BEE-4011-B4E8-F862EC5B14D0";
paths = (
{
closed = 1;
nodes = (
"591 369 LINE",
"326 369 LINE",
"326 267 LINE",
"452 267 LINE",
"452 98 LINE",
"420 95 OFFCURVE",
"395 93 OFFCURVE",
"377 93 CURVE SMOOTH",
"336 93 OFFCURVE",
"298 98 OFFCURVE",
"261 110 CURVE SMOOTH",
"224 122 OFFCURVE",
"199 146 OFFCURVE",
"199 181 CURVE SMOOTH",
"199 472 LINE SMOOTH",
"199 487 OFFCURVE",
"203 500 OFFCURVE",
"210 511 CURVE SMOOTH",
"224 533 OFFCURVE",
"242 541 OFFCURVE",
"274 548 CURVE SMOOTH",
"306 555 OFFCURVE",
"327 555 OFFCURVE",
"363 555 CURVE SMOOTH",
"433 555 OFFCURVE",
"508 546 OFFCURVE",
"587 527 CURVE",
"587 638 LINE",
"499 653 OFFCURVE",
"424 660 OFFCURVE",
"361 660 CURVE SMOOTH",
"335 660 OFFCURVE",
"310 659 OFFCURVE",
"287 657 CURVE SMOOTH",
"239 653 OFFCURVE",
"171 636 OFFCURVE",
"128 609 CURVE SMOOTH",
"84 582 OFFCURVE",
"50 530 OFFCURVE",
"50 463 CURVE SMOOTH",
"50 178 LINE SMOOTH",
"50 146 OFFCURVE",
"57 118 OFFCURVE",
"72 95 CURVE SMOOTH",
"101 47 OFFCURVE",
"143 24 OFFCURVE",
"203 9 CURVE SMOOTH",
"263 -7 OFFCURVE",
"308 -10 OFFCURVE",
"361 -10 CURVE SMOOTH",
"441 -10 OFFCURVE",
"518 -3 OFFCURVE",
"591 12 CURVE"
);
},
{
closed = 1;
nodes = (
"403 830 LINE",
"399 791 OFFCURVE",
"380 772 OFFCURVE",
"347 772 CURVE SMOOTH",
"312 772 OFFCURVE",
"298 790 OFFCURVE",
"290 830 CURVE",
"222 830 LINE",
"226 754 OFFCURVE",
"274 703 OFFCURVE",
"347 703 CURVE SMOOTH",
"419 703 OFFCURVE",
"466 754 OFFCURVE",
"471 830 CURVE"
);
}
);
width = 641;
}
);
unicode = 011E;
},
{
glyphname = Gcircumflex;
layers = (
{
layerId = UUID0;
paths = (
{
closed = 1;
nodes = (
"602 369 LINE",
"360 369 LINE",
"360 301 LINE",
"512 301 LINE",
"512 74 LINE",
"461 62 OFFCURVE",
"414 56 OFFCURVE",
"369 56 CURVE SMOOTH",
"318 56 OFFCURVE",
"277 61 OFFCURVE",
"233 77 CURVE",
"188 92 OFFCURVE",
"160 124 OFFCURVE",
"160 168 CURVE SMOOTH",
"160 474 LINE SMOOTH",
"160 553 OFFCURVE",
"228 592 OFFCURVE",
"365 592 CURVE SMOOTH",
"421 592 OFFCURVE",
"536 580 OFFCURVE",
"587 568 CURVE",
"587 643 LINE",
"518 654 OFFCURVE",
"443 659 OFFCURVE",
"363 659 CURVE SMOOTH",
"296 659 OFFCURVE",
"240 651 OFFCURVE",
"173 627 CURVE SMOOTH",
"106 603 OFFCURVE",
"64 549 OFFCURVE",
"64 473 CURVE SMOOTH",
"64 166 LINE SMOOTH",
"64 137 OFFCURVE",
"71 112 OFFCURVE",
"84 90 CURVE SMOOTH",
"111 46 OFFCURVE",
"151 24 OFFCURVE",
"207 9 CURVE SMOOTH",
"263 -7 OFFCURVE",
"308 -10 OFFCURVE",
"363 -10 CURVE SMOOTH",
"436 -10 OFFCURVE",
"515 0 OFFCURVE",
"602 20 CURVE"
);
},
{
closed = 1;
nodes = (
"270 718 LINE",
"333 805 LINE",
"395 718 LINE",
"453 718 LINE",
"387 845 LINE",
"280 845 LINE",
"212 718 LINE"
);
}
);
width = 666;
},
{
layerId = "206DC524-6BEE-4011-B4E8-F862EC5B14D0";
paths = (
{
closed = 1;
nodes = (
"591 369 LINE",
"326 369 LINE",
"326 267 LINE",
"452 267 LINE",
"452 98 LINE",
"420 95 OFFCURVE",
"395 93 OFFCURVE",
"377 93 CURVE SMOOTH",
"336 93 OFFCURVE",
"298 98 OFFCURVE",
"261 110 CURVE SMOOTH",
"224 122 OFFCURVE",
"199 146 OFFCURVE",
"199 181 CURVE SMOOTH",
"199 472 LINE SMOOTH",
"199 487 OFFCURVE",
"203 500 OFFCURVE",
"210 511 CURVE SMOOTH",
"224 533 OFFCURVE",
"242 541 OFFCURVE",
"274 548 CURVE SMOOTH",
"306 555 OFFCURVE",
"327 555 OFFCURVE",
"363 555 CURVE SMOOTH",
"433 555 OFFCURVE",
"508 546 OFFCURVE",
"587 527 CURVE",
"587 638 LINE",
"499 653 OFFCURVE",
"424 660 OFFCURVE",
"361 660 CURVE SMOOTH",
"335 660 OFFCURVE",
"310 659 OFFCURVE",
"287 657 CURVE SMOOTH",
"239 653 OFFCURVE",
"171 636 OFFCURVE",
"128 609 CURVE SMOOTH",
"84 582 OFFCURVE",
"50 530 OFFCURVE",
"50 463 CURVE SMOOTH",
"50 178 LINE SMOOTH",
"50 146 OFFCURVE",
"57 118 OFFCURVE",
"72 95 CURVE SMOOTH",
"101 47 OFFCURVE",
"143 24 OFFCURVE",
"203 9 CURVE SMOOTH",
"263 -7 OFFCURVE",
"308 -10 OFFCURVE",
"361 -10 CURVE SMOOTH",
"441 -10 OFFCURVE",
"518 -3 OFFCURVE",
"591 12 CURVE"
);
},
{
closed = 1;
nodes = (
"435 830 LINE",
"248 830 LINE",
"192 703 LINE",
"290 703 LINE",
"342 790 LINE",
"395 703 LINE",
"493 703 LINE"
);
}
);
width = 641;
}
);
unicode = 011C;
},
{
glyphname = Gcommaaccent;
layers = (
{
layerId = UUID0;
paths = (
{
closed = 1;
nodes = (
"602 369 LINE",
"360 369 LINE",
"360 301 LINE",
"512 301 LINE",
"512 74 LINE",
"461 62 OFFCURVE",
"414 56 OFFCURVE",
"369 56 CURVE SMOOTH",
"318 56 OFFCURVE",
"277 61 OFFCURVE",
"233 77 CURVE",
"188 92 OFFCURVE",
"160 124 OFFCURVE",
"160 168 CURVE SMOOTH",
"160 474 LINE SMOOTH",
"160 553 OFFCURVE",
"228 592 OFFCURVE",
"365 592 CURVE SMOOTH",
"421 592 OFFCURVE",
"536 580 OFFCURVE",
"587 568 CURVE",
"587 643 LINE",
"518 654 OFFCURVE",
"443 659 OFFCURVE",
"363 659 CURVE SMOOTH",
"296 659 OFFCURVE",
"240 651 OFFCURVE",
"173 627 CURVE SMOOTH",
"106 603 OFFCURVE",
"64 549 OFFCURVE",
"64 473 CURVE SMOOTH",
"64 166 LINE SMOOTH",
"64 137 OFFCURVE",
"71 112 OFFCURVE",
"84 90 CURVE SMOOTH",
"111 46 OFFCURVE",
"151 24 OFFCURVE",
"207 9 CURVE SMOOTH",
"263 -7 OFFCURVE",
"308 -10 OFFCURVE",
"363 -10 CURVE SMOOTH",
"436 -10 OFFCURVE",
"515 0 OFFCURVE",
"602 20 CURVE"
);
},
{
closed = 1;
nodes = (
"309 -40 LINE",
"263 -190 LINE",
"320 -190 LINE",
"403 -40 LINE"
);
}
);
width = 666;
},
{
layerId = "206DC524-6BEE-4011-B4E8-F862EC5B14D0";
paths = (
{
closed = 1;
nodes = (
"649 369 LINE",
"394 369 LINE",
"394 267 LINE",
"500 267 LINE",
"500 116 LINE",
"463 106 OFFCURVE",
"428 101 OFFCURVE",
"395 101 CURVE SMOOTH",
"278 101 OFFCURVE",
"212 122 OFFCURVE",
"212 189 CURVE SMOOTH",
"212 450 LINE SMOOTH",
"212 515 OFFCURVE",
"268 548 OFFCURVE",
"381 548 CURVE SMOOTH",
"478 548 OFFCURVE",
"566 539 OFFCURVE",
"645 520 CURVE",
"645 638 LINE",
"561 652 OFFCURVE",
"473 659 OFFCURVE",
"381 659 CURVE SMOOTH",
"350 659 OFFCURVE",
"321 658 OFFCURVE",
"294 655 CURVE SMOOTH",
"238 649 OFFCURVE",
"173 628 OFFCURVE",
"130 599 CURVE SMOOTH",
"87 570 OFFCURVE",
"56 516 OFFCURVE",
"56 448 CURVE SMOOTH",
"56 178 LINE SMOOTH",
"56 147 OFFCURVE",
"62 121 OFFCURVE",
"74 98 CURVE SMOOTH",
"98 53 OFFCURVE",
"137 28 OFFCURVE",
"195 12 CURVE SMOOTH",
"253 -5 OFFCURVE",
"307 -10 OFFCURVE",
"379 -10 CURVE SMOOTH",
"466 -10 OFFCURVE",
"582 8 OFFCURVE",
"649 32 CURVE"
);
},
{
closed = 1;
nodes = (
"309 -46 LINE",
"263 -208 LINE",
"359 -208 LINE",
"442 -46 LINE"
);
}
);
width = 705;
}
);
unicode = 0122;
},
{
glyphname = Gdotaccent;
layers = (
{
layerId = UUID0;
paths = (
{
closed = 1;
nodes = (
"602 369 LINE",
"360 369 LINE",
"360 301 LINE",
"512 301 LINE",
"512 74 LINE",
"461 62 OFFCURVE",
"414 56 OFFCURVE",
"369 56 CURVE SMOOTH",
"318 56 OFFCURVE",
"277 61 OFFCURVE",
"233 77 CURVE",
"188 92 OFFCURVE",
"160 124 OFFCURVE",
"160 168 CURVE SMOOTH",
"160 474 LINE SMOOTH",
"160 553 OFFCURVE",
"228 592 OFFCURVE",
"365 592 CURVE SMOOTH",
"421 592 OFFCURVE",
"536 580 OFFCURVE",
"587 568 CURVE",
"587 643 LINE",
"518 654 OFFCURVE",
"443 659 OFFCURVE",
"363 659 CURVE SMOOTH",
"296 659 OFFCURVE",
"240 651 OFFCURVE",
"173 627 CURVE SMOOTH",
"106 603 OFFCURVE",
"64 549 OFFCURVE",
"64 473 CURVE SMOOTH",
"64 166 LINE SMOOTH",
"64 137 OFFCURVE",
"71 112 OFFCURVE",
"84 90 CURVE SMOOTH",
"111 46 OFFCURVE",
"151 24 OFFCURVE",
"207 9 CURVE SMOOTH",
"263 -7 OFFCURVE",
"308 -10 OFFCURVE",
"363 -10 CURVE SMOOTH",
"436 -10 OFFCURVE",
"515 0 OFFCURVE",
"602 20 CURVE"
);
},
{
closed = 1;
nodes = (
"378 831 LINE",
"288 831 LINE",
"288 733 LINE",
"378 733 LINE"
);
}
);
width = 666;
},
{
layerId = "206DC524-6BEE-4011-B4E8-F862EC5B14D0";
paths = (
{
closed = 1;
nodes = (
"591 369 LINE",
"326 369 LINE",
"326 267 LINE",
"452 267 LINE",
"452 98 LINE",
"420 95 OFFCURVE",
"395 93 OFFCURVE",
"377 93 CURVE SMOOTH",
"336 93 OFFCURVE",
"298 98 OFFCURVE",
"261 110 CURVE SMOOTH",
"224 122 OFFCURVE",
"199 146 OFFCURVE",
"199 181 CURVE SMOOTH",
"199 472 LINE SMOOTH",
"199 487 OFFCURVE",
"203 500 OFFCURVE",
"210 511 CURVE SMOOTH",
"224 533 OFFCURVE",
"242 541 OFFCURVE",
"274 548 CURVE SMOOTH",
"306 555 OFFCURVE",
"327 555 OFFCURVE",
"363 555 CURVE SMOOTH",
"433 555 OFFCURVE",
"508 546 OFFCURVE",
"587 527 CURVE",
"587 638 LINE",
"499 653 OFFCURVE",
"424 660 OFFCURVE",
"361 660 CURVE SMOOTH",
"335 660 OFFCURVE",
"310 659 OFFCURVE",
"287 657 CURVE SMOOTH",
"239 653 OFFCURVE",
"171 636 OFFCURVE",
"128 609 CURVE SMOOTH",
"84 582 OFFCURVE",
"50 530 OFFCURVE",
"50 463 CURVE SMOOTH",
"50 178 LINE SMOOTH",
"50 146 OFFCURVE",
"57 118 OFFCURVE",
"72 95 CURVE SMOOTH",
"101 47 OFFCURVE",
"143 24 OFFCURVE",
"203 9 CURVE SMOOTH",
"263 -7 OFFCURVE",
"308 -10 OFFCURVE",
"361 -10 CURVE SMOOTH",
"441 -10 OFFCURVE",
"518 -3 OFFCURVE",
"591 12 CURVE"
);
},
{
closed = 1;
nodes = (
"432 830 LINE",
"286 830 LINE",
"286 715 LINE",
"432 715 LINE"
);
}
);
width = 641;
}
);
unicode = 0120;
},
{
glyphname = H;
layers = (
{
layerId = UUID0;
paths = (
{
closed = 1;
nodes = (
"623 649 LINE",
"526 649 LINE",
"526 369 LINE",
"181 369 LINE",
"181 649 LINE",
"84 649 LINE",
"84 0 LINE",
"181 0 LINE",
"181 301 LINE",
"526 301 LINE",
"526 0 LINE",
"623 0 LINE"
);
}
);
width = 707;
},
{
layerId = "206DC524-6BEE-4011-B4E8-F862EC5B14D0";
paths = (
{
closed = 1;
nodes = (
"658 649 LINE",
"502 649 LINE",
"502 389 LINE",
"226 389 LINE",
"226 649 LINE",
"70 649 LINE",
"70 0 LINE",
"226 0 LINE",
"226 278 LINE",
"502 278 LINE",
"502 0 LINE",
"658 0 LINE"
);
}
);
width = 728;
}
);
unicode = 0048;
},
{
glyphname = Hbar;
layers = (
{
layerId = UUID0;
paths = (
{
closed = 1;
nodes = (
"623 649 LINE",
"526 649 LINE",
"526 469 LINE",
"181 469 LINE",
"181 649 LINE",
"84 649 LINE",
"84 0 LINE",
"181 0 LINE",
"181 241 LINE",
"526 241 LINE",
"526 0 LINE",
"623 0 LINE"
);
},
{
closed = 1;
nodes = (
"181 401 LINE",
"526 401 LINE",
"526 309 LINE",
"181 309 LINE"
);
}
);
width = 707;
},
{
layerId = "206DC524-6BEE-4011-B4E8-F862EC5B14D0";
paths = (
{
closed = 1;
nodes = (
"658 649 LINE",
"502 649 LINE",
"502 485 LINE",
"226 485 LINE",
"226 649 LINE",
"70 649 LINE",
"70 0 LINE",
"226 0 LINE",
"226 208 LINE",
"502 208 LINE",
"502 0 LINE",
"658 0 LINE"
);
},
{
closed = 1;
nodes = (
"502 383 LINE",
"502 310 LINE",
"226 310 LINE",
"226 383 LINE"
);
}
);
width = 728;
}
);
unicode = 0126;
},
{
glyphname = Hcircumflex;
layers = (
{
layerId = UUID0;
paths = (
{
closed = 1;
nodes = (
"623 649 LINE",
"526 649 LINE",
"526 369 LINE",
"181 369 LINE",
"181 649 LINE",
"84 649 LINE",
"84 0 LINE",
"181 0 LINE",
"181 301 LINE",
"526 301 LINE",
"526 0 LINE",
"623 0 LINE"
);
},
{
closed = 1;
nodes = (
"288 703 LINE",
"351 790 LINE",
"413 703 LINE",
"471 703 LINE",
"405 830 LINE",
"298 830 LINE",
"230 703 LINE"
);
}
);
width = 707;
},
{
layerId = "206DC524-6BEE-4011-B4E8-F862EC5B14D0";
paths = (
{
closed = 1;
nodes = (
"658 649 LINE",
"502 649 LINE",
"502 389 LINE",
"226 389 LINE",
"226 649 LINE",
"70 649 LINE",
"70 0 LINE",
"226 0 LINE",
"226 278 LINE",
"502 278 LINE",
"502 0 LINE",
"658 0 LINE"
);
},
{
closed = 1;
nodes = (
"456 845 LINE",
"269 845 LINE",
"213 718 LINE",
"311 718 LINE",
"363 805 LINE",
"416 718 LINE",
"514 718 LINE"
);
}
);
width = 728;
}
);
unicode = 0124;
},
{
glyphname = I;
layers = (
{
anchors = (
{
name = bottom;
position = "{133, 0}";
},
{
name = ogonek;
position = "{148, 10}";
},
{
name = top;
position = "{133, 649}";
},
{
name = topleft;
position = "{20, 649}";
}
);
layerId = UUID0;
paths = (
{
closed = 1;
nodes = (
"181 649 LINE",
"84 649 LINE",
"84 0 LINE",
"181 0 LINE"
);
}
);
width = 265;
},
{
anchors = (
{
name = bottom;
position = "{148, 0}";
},
{
name = ogonek;
position = "{196, 10}";
},
{
name = top;
position = "{148, 649}";
},
{
name = topleft;
position = "{20, 649}";
}
);
layerId = "206DC524-6BEE-4011-B4E8-F862EC5B14D0";
paths = (
{
closed = 1;
nodes = (
"226 649 LINE",
"70 649 LINE",
"70 0 LINE",
"226 0 LINE"
);
}
);
width = 296;
}
);
unicode = 0049;
},
{
glyphname = IJ;
layers = (
{
layerId = UUID0;
paths = (
{
closed = 1;
nodes = (
"181 649 LINE",
"84 649 LINE",
"84 0 LINE",
"181 0 LINE"
);
},
{
closed = 1;
nodes = (
"517 649 LINE",
"420 649 LINE",
"420 139 LINE SMOOTH",
"420 66 OFFCURVE",
"401 55 OFFCURVE",
"325 55 CURVE SMOOTH",
"304 55 OFFCURVE",
"275 58 OFFCURVE",
"245 63 CURVE SMOOTH",
"230 65 OFFCURVE",
"221 66 OFFCURVE",
"218 66 CURVE",
"218 1 LINE",
"286 -3 OFFCURVE",
"326 -5 OFFCURVE",
"337 -5 CURVE SMOOTH",
"468 -5 OFFCURVE",
"517 20 OFFCURVE",
"517 143 CURVE SMOOTH"
);
}
);
width = 601;
},
{
layerId = "206DC524-6BEE-4011-B4E8-F862EC5B14D0";
paths = (
{
closed = 1;
nodes = (
"226 649 LINE",
"70 649 LINE",
"70 0 LINE",
"226 0 LINE"
);
},
{
closed = 1;
nodes = (
"517 649 LINE",
"517 172 LINE SMOOTH",
"517 125 OFFCURVE",
"491 101 OFFCURVE",
"438 101 CURVE SMOOTH",
"405 101 OFFCURVE",
"364 105 OFFCURVE",
"315 114 CURVE",
"315 0 LINE",
"362 -7 OFFCURVE",
"407 -10 OFFCURVE",
"450 -10 CURVE SMOOTH",
"595 -10 OFFCURVE",
"673 37 OFFCURVE",
"673 177 CURVE SMOOTH",
"673 649 LINE"
);
}
);
width = 741;
}
);
unicode = 0132;
},
{
glyphname = Ibreve;
layers = (
{
layerId = UUID0;
paths = (
{
closed = 1;
nodes = (
"181 649 LINE",
"84 649 LINE",
"84 0 LINE",
"181 0 LINE"
);
},
{
closed = 1;
nodes = (
"239 776 OFFCURVE",
"250 806 OFFCURVE",
"251 845 CURVE",
"197 845 LINE",
"193 800 OFFCURVE",
"172 777 OFFCURVE",
"133 777 CURVE SMOOTH",
"94 777 OFFCURVE",
"73 800 OFFCURVE",
"69 845 CURVE",
"15 845 LINE",
"18 768 OFFCURVE",
"61 718 OFFCURVE",
"133 718 CURVE SMOOTH",
"169 718 OFFCURVE",
"197 730 OFFCURVE",
"218 753 CURVE SMOOTH"
);
}
);
width = 265;
},
{
layerId = "206DC524-6BEE-4011-B4E8-F862EC5B14D0";
paths = (
{
closed = 1;
nodes = (
"226 649 LINE",
"70 649 LINE",
"70 0 LINE",
"226 0 LINE"
);
},
{
closed = 1;
nodes = (
"204 845 LINE",
"200 808 OFFCURVE",
"181 790 OFFCURVE",
"148 790 CURVE SMOOTH",
"112 790 OFFCURVE",
"99 806 OFFCURVE",
"91 845 CURVE",
"10 845 LINE",
"14 769 OFFCURVE",
"65 718 OFFCURVE",
"148 718 CURVE SMOOTH",
"229 718 OFFCURVE",
"281 769 OFFCURVE",
"286 845 CURVE"
);
}
);
width = 296;
}
);
unicode = 012C;
},
{
glyphname = Icircumflex;
layers = (
{
layerId = UUID0;
paths = (
{
closed = 1;
nodes = (
"181 649 LINE",
"84 649 LINE",
"84 0 LINE",
"181 0 LINE"
);
},
{
closed = 1;
nodes = (
"69 703 LINE",
"132 790 LINE",
"194 703 LINE",
"252 703 LINE",
"186 830 LINE",
"79 830 LINE",
"11 703 LINE"
);
}
);
width = 265;
},
{
layerId = "206DC524-6BEE-4011-B4E8-F862EC5B14D0";
paths = (
{
closed = 1;
nodes = (
"226 649 LINE",
"70 649 LINE",
"70 0 LINE",
"226 0 LINE"
);
},
{
closed = 1;
nodes = (
"241 845 LINE",
"54 845 LINE",
"-2 718 LINE",
"96 718 LINE",
"148 805 LINE",
"201 718 LINE",
"299 718 LINE"
);
}
);
width = 296;
}
);
unicode = 00CE;
},
{
glyphname = Idieresis;
layers = (
{
layerId = UUID0;
paths = (
{
closed = 1;
nodes = (
"181 649 LINE",
"84 649 LINE",
"84 0 LINE",
"181 0 LINE"
);
},
{
closed = 1;
nodes = (
"94 809 LINE",
"4 809 LINE",
"4 715 LINE",
"94 715 LINE"
);
},
{
closed = 1;
nodes = (
"264 809 LINE",
"174 809 LINE",
"174 715 LINE",
"264 715 LINE"
);
}
);
width = 265;
},
{
layerId = "206DC524-6BEE-4011-B4E8-F862EC5B14D0";
paths = (
{
closed = 1;
nodes = (
"226 649 LINE",
"70 649 LINE",
"70 0 LINE",
"226 0 LINE"
);
},
{
closed = 1;
nodes = (
"306 848 LINE",
"180 848 LINE",
"180 730 LINE",
"306 730 LINE"
);
},
{
closed = 1;
nodes = (
"116 848 LINE",
"-10 848 LINE",
"-10 730 LINE",
"116 730 LINE"
);
}
);
width = 296;
}
);
unicode = 00CF;
},
{
glyphname = Idotaccent;
layers = (
{
layerId = UUID0;
paths = (
{
closed = 1;
nodes = (
"181 649 LINE",
"84 649 LINE",
"84 0 LINE",
"181 0 LINE"
);
},
{
closed = 1;
nodes = (
"177 811 LINE",
"87 811 LINE",
"87 713 LINE",
"177 713 LINE"
);
}
);
width = 265;
},
{
layerId = "206DC524-6BEE-4011-B4E8-F862EC5B14D0";
paths = (
{
closed = 1;
nodes = (
"226 649 LINE",
"70 649 LINE",
"70 0 LINE",
"226 0 LINE"
);
},
{
closed = 1;
nodes = (
"221 845 LINE",
"75 845 LINE",
"75 730 LINE",
"221 730 LINE"
);
}
);
width = 296;
}
);
unicode = 0130;
},
{
glyphname = Imacron;
layers = (
{
layerId = UUID0;
paths = (
{
closed = 1;
nodes = (
"181 649 LINE",
"84 649 LINE",
"84 0 LINE",
"181 0 LINE"
);
},
{
closed = 1;
nodes = (
"242 798 LINE",
"24 798 LINE",
"24 739 LINE",
"242 739 LINE"
);
}
);
width = 265;
},
{
layerId = "206DC524-6BEE-4011-B4E8-F862EC5B14D0";
paths = (
{
closed = 1;
nodes = (
"226 649 LINE",
"70 649 LINE",
"70 0 LINE",
"226 0 LINE"
);
},
{
closed = 1;
nodes = (
"287 814 LINE",
"9 814 LINE",
"9 725 LINE",
"287 725 LINE"
);
}
);
width = 296;
}
);
unicode = 012A;
},
{
glyphname = Iogonek;
layers = (
{
layerId = UUID0;
paths = (
{
closed = 1;
nodes = (
"181 649 LINE",
"84 649 LINE",
"84 0 LINE",
"67 -40 OFFCURVE",
"59 -75 OFFCURVE",
"59 -106 CURVE SMOOTH",
"59 -163 OFFCURVE",
"91 -186 OFFCURVE",
"158 -186 CURVE SMOOTH",
"177 -186 OFFCURVE",
"194 -183 OFFCURVE",
"208 -176 CURVE",
"208 -123 LINE",
"193 -128 OFFCURVE",
"182 -130 OFFCURVE",
"177 -130 CURVE SMOOTH",
"151 -130 OFFCURVE",
"138 -119 OFFCURVE",
"138 -97 CURVE SMOOTH",
"138 -64 OFFCURVE",
"152 -31 OFFCURVE",
"181 0 CURVE"
);
}
);
width = 265;
},
{
layerId = "206DC524-6BEE-4011-B4E8-F862EC5B14D0";
paths = (
{
closed = 1;
nodes = (
"226 649 LINE",
"70 649 LINE",
"70 0 LINE",
"49 -32 OFFCURVE",
"39 -67 OFFCURVE",
"39 -106 CURVE SMOOTH",
"39 -163 OFFCURVE",
"73 -186 OFFCURVE",
"138 -186 CURVE SMOOTH",
"171 -186 OFFCURVE",
"194 -183 OFFCURVE",
"208 -176 CURVE",
"208 -109 LINE",
"196 -113 OFFCURVE",
"186 -115 OFFCURVE",
"178 -115 CURVE SMOOTH",
"149 -115 OFFCURVE",
"140 -104 OFFCURVE",
"140 -83 CURVE SMOOTH",
"140 -51 OFFCURVE",
"181 -15 OFFCURVE",
"226 0 CURVE"
);
}
);
width = 296;
}
);
unicode = 012E;
},
{
glyphname = J;
layers = (
{
layerId = UUID0;
paths = (
{
closed = 1;
nodes = (
"222 649 LINE",
"222 139 LINE SMOOTH",
"222 64 OFFCURVE",
"202 50 OFFCURVE",
"127 50 CURVE SMOOTH",
"96 50 OFFCURVE",
"61 55 OFFCURVE",
"20 66 CURVE",
"20 1 LINE",
"45 -6 OFFCURVE",
"84 -10 OFFCURVE",
"139 -10 CURVE SMOOTH",
"268 -10 OFFCURVE",
"319 19 OFFCURVE",
"319 143 CURVE SMOOTH",
"319 649 LINE"
);
}
);
width = 403;
},
{
layerId = "206DC524-6BEE-4011-B4E8-F862EC5B14D0";
paths = (
{
closed = 1;
nodes = (
"221 649 LINE",
"221 172 LINE SMOOTH",
"221 125 OFFCURVE",
"195 101 OFFCURVE",
"142 101 CURVE SMOOTH",
"109 101 OFFCURVE",
"68 105 OFFCURVE",
"19 114 CURVE",
"19 0 LINE",
"66 -7 OFFCURVE",
"111 -10 OFFCURVE",
"154 -10 CURVE SMOOTH",
"299 -10 OFFCURVE",
"377 37 OFFCURVE",
"377 177 CURVE SMOOTH",
"377 649 LINE"
);
}
);
width = 445;
}
);
unicode = 004A;
},
{
glyphname = Jcircumflex;
layers = (
{
layerId = UUID0;
paths = (
{
closed = 1;
nodes = (
"222 649 LINE",
"222 139 LINE SMOOTH",
"222 64 OFFCURVE",
"202 50 OFFCURVE",
"127 50 CURVE SMOOTH",
"96 50 OFFCURVE",
"61 55 OFFCURVE",
"20 66 CURVE",
"20 1 LINE",
"45 -6 OFFCURVE",
"84 -10 OFFCURVE",
"139 -10 CURVE SMOOTH",
"268 -10 OFFCURVE",
"319 19 OFFCURVE",
"319 143 CURVE SMOOTH",
"319 649 LINE"
);
},
{
closed = 1;
nodes = (
"207 712 LINE",
"270 799 LINE",
"332 712 LINE",
"390 712 LINE",
"324 839 LINE",
"217 839 LINE",
"149 712 LINE"
);
}
);
width = 403;
},
{
layerId = "206DC524-6BEE-4011-B4E8-F862EC5B14D0";
paths = (
{
closed = 1;
nodes = (
"221 649 LINE",
"221 172 LINE SMOOTH",
"221 125 OFFCURVE",
"195 101 OFFCURVE",
"142 101 CURVE SMOOTH",
"109 101 OFFCURVE",
"68 105 OFFCURVE",
"19 114 CURVE",
"19 0 LINE",
"66 -7 OFFCURVE",
"111 -10 OFFCURVE",
"154 -10 CURVE SMOOTH",
"299 -10 OFFCURVE",
"377 37 OFFCURVE",
"377 177 CURVE SMOOTH",
"377 649 LINE"
);
},
{
closed = 1;
nodes = (
"391 845 LINE",
"204 845 LINE",
"148 718 LINE",
"246 718 LINE",
"298 805 LINE",
"351 718 LINE",
"449 718 LINE"
);
}
);
width = 445;
}
);
unicode = 0134;
},
{
glyphname = K;
layers = (
{
layerId = UUID0;
paths = (
{
closed = 1;
nodes = (
"298 349 LINE",
"590 649 LINE",
"473 649 LINE",
"183 345 LINE",
"493 0 LINE",
"619 0 LINE"
);
},
{
closed = 1;
nodes = (
"181 649 LINE",
"84 649 LINE",
"84 0 LINE",
"181 0 LINE"
);
}
);
width = 609;
},
{
layerId = "206DC524-6BEE-4011-B4E8-F862EC5B14D0";
paths = (
{
closed = 1;
nodes = (
"410 347 LINE",
"656 649 LINE",
"473 649 LINE",
"230 344 LINE",
"493 0 LINE",
"683 0 LINE"
);
},
{
closed = 1;
nodes = (
"226 649 LINE",
"70 649 LINE",
"70 0 LINE",
"226 0 LINE"
);
}
);
width = 682;
}
);
unicode = 004B;
},
{
glyphname = Kcommaaccent;
layers = (
{
layerId = UUID0;
paths = (
{
closed = 1;
nodes = (
"298 349 LINE",
"590 649 LINE",
"473 649 LINE",
"183 345 LINE",
"493 0 LINE",
"619 0 LINE"
);
},
{
closed = 1;
nodes = (
"181 649 LINE",
"84 649 LINE",
"84 0 LINE",
"181 0 LINE"
);
},
{
closed = 1;
nodes = (
"290 -40 LINE",
"244 -190 LINE",
"308 -190 LINE",
"391 -40 LINE"
);
}
);
width = 609;
},
{
layerId = "206DC524-6BEE-4011-B4E8-F862EC5B14D0";
paths = (
{
closed = 1;
nodes = (
"410 347 LINE",
"656 649 LINE",
"473 649 LINE",
"230 344 LINE",
"493 0 LINE",
"683 0 LINE"
);
},
{
closed = 1;
nodes = (
"226 649 LINE",
"70 649 LINE",
"70 0 LINE",
"226 0 LINE"
);
},
{
closed = 1;
nodes = (
"297 -46 LINE",
"251 -208 LINE",
"347 -208 LINE",
"430 -46 LINE"
);
}
);
width = 682;
}
);
unicode = 0136;
},
{
glyphname = L;
layers = (
{
layerId = UUID0;
paths = (
{
closed = 1;
nodes = (
"500 68 LINE",
"181 68 LINE",
"181 649 LINE",
"84 649 LINE",
"84 0 LINE",
"500 0 LINE"
);
}
);
width = 520;
},
{
layerId = "206DC524-6BEE-4011-B4E8-F862EC5B14D0";
paths = (
{
closed = 1;
nodes = (
"545 111 LINE",
"226 111 LINE",
"226 649 LINE",
"70 649 LINE",
"70 0 LINE",
"545 0 LINE"
);
}
);
width = 580;
}
);
unicode = 004C;
},
{
glyphname = Lacute;
layers = (
{
layerId = UUID0;
paths = (
{
closed = 1;
nodes = (
"500 68 LINE",
"181 68 LINE",
"181 649 LINE",
"84 649 LINE",
"84 0 LINE",
"500 0 LINE"
);
},
{
closed = 1;
nodes = (
"184 830 LINE",
"94 703 LINE",
"168 703 LINE",
"293 830 LINE"
);
}
);
width = 520;
},
{
layerId = "206DC524-6BEE-4011-B4E8-F862EC5B14D0";
paths = (
{
closed = 1;
nodes = (
"545 111 LINE",
"226 111 LINE",
"226 649 LINE",
"70 649 LINE",
"70 0 LINE",
"545 0 LINE"
);
},
{
closed = 1;
nodes = (
"182 845 LINE",
"92 718 LINE",
"216 718 LINE",
"341 845 LINE"
);
}
);
width = 580;
}
);
unicode = 0139;
},
{
glyphname = Lcaron;
layers = (
{
layerId = UUID0;
paths = (
{
closed = 1;
nodes = (
"500 68 LINE",
"181 68 LINE",
"181 649 LINE",
"84 649 LINE",
"84 0 LINE",
"500 0 LINE"
);
},
{
closed = 1;
nodes = (
"288 649 LINE",
"242 499 LINE",
"306 499 LINE",
"389 649 LINE"
);
}
);
width = 520;
},
{
layerId = "206DC524-6BEE-4011-B4E8-F862EC5B14D0";
paths = (
{
closed = 1;
nodes = (
"545 111 LINE",
"226 111 LINE",
"226 649 LINE",
"70 649 LINE",
"70 0 LINE",
"545 0 LINE"
);
},
{
closed = 1;
nodes = (
"283 649 LINE",
"257 486 LINE",
"353 486 LINE",
"417 649 LINE"
);
}
);
width = 580;
}
);
unicode = 013D;
},
{
glyphname = Lcommaaccent;
layers = (
{
layerId = UUID0;
paths = (
{
closed = 1;
nodes = (
"500 68 LINE",
"181 68 LINE",
"181 649 LINE",
"84 649 LINE",
"84 0 LINE",
"500 0 LINE"
);
},
{
closed = 1;
nodes = (
"260 -40 LINE",
"214 -190 LINE",
"278 -190 LINE",
"361 -40 LINE"
);
}
);
width = 520;
},
{
layerId = "206DC524-6BEE-4011-B4E8-F862EC5B14D0";
paths = (
{
closed = 1;
nodes = (
"545 111 LINE",
"226 111 LINE",
"226 649 LINE",
"70 649 LINE",
"70 0 LINE",
"545 0 LINE"
);
},
{
closed = 1;
nodes = (
"246 -46 LINE",
"200 -208 LINE",
"296 -208 LINE",
"379 -46 LINE"
);
}
);
width = 580;
}
);
unicode = 013B;
},
{
glyphname = Ldot;
layers = (
{
layerId = UUID0;
paths = (
{
closed = 1;
nodes = (
"500 68 LINE",
"181 68 LINE",
"181 649 LINE",
"84 649 LINE",
"84 0 LINE",
"500 0 LINE"
);
},
{
closed = 1;
nodes = (
"330 381 LINE",
"240 381 LINE",
"240 283 LINE",
"330 283 LINE"
);
}
);
width = 520;
},
{
layerId = "206DC524-6BEE-4011-B4E8-F862EC5B14D0";
paths = (
{
closed = 1;
nodes = (
"545 111 LINE",
"226 111 LINE",
"226 649 LINE",
"70 649 LINE",
"70 0 LINE",
"545 0 LINE"
);
},
{
closed = 1;
nodes = (
"420 403 LINE",
"273 403 LINE",
"273 265 LINE",
"420 265 LINE"
);
}
);
width = 580;
}
);
unicode = 013F;
},
{
glyphname = Lslash;
layers = (
{
layerId = UUID0;
paths = (
{
closed = 1;
nodes = (
"312 414 LINE",
"201 382 LINE",
"201 649 LINE",
"104 649 LINE",
"104 354 LINE",
"20 330 LINE",
"20 259 LINE",
"104 283 LINE",
"104 0 LINE",
"520 0 LINE",
"520 68 LINE",
"201 68 LINE",
"201 311 LINE",
"312 343 LINE"
);
}
);
width = 540;
},
{
layerId = "206DC524-6BEE-4011-B4E8-F862EC5B14D0";
paths = (
{
closed = 1;
nodes = (
"545 111 LINE",
"226 111 LINE",
"226 285 LINE",
"356 323 LINE",
"356 428 LINE",
"226 390 LINE",
"226 649 LINE",
"70 649 LINE",
"70 345 LINE",
"10 328 LINE",
"10 223 LINE",
"70 240 LINE",
"70 0 LINE",
"545 0 LINE"
);
}
);
width = 580;
}
);
unicode = 0141;
},
{
glyphname = M;
layers = (
{
layerId = UUID0;
paths = (
{
closed = 1;
nodes = (
"777 649 LINE",
"637 649 LINE",
"440 108 LINE",
"437 109 LINE",
"229 649 LINE",
"84 649 LINE",
"84 0 LINE",
"171 0 LINE",
"171 549 LINE",
"176 549 LINE",
"391 0 LINE",
"478 0 LINE",
"687 549 LINE",
"692 549 LINE",
"692 0 LINE",
"777 0 LINE"
);
}
);
width = 861;
},
{
layerId = "206DC524-6BEE-4011-B4E8-F862EC5B14D0";
paths = (
{
closed = 1;
nodes = (
"819 649 LINE",
"610 649 LINE",
"452 185 LINE",
"292 649 LINE",
"70 649 LINE",
"70 0 LINE",
"213 0 LINE",
"213 480 LINE",
"217 480 LINE",
"386 0 LINE",
"511 0 LINE",
"675 480 LINE",
"678 480 LINE",
"678 0 LINE",
"819 0 LINE"
);
}
);
width = 889;
}
);
unicode = 004D;
},
{
glyphname = N;
layers = (
{
layerId = UUID0;
paths = (
{
closed = 1;
nodes = (
"639 649 LINE",
"554 649 LINE",
"554 113 LINE",
"201 649 LINE",
"84 649 LINE",
"84 0 LINE",
"169 0 LINE",
"169 545 LINE",
"522 0 LINE",
"639 0 LINE"
);
}
);
width = 723;
},
{
layerId = "206DC524-6BEE-4011-B4E8-F862EC5B14D0";
paths = (
{
closed = 1;
nodes = (
"681 649 LINE",
"542 649 LINE",
"542 206 LINE",
"228 649 LINE",
"70 649 LINE",
"70 0 LINE",
"209 0 LINE",
"209 450 LINE",
"523 0 LINE",
"681 0 LINE"
);
}
);
width = 751;
}
);
unicode = 004E;
},
{
glyphname = Nacute;
layers = (
{
layerId = UUID0;
paths = (
{
closed = 1;
nodes = (
"639 649 LINE",
"554 649 LINE",
"554 113 LINE",
"201 649 LINE",
"84 649 LINE",
"84 0 LINE",
"169 0 LINE",
"169 545 LINE",
"522 0 LINE",
"639 0 LINE"
);
},
{
closed = 1;
nodes = (
"370 830 LINE",
"280 703 LINE",
"354 703 LINE",
"479 830 LINE"
);
}
);
width = 723;
},
{
layerId = "206DC524-6BEE-4011-B4E8-F862EC5B14D0";
paths = (
{
closed = 1;
nodes = (
"681 649 LINE",
"542 649 LINE",
"542 206 LINE",
"228 649 LINE",
"70 649 LINE",
"70 0 LINE",
"209 0 LINE",
"209 450 LINE",
"523 0 LINE",
"681 0 LINE"
);
},
{
closed = 1;
nodes = (
"341 845 LINE",
"251 718 LINE",
"375 718 LINE",
"500 845 LINE"
);
}
);
width = 751;
}
);
unicode = 0143;
},
{
glyphname = Ncaron;
layers = (
{
layerId = UUID0;
paths = (
{
closed = 1;
nodes = (
"639 649 LINE",
"554 649 LINE",
"554 113 LINE",
"201 649 LINE",
"84 649 LINE",
"84 0 LINE",
"169 0 LINE",
"169 545 LINE",
"522 0 LINE",
"639 0 LINE"
);
},
{
closed = 1;
nodes = (
"433 703 LINE",
"499 830 LINE",
"441 830 LINE",
"379 743 LINE",
"316 830 LINE",
"258 830 LINE",
"326 703 LINE"
);
}
);
width = 723;
},
{
layerId = "206DC524-6BEE-4011-B4E8-F862EC5B14D0";
paths = (
{
closed = 1;
nodes = (
"681 649 LINE",
"542 649 LINE",
"542 206 LINE",
"228 649 LINE",
"70 649 LINE",
"70 0 LINE",
"209 0 LINE",
"209 450 LINE",
"523 0 LINE",
"681 0 LINE"
);
},
{
closed = 1;
nodes = (
"421 830 LINE",
"369 743 LINE",
"316 830 LINE",
"218 830 LINE",
"276 703 LINE",
"463 703 LINE",
"519 830 LINE"
);
}
);
width = 751;
}
);
unicode = 0147;
},
{
glyphname = Ncommaaccent;
layers = (
{
layerId = UUID0;
paths = (
{
closed = 1;
nodes = (
"639 649 LINE",
"554 649 LINE",
"554 113 LINE",
"201 649 LINE",
"84 649 LINE",
"84 0 LINE",
"169 0 LINE",
"169 545 LINE",
"522 0 LINE",
"639 0 LINE"
);
},
{
closed = 1;
nodes = (
"333 -40 LINE",
"287 -190 LINE",
"351 -190 LINE",
"434 -40 LINE"
);
}
);
width = 723;
},
{
layerId = "206DC524-6BEE-4011-B4E8-F862EC5B14D0";
paths = (
{
closed = 1;
nodes = (
"681 649 LINE",
"542 649 LINE",
"542 206 LINE",
"228 649 LINE",
"70 649 LINE",
"70 0 LINE",
"209 0 LINE",
"209 450 LINE",
"523 0 LINE",
"681 0 LINE"
);
},
{
closed = 1;
nodes = (
"332 -46 LINE",
"286 -208 LINE",
"382 -208 LINE",
"465 -46 LINE"
);
}
);
width = 751;
}
);
unicode = 0145;
},
{
glyphname = Eng;
layers = (
{
layerId = UUID0;
paths = (
{
closed = 1;
nodes = (
"550 -36 LINE",
"550 -88 OFFCURVE",
"531 -126 OFFCURVE",
"455 -126 CURVE",
"455 -190 LINE",
"481 -190 LINE SMOOTH",
"606 -190 OFFCURVE",
"639 -140 OFFCURVE",
"639 -41 CURVE SMOOTH",
"639 649 LINE",
"554 649 LINE",
"554 113 LINE",
"201 649 LINE",
"84 649 LINE",
"84 0 LINE",
"169 0 LINE",
"169 545 LINE"
);
}
);
width = 723;
},
{
layerId = "206DC524-6BEE-4011-B4E8-F862EC5B14D0";
paths = (
{
closed = 1;
nodes = (
"542 649 LINE",
"542 206 LINE",
"228 649 LINE",
"70 649 LINE",
"70 0 LINE",
"209 0 LINE",
"209 450 LINE",
"525 0 LINE",
"525 -7 LINE SMOOTH",
"525 -72 OFFCURVE",
"511 -91 OFFCURVE",
"474 -91 CURVE SMOOTH",
"451 -91 OFFCURVE",
"434 -89 OFFCURVE",
"422 -86 CURVE",
"422 -175 LINE",
"439 -178 OFFCURVE",
"469 -180 OFFCURVE",
"513 -180 CURVE SMOOTH",
"536 -180 OFFCURVE",
"555 -179 OFFCURVE",
"570 -177 CURVE SMOOTH",
"600 -174 OFFCURVE",
"634 -163 OFFCURVE",
"651 -142 CURVE SMOOTH",
"668 -122 OFFCURVE",
"681 -85 OFFCURVE",
"681 -32 CURVE SMOOTH",
"681 649 LINE"
);
}
);
width = 751;
}
);
unicode = 014A;
},
{
glyphname = Ntilde;
layers = (
{
layerId = UUID0;
paths = (
{
closed = 1;
nodes = (
"639 649 LINE",
"554 649 LINE",
"554 113 LINE",
"201 649 LINE",
"84 649 LINE",
"84 0 LINE",
"169 0 LINE",
"169 545 LINE",
"522 0 LINE",
"639 0 LINE"
);
},
{
closed = 1;
nodes = (
"272 793 OFFCURVE",
"250 783 OFFCURVE",
"234 764 CURVE",
"234 691 LINE",
"251 717 OFFCURVE",
"272 730 OFFCURVE",
"299 730 CURVE SMOOTH",
"312 730 OFFCURVE",
"331 724 OFFCURVE",
"358 712 CURVE SMOOTH",
"385 700 OFFCURVE",
"407 694 OFFCURVE",
"424 694 CURVE SMOOTH",
"452 694 OFFCURVE",
"474 707 OFFCURVE",
"489 733 CURVE",
"489 802 LINE",
"469 773 OFFCURVE",
"453 759 OFFCURVE",
"424 759 CURVE SMOOTH",
"411 759 OFFCURVE",
"391 765 OFFCURVE",
"364 776 CURVE SMOOTH",
"337 787 OFFCURVE",
"315 793 OFFCURVE",
"299 793 CURVE SMOOTH"
);
}
);
width = 723;
},
{
layerId = "206DC524-6BEE-4011-B4E8-F862EC5B14D0";
paths = (
{
closed = 1;
nodes = (
"681 649 LINE",
"542 649 LINE",
"542 206 LINE",
"228 649 LINE",
"70 649 LINE",
"70 0 LINE",
"209 0 LINE",
"209 450 LINE",
"523 0 LINE",
"681 0 LINE"
);
},
{
closed = 1;
nodes = (
"427 824 OFFCURVE",
"409 829 OFFCURVE",
"384 839 CURVE SMOOTH",
"358 849 OFFCURVE",
"337 854 OFFCURVE",
"322 854 CURVE SMOOTH",
"274 854 OFFCURVE",
"239 806 OFFCURVE",
"231 775 CURVE",
"271 751 LINE",
"280 773 OFFCURVE",
"294 784 OFFCURVE",
"313 784 CURVE SMOOTH",
"320 784 OFFCURVE",
"337 779 OFFCURVE",
"364 768 CURVE SMOOTH",
"391 757 OFFCURVE",
"412 751 OFFCURVE",
"429 751 CURVE SMOOTH",
"477 751 OFFCURVE",
"511 801 OFFCURVE",
"520 833 CURVE",
"479 857 LINE",
"470 835 OFFCURVE",
"457 824 OFFCURVE",
"438 824 CURVE SMOOTH"
);
}
);
width = 751;
}
);
unicode = 00D1;
},
{
glyphname = O;
layers = (
{
anchors = (
{
name = bottom;
position = "{340, 0}";
},
{
name = center;
position = "{340, 325}";
},
{
name = ogonek;
position = "{611, 10}";
},
{
name = top;
position = "{340, 649}";
},
{
name = topleft;
position = "{20, 649}";
},
{
name = topright;
position = "{536, 649}";
}
);
layerId = UUID0;
paths = (
{
closed = 1;
nodes = (
"613 474 LINE",
"613 597 OFFCURVE",
"521 659 OFFCURVE",
"338 659 CURVE SMOOTH",
"157 659 OFFCURVE",
"66 597 OFFCURVE",
"66 473 CURVE SMOOTH",
"66 166 LINE SMOOTH",
"66 49 OFFCURVE",
"157 -10 OFFCURVE",
"338 -10 CURVE SMOOTH",
"485 -10 OFFCURVE",
"613 32 OFFCURVE",
"613 166 CURVE SMOOTH"
);
},
{
closed = 1;
nodes = (
"519 167 LINE",
"519 92 OFFCURVE",
"459 55 OFFCURVE",
"340 55 CURVE SMOOTH",
"219 55 OFFCURVE",
"159 92 OFFCURVE",
"159 167 CURVE SMOOTH",
"159 476 LINE SMOOTH",
"159 570 OFFCURVE",
"233 596 OFFCURVE",
"339 596 CURVE SMOOTH",
"459 596 OFFCURVE",
"519 556 OFFCURVE",
"519 476 CURVE SMOOTH"
);
}
);
width = 679;
},
{
anchors = (
{
name = bottom;
position = "{364, 0}";
},
{
name = center;
position = "{364, 325}";
},
{
name = ogonek;
position = "{655, 10}";
},
{
name = top;
position = "{364, 649}";
},
{
name = topleft;
position = "{20, 649}";
},
{
name = topright;
position = "{565, 649}";
}
);
layerId = "206DC524-6BEE-4011-B4E8-F862EC5B14D0";
paths = (
{
closed = 1;
nodes = (
"672 462 LINE",
"672 496 OFFCURVE",
"665 526 OFFCURVE",
"650 551 CURVE SMOOTH",
"621 601 OFFCURVE",
"579 624 OFFCURVE",
"519 641 CURVE SMOOTH",
"459 657 OFFCURVE",
"416 659 OFFCURVE",
"363 659 CURVE SMOOTH",
"337 659 OFFCURVE",
"312 658 OFFCURVE",
"289 656 CURVE SMOOTH",
"242 652 OFFCURVE",
"175 635 OFFCURVE",
"133 608 CURVE SMOOTH",
"91 581 OFFCURVE",
"56 529 OFFCURVE",
"56 462 CURVE SMOOTH",
"56 178 LINE SMOOTH",
"56 99 OFFCURVE",
"100 45 OFFCURVE",
"169 21 CURVE SMOOTH",
"237 -3 OFFCURVE",
"294 -10 OFFCURVE",
"363 -10 CURVE SMOOTH",
"436 -10 OFFCURVE",
"500 0 OFFCURVE",
"565 26 CURVE SMOOTH",
"630 52 OFFCURVE",
"672 105 OFFCURVE",
"672 178 CURVE SMOOTH"
);
},
{
closed = 1;
nodes = (
"516 178 LINE",
"516 145 OFFCURVE",
"499 122 OFFCURVE",
"467 113 CURVE SMOOTH",
"435 104 OFFCURVE",
"409 101 OFFCURVE",
"365 101 CURVE SMOOTH",
"321 101 OFFCURVE",
"295 104 OFFCURVE",
"263 113 CURVE SMOOTH",
"230 122 OFFCURVE",
"212 145 OFFCURVE",
"212 178 CURVE SMOOTH",
"212 463 LINE SMOOTH",
"212 527 OFFCURVE",
"263 548 OFFCURVE",
"364 548 CURVE SMOOTH",
"464 548 OFFCURVE",
"516 526 OFFCURVE",
"516 463 CURVE SMOOTH"
);
}
);
width = 728;
}
);
unicode = 004F;
},
{
glyphname = Obreve;
layers = (
{
layerId = UUID0;
paths = (
{
closed = 1;
nodes = (
"613 474 LINE",
"613 597 OFFCURVE",
"521 659 OFFCURVE",
"338 659 CURVE SMOOTH",
"157 659 OFFCURVE",
"66 597 OFFCURVE",
"66 473 CURVE SMOOTH",
"66 166 LINE SMOOTH",
"66 49 OFFCURVE",
"157 -10 OFFCURVE",
"338 -10 CURVE SMOOTH",
"405 -10 OFFCURVE",
"459 -2 OFFCURVE",
"518 22 CURVE SMOOTH",
"577 45 OFFCURVE",
"613 95 OFFCURVE",
"613 166 CURVE SMOOTH"
);
},
{
closed = 1;
nodes = (
"519 167 LINE",
"519 92 OFFCURVE",
"459 55 OFFCURVE",
"340 55 CURVE SMOOTH",
"219 55 OFFCURVE",
"159 92 OFFCURVE",
"159 167 CURVE SMOOTH",
"159 476 LINE SMOOTH",
"159 525 OFFCURVE",
"180 558 OFFCURVE",
"216 575 CURVE SMOOTH",
"252 591 OFFCURVE",
"288 596 OFFCURVE",
"339 596 CURVE SMOOTH",
"459 596 OFFCURVE",
"519 556 OFFCURVE",
"519 476 CURVE SMOOTH"
);
},
{
closed = 1;
nodes = (
"445 776 OFFCURVE",
"456 806 OFFCURVE",
"457 845 CURVE",
"403 845 LINE",
"399 800 OFFCURVE",
"378 777 OFFCURVE",
"339 777 CURVE SMOOTH",
"300 777 OFFCURVE",
"279 800 OFFCURVE",
"275 845 CURVE",
"221 845 LINE",
"224 768 OFFCURVE",
"267 718 OFFCURVE",
"339 718 CURVE SMOOTH",
"375 718 OFFCURVE",
"403 730 OFFCURVE",
"424 753 CURVE SMOOTH"
);
}
);
width = 679;
},
{
layerId = "206DC524-6BEE-4011-B4E8-F862EC5B14D0";
paths = (
{
closed = 1;
nodes = (
"672 462 LINE",
"672 496 OFFCURVE",
"665 526 OFFCURVE",
"650 551 CURVE SMOOTH",
"621 601 OFFCURVE",
"579 624 OFFCURVE",
"519 641 CURVE SMOOTH",
"459 657 OFFCURVE",
"416 659 OFFCURVE",
"363 659 CURVE SMOOTH",
"337 659 OFFCURVE",
"312 658 OFFCURVE",
"289 656 CURVE SMOOTH",
"242 652 OFFCURVE",
"175 635 OFFCURVE",
"133 608 CURVE SMOOTH",
"91 581 OFFCURVE",
"56 529 OFFCURVE",
"56 462 CURVE SMOOTH",
"56 178 LINE SMOOTH",
"56 99 OFFCURVE",
"100 45 OFFCURVE",
"169 21 CURVE SMOOTH",
"237 -3 OFFCURVE",
"294 -10 OFFCURVE",
"363 -10 CURVE SMOOTH",
"436 -10 OFFCURVE",
"500 0 OFFCURVE",
"565 26 CURVE SMOOTH",
"630 52 OFFCURVE",
"672 105 OFFCURVE",
"672 178 CURVE SMOOTH"
);
},
{
closed = 1;
nodes = (
"516 178 LINE",
"516 145 OFFCURVE",
"499 122 OFFCURVE",
"467 113 CURVE SMOOTH",
"435 104 OFFCURVE",
"409 101 OFFCURVE",
"365 101 CURVE SMOOTH",
"321 101 OFFCURVE",
"295 104 OFFCURVE",
"263 113 CURVE SMOOTH",
"230 122 OFFCURVE",
"212 145 OFFCURVE",
"212 178 CURVE SMOOTH",
"212 463 LINE SMOOTH",
"212 527 OFFCURVE",
"263 548 OFFCURVE",
"364 548 CURVE SMOOTH",
"464 548 OFFCURVE",
"516 526 OFFCURVE",
"516 463 CURVE SMOOTH"
);
},
{
closed = 1;
nodes = (
"420 845 LINE",
"416 808 OFFCURVE",
"397 790 OFFCURVE",
"364 790 CURVE SMOOTH",
"328 790 OFFCURVE",
"315 806 OFFCURVE",
"307 845 CURVE",
"226 845 LINE",
"230 769 OFFCURVE",
"281 718 OFFCURVE",
"364 718 CURVE SMOOTH",
"445 718 OFFCURVE",
"497 769 OFFCURVE",
"502 845 CURVE"
);
}
);
width = 728;
}
);
unicode = 014E;
},
{
glyphname = Odieresis;
layers = (
{
layerId = UUID0;
paths = (
{
closed = 1;
nodes = (
"613 474 LINE",
"613 597 OFFCURVE",
"521 659 OFFCURVE",
"338 659 CURVE SMOOTH",
"157 659 OFFCURVE",
"66 597 OFFCURVE",
"66 473 CURVE SMOOTH",
"66 166 LINE SMOOTH",
"66 49 OFFCURVE",
"157 -10 OFFCURVE",
"338 -10 CURVE SMOOTH",
"405 -10 OFFCURVE",
"459 -2 OFFCURVE",
"518 22 CURVE SMOOTH",
"577 45 OFFCURVE",
"613 95 OFFCURVE",
"613 166 CURVE SMOOTH"
);
},
{
closed = 1;
nodes = (
"519 167 LINE",
"519 92 OFFCURVE",
"459 55 OFFCURVE",
"340 55 CURVE SMOOTH",
"219 55 OFFCURVE",
"159 92 OFFCURVE",
"159 167 CURVE SMOOTH",
"159 476 LINE SMOOTH",
"159 525 OFFCURVE",
"180 558 OFFCURVE",
"216 575 CURVE SMOOTH",
"252 591 OFFCURVE",
"288 596 OFFCURVE",
"339 596 CURVE SMOOTH",
"459 596 OFFCURVE",
"519 556 OFFCURVE",
"519 476 CURVE SMOOTH"
);
},
{
closed = 1;
nodes = (
"290 809 LINE",
"200 809 LINE",
"200 715 LINE",
"290 715 LINE"
);
},
{
closed = 1;
nodes = (
"460 809 LINE",
"370 809 LINE",
"370 715 LINE",
"460 715 LINE"
);
}
);
width = 679;
},
{
layerId = "206DC524-6BEE-4011-B4E8-F862EC5B14D0";
paths = (
{
closed = 1;
nodes = (
"672 462 LINE",
"672 496 OFFCURVE",
"665 526 OFFCURVE",
"650 551 CURVE SMOOTH",
"621 601 OFFCURVE",
"579 624 OFFCURVE",
"519 641 CURVE SMOOTH",
"459 657 OFFCURVE",
"416 659 OFFCURVE",
"363 659 CURVE SMOOTH",
"337 659 OFFCURVE",
"312 658 OFFCURVE",
"289 656 CURVE SMOOTH",
"242 652 OFFCURVE",
"175 635 OFFCURVE",
"133 608 CURVE SMOOTH",
"91 581 OFFCURVE",
"56 529 OFFCURVE",
"56 462 CURVE SMOOTH",
"56 178 LINE SMOOTH",
"56 99 OFFCURVE",
"100 45 OFFCURVE",
"169 21 CURVE SMOOTH",
"237 -3 OFFCURVE",
"294 -10 OFFCURVE",
"363 -10 CURVE SMOOTH",
"436 -10 OFFCURVE",
"500 0 OFFCURVE",
"565 26 CURVE SMOOTH",
"630 52 OFFCURVE",
"672 105 OFFCURVE",
"672 178 CURVE SMOOTH"
);
},
{
closed = 1;
nodes = (
"516 178 LINE",
"516 145 OFFCURVE",
"499 122 OFFCURVE",
"467 113 CURVE SMOOTH",
"435 104 OFFCURVE",
"409 101 OFFCURVE",
"365 101 CURVE SMOOTH",
"321 101 OFFCURVE",
"295 104 OFFCURVE",
"263 113 CURVE SMOOTH",
"230 122 OFFCURVE",
"212 145 OFFCURVE",
"212 178 CURVE SMOOTH",
"212 463 LINE SMOOTH",
"212 527 OFFCURVE",
"263 548 OFFCURVE",
"364 548 CURVE SMOOTH",
"464 548 OFFCURVE",
"516 526 OFFCURVE",
"516 463 CURVE SMOOTH"
);
},
{
closed = 1;
nodes = (
"522 848 LINE",
"396 848 LINE",
"396 730 LINE",
"522 730 LINE"
);
},
{
closed = 1;
nodes = (
"332 848 LINE",
"206 848 LINE",
"206 730 LINE",
"332 730 LINE"
);
}
);
width = 728;
}
);
unicode = 00D6;
},
{
glyphname = Ohungarumlaut;
layers = (
{
layerId = UUID0;
paths = (
{
closed = 1;
nodes = (
"613 474 LINE",
"613 597 OFFCURVE",
"521 659 OFFCURVE",
"338 659 CURVE SMOOTH",
"157 659 OFFCURVE",
"66 597 OFFCURVE",
"66 473 CURVE SMOOTH",
"66 166 LINE SMOOTH",
"66 49 OFFCURVE",
"157 -10 OFFCURVE",
"338 -10 CURVE SMOOTH",
"405 -10 OFFCURVE",
"459 -2 OFFCURVE",
"518 22 CURVE SMOOTH",
"577 45 OFFCURVE",
"613 95 OFFCURVE",
"613 166 CURVE SMOOTH"
);
},
{
closed = 1;
nodes = (
"519 167 LINE",
"519 92 OFFCURVE",
"459 55 OFFCURVE",
"340 55 CURVE SMOOTH",
"219 55 OFFCURVE",
"159 92 OFFCURVE",
"159 167 CURVE SMOOTH",
"159 476 LINE SMOOTH",
"159 525 OFFCURVE",
"180 558 OFFCURVE",
"216 575 CURVE SMOOTH",
"252 591 OFFCURVE",
"288 596 OFFCURVE",
"339 596 CURVE SMOOTH",
"459 596 OFFCURVE",
"519 556 OFFCURVE",
"519 476 CURVE SMOOTH"
);
},
{
closed = 1;
nodes = (
"354 831 LINE",
"278 831 LINE",
"208 703 LINE",
"284 703 LINE"
);
},
{
closed = 1;
nodes = (
"481 831 LINE",
"405 831 LINE",
"335 703 LINE",
"411 703 LINE"
);
}
);
width = 679;
},
{
layerId = "206DC524-6BEE-4011-B4E8-F862EC5B14D0";
paths = (
{
closed = 1;
nodes = (
"672 462 LINE",
"672 496 OFFCURVE",
"665 526 OFFCURVE",
"650 551 CURVE SMOOTH",
"621 601 OFFCURVE",
"579 624 OFFCURVE",
"519 641 CURVE SMOOTH",
"459 657 OFFCURVE",
"416 659 OFFCURVE",
"363 659 CURVE SMOOTH",
"337 659 OFFCURVE",
"312 658 OFFCURVE",
"289 656 CURVE SMOOTH",
"242 652 OFFCURVE",
"175 635 OFFCURVE",
"133 608 CURVE SMOOTH",
"91 581 OFFCURVE",
"56 529 OFFCURVE",
"56 462 CURVE SMOOTH",
"56 178 LINE SMOOTH",
"56 99 OFFCURVE",
"100 45 OFFCURVE",
"169 21 CURVE SMOOTH",
"237 -3 OFFCURVE",
"294 -10 OFFCURVE",
"363 -10 CURVE SMOOTH",
"436 -10 OFFCURVE",
"500 0 OFFCURVE",
"565 26 CURVE SMOOTH",
"630 52 OFFCURVE",
"672 105 OFFCURVE",
"672 178 CURVE SMOOTH"
);
},
{
closed = 1;
nodes = (
"516 178 LINE",
"516 145 OFFCURVE",
"499 122 OFFCURVE",
"467 113 CURVE SMOOTH",
"435 104 OFFCURVE",
"409 101 OFFCURVE",
"365 101 CURVE SMOOTH",
"321 101 OFFCURVE",
"295 104 OFFCURVE",
"263 113 CURVE SMOOTH",
"230 122 OFFCURVE",
"212 145 OFFCURVE",
"212 178 CURVE SMOOTH",
"212 463 LINE SMOOTH",
"212 527 OFFCURVE",
"263 548 OFFCURVE",
"364 548 CURVE SMOOTH",
"464 548 OFFCURVE",
"516 526 OFFCURVE",
"516 463 CURVE SMOOTH"
);
},
{
closed = 1;
nodes = (
"424 845 LINE",
"354 717 LINE",
"450 717 LINE",
"520 845 LINE"
);
},
{
closed = 1;
nodes = (
"277 845 LINE",
"207 717 LINE",
"303 717 LINE",
"373 845 LINE"
);
}
);
width = 728;
}
);
unicode = 0150;
},
{
glyphname = Omacron;
layers = (
{
layerId = UUID0;
paths = (
{
closed = 1;
nodes = (
"613 474 LINE",
"613 597 OFFCURVE",
"521 659 OFFCURVE",
"338 659 CURVE SMOOTH",
"157 659 OFFCURVE",
"66 597 OFFCURVE",
"66 473 CURVE SMOOTH",
"66 166 LINE SMOOTH",
"66 49 OFFCURVE",
"157 -10 OFFCURVE",
"338 -10 CURVE SMOOTH",
"405 -10 OFFCURVE",
"459 -2 OFFCURVE",
"518 22 CURVE SMOOTH",
"577 45 OFFCURVE",
"613 95 OFFCURVE",
"613 166 CURVE SMOOTH"
);
},
{
closed = 1;
nodes = (
"519 167 LINE",
"519 92 OFFCURVE",
"459 55 OFFCURVE",
"340 55 CURVE SMOOTH",
"219 55 OFFCURVE",
"159 92 OFFCURVE",
"159 167 CURVE SMOOTH",
"159 476 LINE SMOOTH",
"159 525 OFFCURVE",
"180 558 OFFCURVE",
"216 575 CURVE SMOOTH",
"252 591 OFFCURVE",
"288 596 OFFCURVE",
"339 596 CURVE SMOOTH",
"459 596 OFFCURVE",
"519 556 OFFCURVE",
"519 476 CURVE SMOOTH"
);
},
{
closed = 1;
nodes = (
"441 798 LINE",
"223 798 LINE",
"223 739 LINE",
"441 739 LINE"
);
}
);
width = 679;
},
{
layerId = "206DC524-6BEE-4011-B4E8-F862EC5B14D0";
paths = (
{
closed = 1;
nodes = (
"672 462 LINE",
"672 496 OFFCURVE",
"665 526 OFFCURVE",
"650 551 CURVE SMOOTH",
"621 601 OFFCURVE",
"579 624 OFFCURVE",
"519 641 CURVE SMOOTH",
"459 657 OFFCURVE",
"416 659 OFFCURVE",
"363 659 CURVE SMOOTH",
"337 659 OFFCURVE",
"312 658 OFFCURVE",
"289 656 CURVE SMOOTH",
"242 652 OFFCURVE",
"175 635 OFFCURVE",
"133 608 CURVE SMOOTH",
"91 581 OFFCURVE",
"56 529 OFFCURVE",
"56 462 CURVE SMOOTH",
"56 178 LINE SMOOTH",
"56 99 OFFCURVE",
"100 45 OFFCURVE",
"169 21 CURVE SMOOTH",
"237 -3 OFFCURVE",
"294 -10 OFFCURVE",
"363 -10 CURVE SMOOTH",
"436 -10 OFFCURVE",
"500 0 OFFCURVE",
"565 26 CURVE SMOOTH",
"630 52 OFFCURVE",
"672 105 OFFCURVE",
"672 178 CURVE SMOOTH"
);
},
{
closed = 1;
nodes = (
"516 178 LINE",
"516 145 OFFCURVE",
"499 122 OFFCURVE",
"467 113 CURVE SMOOTH",
"435 104 OFFCURVE",
"409 101 OFFCURVE",
"365 101 CURVE SMOOTH",
"321 101 OFFCURVE",
"295 104 OFFCURVE",
"263 113 CURVE SMOOTH",
"230 122 OFFCURVE",
"212 145 OFFCURVE",
"212 178 CURVE SMOOTH",
"212 463 LINE SMOOTH",
"212 527 OFFCURVE",
"263 548 OFFCURVE",
"364 548 CURVE SMOOTH",
"464 548 OFFCURVE",
"516 526 OFFCURVE",
"516 463 CURVE SMOOTH"
);
},
{
closed = 1;
nodes = (
"503 814 LINE",
"225 814 LINE",
"225 725 LINE",
"503 725 LINE"
);
}
);
width = 728;
}
);
unicode = 014C;
},
{
glyphname = Oslash;
layers = (
{
layerId = UUID0;
paths = (
{
closed = 1;
nodes = (
"613 474 LINE",
"613 597 OFFCURVE",
"521 659 OFFCURVE",
"338 659 CURVE SMOOTH",
"157 659 OFFCURVE",
"66 597 OFFCURVE",
"66 473 CURVE SMOOTH",
"66 166 LINE SMOOTH",
"66 49 OFFCURVE",
"157 -10 OFFCURVE",
"338 -10 CURVE SMOOTH",
"405 -10 OFFCURVE",
"459 -2 OFFCURVE",
"518 22 CURVE SMOOTH",
"577 45 OFFCURVE",
"613 95 OFFCURVE",
"613 166 CURVE SMOOTH"
);
},
{
closed = 1;
nodes = (
"159 476 LINE",
"159 525 OFFCURVE",
"180 558 OFFCURVE",
"216 575 CURVE SMOOTH",
"252 591 OFFCURVE",
"288 596 OFFCURVE",
"339 596 CURVE SMOOTH",
"400 596 OFFCURVE",
"446 586 OFFCURVE",
"475 566 CURVE",
"161 140 LINE",
"160 145 OFFCURVE",
"159 154 OFFCURVE",
"159 167 CURVE SMOOTH"
);
},
{
closed = 1;
nodes = (
"519 167 LINE",
"519 92 OFFCURVE",
"459 55 OFFCURVE",
"340 55 CURVE SMOOTH",
"277 55 OFFCURVE",
"232 64 OFFCURVE",
"203 83 CURVE",
"516 507 LINE",
"518 497 OFFCURVE",
"519 487 OFFCURVE",
"519 476 CURVE SMOOTH"
);
}
);
width = 679;
},
{
layerId = "206DC524-6BEE-4011-B4E8-F862EC5B14D0";
paths = (
{
closed = 1;
nodes = (
"672 462 LINE",
"672 496 OFFCURVE",
"665 526 OFFCURVE",
"650 551 CURVE SMOOTH",
"621 601 OFFCURVE",
"579 624 OFFCURVE",
"519 641 CURVE SMOOTH",
"459 657 OFFCURVE",
"416 659 OFFCURVE",
"363 659 CURVE SMOOTH",
"337 659 OFFCURVE",
"312 658 OFFCURVE",
"289 656 CURVE SMOOTH",
"242 652 OFFCURVE",
"175 635 OFFCURVE",
"133 608 CURVE SMOOTH",
"91 581 OFFCURVE",
"56 529 OFFCURVE",
"56 462 CURVE SMOOTH",
"56 178 LINE SMOOTH",
"56 99 OFFCURVE",
"100 45 OFFCURVE",
"169 21 CURVE SMOOTH",
"237 -3 OFFCURVE",
"294 -10 OFFCURVE",
"363 -10 CURVE SMOOTH",
"436 -10 OFFCURVE",
"500 0 OFFCURVE",
"565 26 CURVE SMOOTH",
"630 52 OFFCURVE",
"672 105 OFFCURVE",
"672 178 CURVE SMOOTH"
);
},
{
closed = 1;
nodes = (
"516 178 LINE",
"516 145 OFFCURVE",
"499 122 OFFCURVE",
"467 113 CURVE SMOOTH",
"435 104 OFFCURVE",
"409 101 OFFCURVE",
"365 101 CURVE SMOOTH",
"316 101 OFFCURVE",
"279 106 OFFCURVE",
"256 115 CURVE",
"516 463 LINE"
);
},
{
closed = 1;
nodes = (
"212 463 LINE",
"212 527 OFFCURVE",
"263 548 OFFCURVE",
"364 548 CURVE SMOOTH",
"410 548 OFFCURVE",
"445 543 OFFCURVE",
"468 533 CURVE",
"212 189 LINE"
);
}
);
width = 728;
}
);
unicode = 00D8;
},
{
glyphname = OE;
layers = (
{
layerId = UUID0;
paths = (
{
closed = 1;
nodes = (
"362 66 LINE",
"239 66 OFFCURVE",
"177 103 OFFCURVE",
"177 178 CURVE SMOOTH",
"177 464 LINE SMOOTH",
"177 513 OFFCURVE",
"198 546 OFFCURVE",
"235 562 CURVE SMOOTH",
"271 577 OFFCURVE",
"307 582 OFFCURVE",
"358 582 CURVE SMOOTH",
"488 582 LINE",
"488 66 LINE"
);
},
{
closed = 1;
nodes = (
"934 68 LINE",
"585 68 LINE",
"585 301 LINE",
"891 301 LINE",
"891 369 LINE",
"585 369 LINE",
"585 581 LINE",
"924 581 LINE",
"924 649 LINE",
"356 649 LINE SMOOTH",
"175 649 OFFCURVE",
"84 587 OFFCURVE",
"84 463 CURVE SMOOTH",
"84 176 LINE SMOOTH",
"84 59 OFFCURVE",
"175 0 OFFCURVE",
"356 0 CURVE SMOOTH",
"934 0 LINE"
);
}
);
width = 984;
},
{
layerId = "206DC524-6BEE-4011-B4E8-F862EC5B14D0";
paths = (
{
closed = 1;
nodes = (
"941 111 LINE",
"609 111 LINE",
"609 278 LINE",
"898 278 LINE",
"898 389 LINE",
"609 389 LINE",
"609 538 LINE",
"931 538 LINE",
"931 649 LINE",
"346 649 LINE SMOOTH",
"153 649 OFFCURVE",
"56 583 OFFCURVE",
"56 452 CURVE SMOOTH",
"56 188 LINE SMOOTH",
"56 63 OFFCURVE",
"146 0 OFFCURVE",
"326 0 CURVE SMOOTH",
"941 0 LINE"
);
},
{
closed = 1;
nodes = (
"358 111 LINE",
"318 111 OFFCURVE",
"301 112 OFFCURVE",
"263 121 CURVE SMOOTH",
"225 129 OFFCURVE",
"205 152 OFFCURVE",
"205 188 CURVE SMOOTH",
"205 453 LINE SMOOTH",
"205 492 OFFCURVE",
"224 517 OFFCURVE",
"260 527 CURVE SMOOTH",
"295 537 OFFCURVE",
"317 538 OFFCURVE",
"357 538 CURVE SMOOTH",
"456 538 LINE",
"456 111 LINE"
);
}
);
width = 976;
}
);
unicode = 0152;
},
{
glyphname = P;
layers = (
{
layerId = UUID0;
paths = (
{
closed = 1;
nodes = (
"525 521 LINE",
"525 544 OFFCURVE",
"521 563 OFFCURVE",
"512 579 CURVE SMOOTH",
"494 611 OFFCURVE",
"470 628 OFFCURVE",
"427 638 CURVE SMOOTH",
"383 648 OFFCURVE",
"349 649 OFFCURVE",
"296 649 CURVE SMOOTH",
"84 649 LINE",
"84 0 LINE",
"181 0 LINE",
"181 234 LINE",
"278 234 LINE SMOOTH",
"435 234 OFFCURVE",
"525 275 OFFCURVE",
"525 386 CURVE SMOOTH"
);
},
{
closed = 1;
nodes = (
"430 391 LINE",
"430 320 OFFCURVE",
"368 295 OFFCURVE",
"291 295 CURVE SMOOTH",
"180 295 LINE",
"180 588 LINE",
"289 588 LINE SMOOTH",
"324 588 OFFCURVE",
"341 587 OFFCURVE",
"376 578 CURVE SMOOTH",
"411 569 OFFCURVE",
"430 545 OFFCURVE",
"430 509 CURVE SMOOTH"
);
}
);
width = 570;
},
{
layerId = "206DC524-6BEE-4011-B4E8-F862EC5B14D0";
paths = (
{
closed = 1;
nodes = (
"587 500 LINE",
"587 617 OFFCURVE",
"514 649 OFFCURVE",
"330 649 CURVE SMOOTH",
"70 649 LINE",
"70 0 LINE",
"226 0 LINE",
"226 211 LINE",
"312 211 LINE SMOOTH",
"508 211 OFFCURVE",
"587 249 OFFCURVE",
"587 377 CURVE SMOOTH"
);
},
{
closed = 1;
nodes = (
"436 382 LINE",
"436 335 OFFCURVE",
"406 318 OFFCURVE",
"325 318 CURVE SMOOTH",
"226 318 LINE",
"226 538 LINE",
"323 538 LINE SMOOTH",
"366 538 OFFCURVE",
"396 535 OFFCURVE",
"412 528 CURVE SMOOTH",
"428 521 OFFCURVE",
"436 507 OFFCURVE",
"436 486 CURVE SMOOTH"
);
}
);
width = 627;
}
);
unicode = 0050;
},
{
glyphname = Thorn;
layers = (
{
layerId = UUID0;
paths = (
{
closed = 1;
nodes = (
"289 473 LINE",
"324 473 OFFCURVE",
"341 472 OFFCURVE",
"376 463 CURVE SMOOTH",
"411 454 OFFCURVE",
"430 430 OFFCURVE",
"430 394 CURVE SMOOTH",
"430 276 LINE SMOOTH",
"430 205 OFFCURVE",
"368 180 OFFCURVE",
"291 180 CURVE SMOOTH",
"181 180 LINE",
"181 473 LINE"
);
},
{
closed = 1;
nodes = (
"181 119 LINE",
"278 119 LINE SMOOTH",
"435 119 OFFCURVE",
"525 160 OFFCURVE",
"525 271 CURVE SMOOTH",
"525 406 LINE SMOOTH",
"525 429 OFFCURVE",
"521 448 OFFCURVE",
"512 464 CURVE SMOOTH",
"494 496 OFFCURVE",
"470 513 OFFCURVE",
"427 523 CURVE SMOOTH",
"383 533 OFFCURVE",
"349 534 OFFCURVE",
"296 534 CURVE SMOOTH",
"181 534 LINE",
"181 649 LINE",
"84 649 LINE",
"84 0 LINE",
"181 0 LINE"
);
}
);
width = 570;
},
{
layerId = "206DC524-6BEE-4011-B4E8-F862EC5B14D0";
paths = (
{
closed = 1;
nodes = (
"587 395 LINE",
"587 455 OFFCURVE",
"559 494 OFFCURVE",
"508 514 CURVE",
"456 533 OFFCURVE",
"405 539 OFFCURVE",
"330 539 CURVE SMOOTH",
"226 539 LINE",
"226 649 LINE",
"70 649 LINE",
"70 0 LINE",
"226 0 LINE",
"226 105 LINE",
"312 105 LINE SMOOTH",
"495 105 OFFCURVE",
"587 160 OFFCURVE",
"587 271 CURVE SMOOTH"
);
},
{
closed = 1;
nodes = (
"436 271 LINE",
"436 229 OFFCURVE",
"399 208 OFFCURVE",
"325 208 CURVE SMOOTH",
"226 208 LINE",
"226 437 LINE",
"323 437 LINE SMOOTH",
"368 437 OFFCURVE",
"398 434 OFFCURVE",
"413 429 CURVE SMOOTH",
"428 423 OFFCURVE",
"436 410 OFFCURVE",
"436 390 CURVE SMOOTH"
);
}
);
width = 627;
}
);
unicode = 00DE;
},
{
glyphname = Q;
layers = (
{
layerId = UUID0;
paths = (
{
closed = 1;
nodes = (
"682 55 LINE",
"522 55 LINE",
"581 94 OFFCURVE",
"611 144 OFFCURVE",
"611 206 CURVE SMOOTH",
"611 474 LINE SMOOTH",
"611 597 OFFCURVE",
"520 659 OFFCURVE",
"337 659 CURVE SMOOTH",
"155 659 OFFCURVE",
"64 597 OFFCURVE",
"64 473 CURVE SMOOTH",
"64 176 LINE SMOOTH",
"64 59 OFFCURVE",
"155 0 OFFCURVE",
"337 0 CURVE SMOOTH",
"682 0 LINE"
);
},
{
closed = 1;
nodes = (
"518 177 LINE",
"518 102 OFFCURVE",
"458 65 OFFCURVE",
"339 65 CURVE SMOOTH",
"218 65 OFFCURVE",
"157 102 OFFCURVE",
"157 177 CURVE SMOOTH",
"157 476 LINE SMOOTH",
"157 525 OFFCURVE",
"178 558 OFFCURVE",
"214 575 CURVE SMOOTH",
"250 591 OFFCURVE",
"287 596 OFFCURVE",
"338 596 CURVE SMOOTH",
"458 596 OFFCURVE",
"518 556 OFFCURVE",
"518 476 CURVE SMOOTH"
);
}
);
width = 676;
},
{
layerId = "206DC524-6BEE-4011-B4E8-F862EC5B14D0";
paths = (
{
closed = 1;
nodes = (
"672 462 LINE",
"672 496 OFFCURVE",
"665 526 OFFCURVE",
"650 551 CURVE SMOOTH",
"621 601 OFFCURVE",
"579 624 OFFCURVE",
"519 641 CURVE SMOOTH",
"459 657 OFFCURVE",
"416 659 OFFCURVE",
"363 659 CURVE SMOOTH",
"337 659 OFFCURVE",
"312 658 OFFCURVE",
"289 656 CURVE SMOOTH",
"242 652 OFFCURVE",
"175 635 OFFCURVE",
"133 608 CURVE SMOOTH",
"91 581 OFFCURVE",
"56 529 OFFCURVE",
"56 462 CURVE SMOOTH",
"56 178 LINE SMOOTH",
"56 99 OFFCURVE",
"100 45 OFFCURVE",
"169 21 CURVE SMOOTH",
"237 -3 OFFCURVE",
"294 -10 OFFCURVE",
"363 -10 CURVE SMOOTH",
"388 -10 OFFCURVE",
"417 -8 OFFCURVE",
"451 -5 CURVE SMOOTH",
"485 -2 OFFCURVE",
"508 0 OFFCURVE",
"519 0 CURVE SMOOTH",
"732 0 LINE",
"732 112 LINE",
"590 112 LINE",
"645 129 OFFCURVE",
"672 187 OFFCURVE",
"672 285 CURVE SMOOTH"
);
},
{
closed = 1;
nodes = (
"516 178 LINE",
"516 145 OFFCURVE",
"499 122 OFFCURVE",
"467 113 CURVE SMOOTH",
"435 104 OFFCURVE",
"409 101 OFFCURVE",
"365 101 CURVE SMOOTH",
"321 101 OFFCURVE",
"295 104 OFFCURVE",
"263 113 CURVE SMOOTH",
"230 122 OFFCURVE",
"212 145 OFFCURVE",
"212 178 CURVE SMOOTH",
"212 463 LINE SMOOTH",
"212 527 OFFCURVE",
"263 548 OFFCURVE",
"364 548 CURVE SMOOTH",
"464 548 OFFCURVE",
"516 526 OFFCURVE",
"516 463 CURVE SMOOTH"
);
}
);
width = 740;
}
);
unicode = 0051;
},
{
glyphname = R;
layers = (
{
layerId = UUID0;
paths = (
{
closed = 1;
nodes = (
"372 289 LINE",
"465 289 OFFCURVE",
"540 330 OFFCURVE",
"540 410 CURVE SMOOTH",
"540 522 LINE SMOOTH",
"540 626 OFFCURVE",
"475 649 OFFCURVE",
"312 649 CURVE SMOOTH",
"84 649 LINE",
"84 0 LINE",
"181 0 LINE",
"181 277 LINE",
"275 277 LINE",
"461 0 LINE",
"580 0 LINE"
);
},
{
closed = 1;
nodes = (
"443 422 LINE",
"443 359 OFFCURVE",
"400 341 OFFCURVE",
"308 341 CURVE SMOOTH",
"181 341 LINE",
"181 585 LINE",
"317 585 LINE SMOOTH",
"401 585 OFFCURVE",
"443 561 OFFCURVE",
"443 512 CURVE SMOOTH"
);
}
);
width = 632;
},
{
layerId = "206DC524-6BEE-4011-B4E8-F862EC5B14D0";
paths = (
{
closed = 1;
nodes = (
"460 267 LINE",
"544 278 OFFCURVE",
"608 319 OFFCURVE",
"608 398 CURVE SMOOTH",
"608 512 LINE SMOOTH",
"608 612 OFFCURVE",
"533 649 OFFCURVE",
"362 649 CURVE SMOOTH",
"70 649 LINE",
"70 0 LINE",
"226 0 LINE",
"226 255 LINE",
"298 255 LINE",
"468 0 LINE",
"648 0 LINE"
);
},
{
closed = 1;
nodes = (
"455 429 LINE",
"455 373 OFFCURVE",
"433 358 OFFCURVE",
"360 358 CURVE SMOOTH",
"226 358 LINE",
"226 538 LINE",
"360 538 LINE SMOOTH",
"429 538 OFFCURVE",
"455 523 OFFCURVE",
"455 475 CURVE SMOOTH"
);
}
);
width = 668;
}
);
unicode = 0052;
},
{
glyphname = Racute;
layers = (
{
layerId = UUID0;
paths = (
{
closed = 1;
nodes = (
"372 289 LINE",
"465 289 OFFCURVE",
"540 330 OFFCURVE",
"540 410 CURVE SMOOTH",
"540 522 LINE SMOOTH",
"540 626 OFFCURVE",
"475 649 OFFCURVE",
"312 649 CURVE SMOOTH",
"84 649 LINE",
"84 0 LINE",
"181 0 LINE",
"181 277 LINE",
"275 277 LINE",
"461 0 LINE",
"580 0 LINE"
);
},
{
closed = 1;
nodes = (
"443 422 LINE",
"443 359 OFFCURVE",
"400 341 OFFCURVE",
"308 341 CURVE SMOOTH",
"181 341 LINE",
"181 585 LINE",
"317 585 LINE SMOOTH",
"401 585 OFFCURVE",
"443 561 OFFCURVE",
"443 512 CURVE SMOOTH"
);
},
{
closed = 1;
nodes = (
"306 830 LINE",
"216 703 LINE",
"290 703 LINE",
"415 830 LINE"
);
}
);
width = 612;
},
{
layerId = "206DC524-6BEE-4011-B4E8-F862EC5B14D0";
paths = (
{
closed = 1;
nodes = (
"510 267 LINE",
"594 278 OFFCURVE",
"658 319 OFFCURVE",
"658 398 CURVE SMOOTH",
"658 512 LINE SMOOTH",
"658 612 OFFCURVE",
"583 649 OFFCURVE",
"412 649 CURVE SMOOTH",
"120 649 LINE",
"120 0 LINE",
"276 0 LINE",
"276 255 LINE",
"348 255 LINE",
"518 0 LINE",
"698 0 LINE"
);
},
{
closed = 1;
nodes = (
"505 429 LINE",
"505 373 OFFCURVE",
"483 358 OFFCURVE",
"410 358 CURVE SMOOTH",
"276 358 LINE",
"276 538 LINE",
"410 538 LINE SMOOTH",
"479 538 OFFCURVE",
"505 523 OFFCURVE",
"505 475 CURVE SMOOTH"
);
},
{
closed = 1;
nodes = (
"299 845 LINE",
"209 718 LINE",
"333 718 LINE",
"458 845 LINE"
);
}
);
width = 668;
}
);
unicode = 0154;
},
{
glyphname = Rcaron;
layers = (
{
layerId = UUID0;
paths = (
{
closed = 1;
nodes = (
"372 289 LINE",
"465 289 OFFCURVE",
"540 330 OFFCURVE",
"540 410 CURVE SMOOTH",
"540 522 LINE SMOOTH",
"540 626 OFFCURVE",
"475 649 OFFCURVE",
"312 649 CURVE SMOOTH",
"84 649 LINE",
"84 0 LINE",
"181 0 LINE",
"181 277 LINE",
"275 277 LINE",
"461 0 LINE",
"580 0 LINE"
);
},
{
closed = 1;
nodes = (
"443 422 LINE",
"443 359 OFFCURVE",
"400 341 OFFCURVE",
"308 341 CURVE SMOOTH",
"181 341 LINE",
"181 585 LINE",
"317 585 LINE SMOOTH",
"401 585 OFFCURVE",
"443 561 OFFCURVE",
"443 512 CURVE SMOOTH"
);
},
{
closed = 1;
nodes = (
"347 703 LINE",
"413 830 LINE",
"355 830 LINE",
"293 743 LINE",
"230 830 LINE",
"172 830 LINE",
"240 703 LINE"
);
}
);
width = 612;
},
{
layerId = "206DC524-6BEE-4011-B4E8-F862EC5B14D0";
paths = (
{
closed = 1;
nodes = (
"510 267 LINE",
"594 278 OFFCURVE",
"658 319 OFFCURVE",
"658 398 CURVE SMOOTH",
"658 512 LINE SMOOTH",
"658 612 OFFCURVE",
"583 649 OFFCURVE",
"412 649 CURVE SMOOTH",
"120 649 LINE",
"120 0 LINE",
"276 0 LINE",
"276 255 LINE",
"348 255 LINE",
"518 0 LINE",
"698 0 LINE"
);
},
{
closed = 1;
nodes = (
"505 429 LINE",
"505 373 OFFCURVE",
"483 358 OFFCURVE",
"410 358 CURVE SMOOTH",
"276 358 LINE",
"276 538 LINE",
"410 538 LINE SMOOTH",
"479 538 OFFCURVE",
"505 523 OFFCURVE",
"505 475 CURVE SMOOTH"
);
},
{
closed = 1;
nodes = (
"386 845 LINE",
"334 758 LINE",
"281 845 LINE",
"183 845 LINE",
"241 718 LINE",
"428 718 LINE",
"484 845 LINE"
);
}
);
width = 668;
}
);
unicode = 0158;
},
{
glyphname = Rcommaaccent;
layers = (
{
layerId = UUID0;
paths = (
{
closed = 1;
nodes = (
"372 289 LINE",
"465 289 OFFCURVE",
"540 330 OFFCURVE",
"540 410 CURVE SMOOTH",
"540 522 LINE SMOOTH",
"540 626 OFFCURVE",
"475 649 OFFCURVE",
"312 649 CURVE SMOOTH",
"84 649 LINE",
"84 0 LINE",
"181 0 LINE",
"181 277 LINE",
"275 277 LINE",
"461 0 LINE",
"580 0 LINE"
);
},
{
closed = 1;
nodes = (
"443 422 LINE",
"443 359 OFFCURVE",
"400 341 OFFCURVE",
"308 341 CURVE SMOOTH",
"181 341 LINE",
"181 585 LINE",
"317 585 LINE SMOOTH",
"401 585 OFFCURVE",
"443 561 OFFCURVE",
"443 512 CURVE SMOOTH"
);
},
{
closed = 1;
nodes = (
"288 -40 LINE",
"242 -190 LINE",
"306 -190 LINE",
"389 -40 LINE"
);
}
);
width = 612;
},
{
layerId = "206DC524-6BEE-4011-B4E8-F862EC5B14D0";
paths = (
{
closed = 1;
nodes = (
"510 267 LINE",
"594 278 OFFCURVE",
"658 319 OFFCURVE",
"658 398 CURVE SMOOTH",
"658 512 LINE SMOOTH",
"658 612 OFFCURVE",
"583 649 OFFCURVE",
"412 649 CURVE SMOOTH",
"120 649 LINE",
"120 0 LINE",
"276 0 LINE",
"276 255 LINE",
"348 255 LINE",
"518 0 LINE",
"698 0 LINE"
);
},
{
closed = 1;
nodes = (
"505 429 LINE",
"505 373 OFFCURVE",
"483 358 OFFCURVE",
"410 358 CURVE SMOOTH",
"276 358 LINE",
"276 538 LINE",
"410 538 LINE SMOOTH",
"479 538 OFFCURVE",
"505 523 OFFCURVE",
"505 475 CURVE SMOOTH"
);
},
{
closed = 1;
nodes = (
"290 -46 LINE",
"244 -208 LINE",
"340 -208 LINE",
"423 -46 LINE"
);
}
);
width = 668;
}
);
unicode = 0156;
},
{
glyphname = S;
layers = (
{
layerId = UUID0;
paths = (
{
closed = 1;
nodes = (
"514 220 LINE",
"514 325 OFFCURVE",
"476 372 OFFCURVE",
"341 372 CURVE SMOOTH",
"263 372 LINE SMOOTH",
"182 372 OFFCURVE",
"154 392 OFFCURVE",
"154 437 CURVE SMOOTH",
"154 511 LINE SMOOTH",
"154 540 OFFCURVE",
"164 561 OFFCURVE",
"185 574 CURVE SMOOTH",
"205 586 OFFCURVE",
"246 592 OFFCURVE",
"308 592 CURVE SMOOTH",
"350 592 OFFCURVE",
"408 586 OFFCURVE",
"482 575 CURVE",
"482 648 LINE",
"417 655 OFFCURVE",
"362 659 OFFCURVE",
"315 659 CURVE SMOOTH",
"120 659 OFFCURVE",
"60 611 OFFCURVE",
"60 508 CURVE SMOOTH",
"60 456 LINE SMOOTH",
"60 353 OFFCURVE",
"104 300 OFFCURVE",
"235 300 CURVE SMOOTH",
"311 300 LINE SMOOTH",
"392 300 OFFCURVE",
"419 279 OFFCURVE",
"419 224 CURVE SMOOTH",
"419 140 LINE SMOOTH",
"419 77 OFFCURVE",
"369 62 OFFCURVE",
"277 62 CURVE SMOOTH",
"220 62 OFFCURVE",
"152 70 OFFCURVE",
"73 87 CURVE",
"73 6 LINE",
"152 -5 OFFCURVE",
"218 -10 OFFCURVE",
"271 -10 CURVE SMOOTH",
"438 -10 OFFCURVE",
"514 34 OFFCURVE",
"514 173 CURVE SMOOTH"
);
}
);
width = 569;
},
{
layerId = "206DC524-6BEE-4011-B4E8-F862EC5B14D0";
paths = (
{
closed = 1;
nodes = (
"568 228 LINE",
"568 337 OFFCURVE",
"509 394 OFFCURVE",
"357 394 CURVE SMOOTH",
"279 394 LINE SMOOTH",
"222 394 OFFCURVE",
"193 411 OFFCURVE",
"193 445 CURVE SMOOTH",
"193 491 LINE SMOOTH",
"193 512 OFFCURVE",
"203 526 OFFCURVE",
"222 535 CURVE SMOOTH",
"241 544 OFFCURVE",
"277 548 OFFCURVE",
"328 548 CURVE SMOOTH",
"365 548 OFFCURVE",
"435 542 OFFCURVE",
"536 530 CURVE",
"536 646 LINE",
"451 655 OFFCURVE",
"383 659 OFFCURVE",
"333 659 CURVE SMOOTH",
"126 659 OFFCURVE",
"37 606 OFFCURVE",
"37 494 CURVE SMOOTH",
"37 446 LINE SMOOTH",
"37 333 OFFCURVE",
"108 276 OFFCURVE",
"251 276 CURVE SMOOTH",
"327 276 LINE SMOOTH",
"395 276 OFFCURVE",
"412 249 OFFCURVE",
"412 210 CURVE SMOOTH",
"412 168 LINE SMOOTH",
"412 123 OFFCURVE",
"369 101 OFFCURVE",
"282 101 CURVE SMOOTH",
"238 101 OFFCURVE",
"161 110 OFFCURVE",
"50 127 CURVE",
"50 8 LINE",
"141 -4 OFFCURVE",
"218 -10 OFFCURVE",
"280 -10 CURVE SMOOTH",
"369 -10 OFFCURVE",
"430 0 OFFCURVE",
"485 28 CURVE SMOOTH",
"540 55 OFFCURVE",
"568 108 OFFCURVE",
"568 185 CURVE SMOOTH"
);
}
);
width = 606;
}
);
unicode = 0053;
},
{
glyphname = Sacute;
layers = (
{
layerId = UUID0;
paths = (
{
closed = 1;
nodes = (
"514 220 LINE",
"514 325 OFFCURVE",
"476 372 OFFCURVE",
"341 372 CURVE SMOOTH",
"263 372 LINE SMOOTH",
"182 372 OFFCURVE",
"154 392 OFFCURVE",
"154 437 CURVE SMOOTH",
"154 511 LINE SMOOTH",
"154 540 OFFCURVE",
"164 561 OFFCURVE",
"185 574 CURVE SMOOTH",
"205 586 OFFCURVE",
"246 592 OFFCURVE",
"308 592 CURVE SMOOTH",
"350 592 OFFCURVE",
"408 586 OFFCURVE",
"482 575 CURVE",
"482 648 LINE",
"417 655 OFFCURVE",
"362 659 OFFCURVE",
"315 659 CURVE SMOOTH",
"120 659 OFFCURVE",
"60 611 OFFCURVE",
"60 508 CURVE SMOOTH",
"60 456 LINE SMOOTH",
"60 353 OFFCURVE",
"104 300 OFFCURVE",
"235 300 CURVE SMOOTH",
"311 300 LINE SMOOTH",
"392 300 OFFCURVE",
"419 279 OFFCURVE",
"419 224 CURVE SMOOTH",
"419 140 LINE SMOOTH",
"419 77 OFFCURVE",
"369 62 OFFCURVE",
"277 62 CURVE SMOOTH",
"220 62 OFFCURVE",
"152 70 OFFCURVE",
"73 87 CURVE",
"73 6 LINE",
"152 -5 OFFCURVE",
"218 -10 OFFCURVE",
"271 -10 CURVE SMOOTH",
"438 -10 OFFCURVE",
"514 34 OFFCURVE",
"514 173 CURVE SMOOTH"
);
},
{
closed = 1;
nodes = (
"322 830 LINE",
"232 703 LINE",
"306 703 LINE",
"431 830 LINE"
);
}
);
width = 569;
},
{
layerId = "206DC524-6BEE-4011-B4E8-F862EC5B14D0";
paths = (
{
closed = 1;
nodes = (
"568 228 LINE",
"568 337 OFFCURVE",
"509 394 OFFCURVE",
"357 394 CURVE SMOOTH",
"279 394 LINE SMOOTH",
"222 394 OFFCURVE",
"193 411 OFFCURVE",
"193 445 CURVE SMOOTH",
"193 491 LINE SMOOTH",
"193 512 OFFCURVE",
"203 526 OFFCURVE",
"222 535 CURVE SMOOTH",
"241 544 OFFCURVE",
"277 548 OFFCURVE",
"328 548 CURVE SMOOTH",
"365 548 OFFCURVE",
"435 542 OFFCURVE",
"536 530 CURVE",
"536 646 LINE",
"451 655 OFFCURVE",
"383 659 OFFCURVE",
"333 659 CURVE SMOOTH",
"126 659 OFFCURVE",
"37 606 OFFCURVE",
"37 494 CURVE SMOOTH",
"37 446 LINE SMOOTH",
"37 333 OFFCURVE",
"108 276 OFFCURVE",
"251 276 CURVE SMOOTH",
"327 276 LINE SMOOTH",
"395 276 OFFCURVE",
"412 249 OFFCURVE",
"412 210 CURVE SMOOTH",
"412 168 LINE SMOOTH",
"412 123 OFFCURVE",
"369 101 OFFCURVE",
"282 101 CURVE SMOOTH",
"238 101 OFFCURVE",
"161 110 OFFCURVE",
"50 127 CURVE",
"50 8 LINE",
"141 -4 OFFCURVE",
"218 -10 OFFCURVE",
"280 -10 CURVE SMOOTH",
"369 -10 OFFCURVE",
"430 0 OFFCURVE",
"485 28 CURVE SMOOTH",
"540 55 OFFCURVE",
"568 108 OFFCURVE",
"568 185 CURVE SMOOTH"
);
},
{
closed = 1;
nodes = (
"268 845 LINE",
"178 718 LINE",
"302 718 LINE",
"427 845 LINE"
);
}
);
width = 606;
}
);
unicode = 015A;
},
{
glyphname = Scaron;
layers = (
{
layerId = UUID0;
paths = (
{
closed = 1;
nodes = (
"514 220 LINE",
"514 325 OFFCURVE",
"476 372 OFFCURVE",
"341 372 CURVE SMOOTH",
"263 372 LINE SMOOTH",
"182 372 OFFCURVE",
"154 392 OFFCURVE",
"154 437 CURVE SMOOTH",
"154 511 LINE SMOOTH",
"154 540 OFFCURVE",
"164 561 OFFCURVE",
"185 574 CURVE SMOOTH",
"205 586 OFFCURVE",
"246 592 OFFCURVE",
"308 592 CURVE SMOOTH",
"350 592 OFFCURVE",
"408 586 OFFCURVE",
"482 575 CURVE",
"482 648 LINE",
"417 655 OFFCURVE",
"362 659 OFFCURVE",
"315 659 CURVE SMOOTH",
"120 659 OFFCURVE",
"60 611 OFFCURVE",
"60 508 CURVE SMOOTH",
"60 456 LINE SMOOTH",
"60 353 OFFCURVE",
"104 300 OFFCURVE",
"235 300 CURVE SMOOTH",
"311 300 LINE SMOOTH",
"392 300 OFFCURVE",
"419 279 OFFCURVE",
"419 224 CURVE SMOOTH",
"419 140 LINE SMOOTH",
"419 77 OFFCURVE",
"369 62 OFFCURVE",
"277 62 CURVE SMOOTH",
"220 62 OFFCURVE",
"152 70 OFFCURVE",
"73 87 CURVE",
"73 6 LINE",
"152 -5 OFFCURVE",
"218 -10 OFFCURVE",
"271 -10 CURVE SMOOTH",
"438 -10 OFFCURVE",
"514 34 OFFCURVE",
"514 173 CURVE SMOOTH"
);
},
{
closed = 1;
nodes = (
"325 703 LINE",
"391 830 LINE",
"333 830 LINE",
"271 743 LINE",
"208 830 LINE",
"150 830 LINE",
"218 703 LINE"
);
}
);
width = 569;
},
{
layerId = "206DC524-6BEE-4011-B4E8-F862EC5B14D0";
paths = (
{
closed = 1;
nodes = (
"568 228 LINE",
"568 337 OFFCURVE",
"509 394 OFFCURVE",
"357 394 CURVE SMOOTH",
"279 394 LINE SMOOTH",
"222 394 OFFCURVE",
"193 411 OFFCURVE",
"193 445 CURVE SMOOTH",
"193 491 LINE SMOOTH",
"193 512 OFFCURVE",
"203 526 OFFCURVE",
"222 535 CURVE SMOOTH",
"241 544 OFFCURVE",
"277 548 OFFCURVE",
"328 548 CURVE SMOOTH",
"365 548 OFFCURVE",
"435 542 OFFCURVE",
"536 530 CURVE",
"536 646 LINE",
"451 655 OFFCURVE",
"383 659 OFFCURVE",
"333 659 CURVE SMOOTH",
"126 659 OFFCURVE",
"37 606 OFFCURVE",
"37 494 CURVE SMOOTH",
"37 446 LINE SMOOTH",
"37 333 OFFCURVE",
"108 276 OFFCURVE",
"251 276 CURVE SMOOTH",
"327 276 LINE SMOOTH",
"395 276 OFFCURVE",
"412 249 OFFCURVE",
"412 210 CURVE SMOOTH",
"412 168 LINE SMOOTH",
"412 123 OFFCURVE",
"369 101 OFFCURVE",
"282 101 CURVE SMOOTH",
"238 101 OFFCURVE",
"161 110 OFFCURVE",
"50 127 CURVE",
"50 8 LINE",
"141 -4 OFFCURVE",
"218 -10 OFFCURVE",
"280 -10 CURVE SMOOTH",
"369 -10 OFFCURVE",
"430 0 OFFCURVE",
"485 28 CURVE SMOOTH",
"540 55 OFFCURVE",
"568 108 OFFCURVE",
"568 185 CURVE SMOOTH"
);
},
{
closed = 1;
nodes = (
"355 845 LINE",
"303 758 LINE",
"250 845 LINE",
"152 845 LINE",
"210 718 LINE",
"397 718 LINE",
"453 845 LINE"
);
}
);
width = 606;
}
);
unicode = 0160;
},
{
glyphname = Scedilla;
layers = (
{
layerId = UUID0;
paths = (
{
closed = 1;
nodes = (
"514 220 LINE",
"514 325 OFFCURVE",
"476 372 OFFCURVE",
"341 372 CURVE SMOOTH",
"263 372 LINE SMOOTH",
"182 372 OFFCURVE",
"154 392 OFFCURVE",
"154 437 CURVE SMOOTH",
"154 511 LINE SMOOTH",
"154 540 OFFCURVE",
"164 561 OFFCURVE",
"185 574 CURVE SMOOTH",
"205 586 OFFCURVE",
"246 592 OFFCURVE",
"308 592 CURVE SMOOTH",
"350 592 OFFCURVE",
"408 586 OFFCURVE",
"482 575 CURVE",
"482 648 LINE",
"417 655 OFFCURVE",
"362 659 OFFCURVE",
"315 659 CURVE SMOOTH",
"120 659 OFFCURVE",
"60 611 OFFCURVE",
"60 508 CURVE SMOOTH",
"60 456 LINE SMOOTH",
"60 353 OFFCURVE",
"104 300 OFFCURVE",
"235 300 CURVE SMOOTH",
"311 300 LINE SMOOTH",
"392 300 OFFCURVE",
"419 279 OFFCURVE",
"419 224 CURVE SMOOTH",
"419 140 LINE SMOOTH",
"419 77 OFFCURVE",
"369 62 OFFCURVE",
"277 62 CURVE SMOOTH",
"220 62 OFFCURVE",
"152 70 OFFCURVE",
"73 87 CURVE",
"73 6 LINE",
"141 -3 OFFCURVE",
"199 -9 OFFCURVE",
"246 -10 CURVE",
"233 -37 OFFCURVE",
"218 -65 OFFCURVE",
"202 -92 CURVE",
"235 -92 LINE SMOOTH",
"280 -92 OFFCURVE",
"313 -108 OFFCURVE",
"313 -133 CURVE SMOOTH",
"313 -160 OFFCURVE",
"297 -173 OFFCURVE",
"266 -173 CURVE SMOOTH",
"247 -173 OFFCURVE",
"228 -167 OFFCURVE",
"208 -156 CURVE",
"187 -201 LINE",
"208 -214 OFFCURVE",
"235 -220 OFFCURVE",
"268 -220 CURVE SMOOTH",
"328 -220 OFFCURVE",
"381 -189 OFFCURVE",
"381 -130 CURVE SMOOTH",
"381 -79 OFFCURVE",
"337 -53 OFFCURVE",
"288 -52 CURVE",
"309 -9 LINE",
"449 -2 OFFCURVE",
"514 45 OFFCURVE",
"514 173 CURVE SMOOTH"
);
}
);
width = 569;
},
{
layerId = "206DC524-6BEE-4011-B4E8-F862EC5B14D0";
paths = (
{
closed = 1;
nodes = (
"568 228 LINE",
"568 337 OFFCURVE",
"509 394 OFFCURVE",
"357 394 CURVE SMOOTH",
"279 394 LINE SMOOTH",
"222 394 OFFCURVE",
"193 411 OFFCURVE",
"193 445 CURVE SMOOTH",
"193 491 LINE SMOOTH",
"193 512 OFFCURVE",
"203 526 OFFCURVE",
"222 535 CURVE SMOOTH",
"241 544 OFFCURVE",
"277 548 OFFCURVE",
"328 548 CURVE SMOOTH",
"365 548 OFFCURVE",
"435 542 OFFCURVE",
"536 530 CURVE",
"536 646 LINE",
"451 655 OFFCURVE",
"383 659 OFFCURVE",
"333 659 CURVE SMOOTH",
"126 659 OFFCURVE",
"37 606 OFFCURVE",
"37 494 CURVE SMOOTH",
"37 446 LINE SMOOTH",
"37 333 OFFCURVE",
"108 276 OFFCURVE",
"251 276 CURVE SMOOTH",
"327 276 LINE SMOOTH",
"395 276 OFFCURVE",
"412 249 OFFCURVE",
"412 210 CURVE SMOOTH",
"412 168 LINE SMOOTH",
"412 123 OFFCURVE",
"369 101 OFFCURVE",
"282 101 CURVE SMOOTH",
"238 101 OFFCURVE",
"161 110 OFFCURVE",
"50 127 CURVE",
"50 8 LINE",
"141 -4 OFFCURVE",
"218 -10 OFFCURVE",
"280 -10 CURVE SMOOTH",
"369 -10 OFFCURVE",
"430 0 OFFCURVE",
"485 28 CURVE SMOOTH",
"540 55 OFFCURVE",
"568 108 OFFCURVE",
"568 185 CURVE SMOOTH"
);
},
{
closed = 1;
nodes = (
"277 0 LINE",
"276 -3 OFFCURVE",
"265 -19 OFFCURVE",
"245 -48 CURVE SMOOTH",
"225 -77 OFFCURVE",
"214 -93 OFFCURVE",
"213 -96 CURVE",
"253 -96 LINE SMOOTH",
"303 -96 OFFCURVE",
"328 -109 OFFCURVE",
"328 -134 CURVE SMOOTH",
"328 -157 OFFCURVE",
"312 -169 OFFCURVE",
"281 -169 CURVE SMOOTH",
"260 -169 OFFCURVE",
"239 -163 OFFCURVE",
"219 -151 CURVE",
"197 -197 LINE",
"220 -212 OFFCURVE",
"251 -220 OFFCURVE",
"288 -220 CURVE SMOOTH",
"351 -220 OFFCURVE",
"408 -189 OFFCURVE",
"408 -129 CURVE SMOOTH",
"408 -77 OFFCURVE",
"366 -54 OFFCURVE",
"311 -50 CURVE",
"347 0 LINE"
);
}
);
width = 606;
}
);
unicode = 015E;
},
{
glyphname = Scircumflex;
layers = (
{
layerId = UUID0;
paths = (
{
closed = 1;
nodes = (
"514 220 LINE",
"514 325 OFFCURVE",
"476 372 OFFCURVE",
"341 372 CURVE SMOOTH",
"263 372 LINE SMOOTH",
"182 372 OFFCURVE",
"154 392 OFFCURVE",
"154 437 CURVE SMOOTH",
"154 511 LINE SMOOTH",
"154 540 OFFCURVE",
"164 561 OFFCURVE",
"185 574 CURVE SMOOTH",
"205 586 OFFCURVE",
"246 592 OFFCURVE",
"308 592 CURVE SMOOTH",
"350 592 OFFCURVE",
"408 586 OFFCURVE",
"482 575 CURVE",
"482 648 LINE",
"417 655 OFFCURVE",
"362 659 OFFCURVE",
"315 659 CURVE SMOOTH",
"120 659 OFFCURVE",
"60 611 OFFCURVE",
"60 508 CURVE SMOOTH",
"60 456 LINE SMOOTH",
"60 353 OFFCURVE",
"104 300 OFFCURVE",
"235 300 CURVE SMOOTH",
"311 300 LINE SMOOTH",
"392 300 OFFCURVE",
"419 279 OFFCURVE",
"419 224 CURVE SMOOTH",
"419 140 LINE SMOOTH",
"419 77 OFFCURVE",
"369 62 OFFCURVE",
"277 62 CURVE SMOOTH",
"220 62 OFFCURVE",
"152 70 OFFCURVE",
"73 87 CURVE",
"73 6 LINE",
"152 -5 OFFCURVE",
"218 -10 OFFCURVE",
"271 -10 CURVE SMOOTH",
"438 -10 OFFCURVE",
"514 34 OFFCURVE",
"514 173 CURVE SMOOTH"
);
},
{
closed = 1;
nodes = (
"231 703 LINE",
"294 790 LINE",
"356 703 LINE",
"414 703 LINE",
"348 830 LINE",
"241 830 LINE",
"173 703 LINE"
);
}
);
width = 569;
},
{
layerId = "206DC524-6BEE-4011-B4E8-F862EC5B14D0";
paths = (
{
closed = 1;
nodes = (
"568 228 LINE",
"568 337 OFFCURVE",
"509 394 OFFCURVE",
"357 394 CURVE SMOOTH",
"279 394 LINE SMOOTH",
"222 394 OFFCURVE",
"193 411 OFFCURVE",
"193 445 CURVE SMOOTH",
"193 491 LINE SMOOTH",
"193 512 OFFCURVE",
"203 526 OFFCURVE",
"222 535 CURVE SMOOTH",
"241 544 OFFCURVE",
"277 548 OFFCURVE",
"328 548 CURVE SMOOTH",
"365 548 OFFCURVE",
"435 542 OFFCURVE",
"536 530 CURVE",
"536 646 LINE",
"451 655 OFFCURVE",
"383 659 OFFCURVE",
"333 659 CURVE SMOOTH",
"126 659 OFFCURVE",
"37 606 OFFCURVE",
"37 494 CURVE SMOOTH",
"37 446 LINE SMOOTH",
"37 333 OFFCURVE",
"108 276 OFFCURVE",
"251 276 CURVE SMOOTH",
"327 276 LINE SMOOTH",
"395 276 OFFCURVE",
"412 249 OFFCURVE",
"412 210 CURVE SMOOTH",
"412 168 LINE SMOOTH",
"412 123 OFFCURVE",
"369 101 OFFCURVE",
"282 101 CURVE SMOOTH",
"238 101 OFFCURVE",
"161 110 OFFCURVE",
"50 127 CURVE",
"50 8 LINE",
"141 -4 OFFCURVE",
"218 -10 OFFCURVE",
"280 -10 CURVE SMOOTH",
"369 -10 OFFCURVE",
"430 0 OFFCURVE",
"485 28 CURVE SMOOTH",
"540 55 OFFCURVE",
"568 108 OFFCURVE",
"568 185 CURVE SMOOTH"
);
},
{
closed = 1;
nodes = (
"395 845 LINE",
"208 845 LINE",
"152 718 LINE",
"250 718 LINE",
"302 805 LINE",
"355 718 LINE",
"453 718 LINE"
);
}
);
width = 606;
}
);
unicode = 015C;
},
{
glyphname = Scommaaccent;
layers = (
{
layerId = UUID0;
paths = (
{
closed = 1;
nodes = (
"514 220 LINE",
"514 325 OFFCURVE",
"476 372 OFFCURVE",
"341 372 CURVE SMOOTH",
"263 372 LINE SMOOTH",
"182 372 OFFCURVE",
"154 392 OFFCURVE",
"154 437 CURVE SMOOTH",
"154 511 LINE SMOOTH",
"154 540 OFFCURVE",
"164 561 OFFCURVE",
"185 574 CURVE SMOOTH",
"205 586 OFFCURVE",
"246 592 OFFCURVE",
"308 592 CURVE SMOOTH",
"350 592 OFFCURVE",
"408 586 OFFCURVE",
"482 575 CURVE",
"482 648 LINE",
"417 655 OFFCURVE",
"362 659 OFFCURVE",
"315 659 CURVE SMOOTH",
"120 659 OFFCURVE",
"60 611 OFFCURVE",
"60 508 CURVE SMOOTH",
"60 456 LINE SMOOTH",
"60 353 OFFCURVE",
"104 300 OFFCURVE",
"235 300 CURVE SMOOTH",
"311 300 LINE SMOOTH",
"392 300 OFFCURVE",
"419 279 OFFCURVE",
"419 224 CURVE SMOOTH",
"419 140 LINE SMOOTH",
"419 77 OFFCURVE",
"369 62 OFFCURVE",
"277 62 CURVE SMOOTH",
"220 62 OFFCURVE",
"152 70 OFFCURVE",
"73 87 CURVE",
"73 6 LINE",
"152 -5 OFFCURVE",
"218 -10 OFFCURVE",
"271 -10 CURVE SMOOTH",
"438 -10 OFFCURVE",
"514 34 OFFCURVE",
"514 173 CURVE SMOOTH"
);
},
{
closed = 1;
nodes = (
"255 -40 LINE",
"209 -190 LINE",
"273 -190 LINE",
"356 -40 LINE"
);
}
);
width = 569;
},
{
layerId = "206DC524-6BEE-4011-B4E8-F862EC5B14D0";
paths = (
{
closed = 1;
nodes = (
"255 -46 LINE",
"209 -196 LINE",
"305 -196 LINE",
"388 -46 LINE"
);
},
{
closed = 1;
nodes = (
"568 228 LINE",
"568 337 OFFCURVE",
"509 394 OFFCURVE",
"357 394 CURVE SMOOTH",
"279 394 LINE SMOOTH",
"222 394 OFFCURVE",
"193 411 OFFCURVE",
"193 445 CURVE SMOOTH",
"193 491 LINE SMOOTH",
"193 512 OFFCURVE",
"203 526 OFFCURVE",
"222 535 CURVE SMOOTH",
"241 544 OFFCURVE",
"277 548 OFFCURVE",
"328 548 CURVE SMOOTH",
"365 548 OFFCURVE",
"435 542 OFFCURVE",
"536 530 CURVE",
"536 646 LINE",
"451 655 OFFCURVE",
"383 659 OFFCURVE",
"333 659 CURVE SMOOTH",
"126 659 OFFCURVE",
"37 606 OFFCURVE",
"37 494 CURVE SMOOTH",
"37 446 LINE SMOOTH",
"37 333 OFFCURVE",
"108 276 OFFCURVE",
"251 276 CURVE SMOOTH",
"327 276 LINE SMOOTH",
"395 276 OFFCURVE",
"412 249 OFFCURVE",
"412 210 CURVE SMOOTH",
"412 168 LINE SMOOTH",
"412 123 OFFCURVE",
"369 101 OFFCURVE",
"282 101 CURVE SMOOTH",
"238 101 OFFCURVE",
"161 110 OFFCURVE",
"50 127 CURVE",
"50 8 LINE",
"141 -4 OFFCURVE",
"218 -10 OFFCURVE",
"280 -10 CURVE SMOOTH",
"369 -10 OFFCURVE",
"430 0 OFFCURVE",
"485 28 CURVE SMOOTH",
"540 55 OFFCURVE",
"568 108 OFFCURVE",
"568 185 CURVE SMOOTH"
);
}
);
width = 606;
}
);
unicode = 0218;
},
{
glyphname = T;
layers = (
{
layerId = UUID0;
paths = (
{
closed = 1;
nodes = (
"561 649 LINE",
"24 649 LINE",
"24 581 LINE",
"244 581 LINE",
"244 0 LINE",
"342 0 LINE",
"342 581 LINE",
"561 581 LINE"
);
}
);
width = 585;
},
{
layerId = "206DC524-6BEE-4011-B4E8-F862EC5B14D0";
paths = (
{
closed = 1;
nodes = (
"575 649 LINE",
"20 649 LINE",
"20 538 LINE",
"220 538 LINE",
"220 0 LINE",
"376 0 LINE",
"376 538 LINE",
"575 538 LINE"
);
}
);
width = 595;
}
);
unicode = 0054;
},
{
glyphname = Tbar;
layers = (
{
layerId = UUID0;
paths = (
{
closed = 1;
nodes = (
"561 649 LINE",
"24 649 LINE",
"24 581 LINE",
"244 581 LINE",
"244 369 LINE",
"144 369 LINE",
"144 301 LINE",
"244 301 LINE",
"244 0 LINE",
"342 0 LINE",
"342 301 LINE",
"442 301 LINE",
"442 369 LINE",
"342 369 LINE",
"342 581 LINE",
"561 581 LINE"
);
}
);
width = 585;
},
{
layerId = "206DC524-6BEE-4011-B4E8-F862EC5B14D0";
paths = (
{
closed = 1;
nodes = (
"575 649 LINE",
"20 649 LINE",
"20 538 LINE",
"220 538 LINE",
"220 380 LINE",
"108 380 LINE",
"108 281 LINE",
"220 281 LINE",
"220 0 LINE",
"376 0 LINE",
"376 281 LINE",
"484 281 LINE",
"484 380 LINE",
"376 380 LINE",
"376 538 LINE",
"575 538 LINE"
);
}
);
width = 595;
}
);
unicode = 0166;
},
{
glyphname = Tcaron;
layers = (
{
layerId = UUID0;
paths = (
{
closed = 1;
nodes = (
"561 649 LINE",
"24 649 LINE",
"24 581 LINE",
"244 581 LINE",
"244 0 LINE",
"342 0 LINE",
"342 581 LINE",
"561 581 LINE"
);
},
{
closed = 1;
nodes = (
"348 703 LINE",
"414 830 LINE",
"356 830 LINE",
"294 743 LINE",
"231 830 LINE",
"173 830 LINE",
"241 703 LINE"
);
}
);
width = 585;
},
{
layerId = "206DC524-6BEE-4011-B4E8-F862EC5B14D0";
paths = (
{
closed = 1;
nodes = (
"575 649 LINE",
"20 649 LINE",
"20 538 LINE",
"220 538 LINE",
"220 0 LINE",
"376 0 LINE",
"376 538 LINE",
"575 538 LINE"
);
},
{
closed = 1;
nodes = (
"350 845 LINE",
"298 758 LINE",
"245 845 LINE",
"147 845 LINE",
"205 718 LINE",
"392 718 LINE",
"448 845 LINE"
);
}
);
width = 595;
}
);
unicode = 0164;
},
{
glyphname = Tcommaaccent;
layers = (
{
layerId = UUID0;
paths = (
{
closed = 1;
nodes = (
"561 649 LINE",
"24 649 LINE",
"24 581 LINE",
"244 581 LINE",
"244 0 LINE",
"342 0 LINE",
"342 581 LINE",
"561 581 LINE"
);
},
{
closed = 1;
nodes = (
"249 -40 LINE",
"203 -190 LINE",
"267 -190 LINE",
"350 -40 LINE"
);
}
);
width = 585;
},
{
layerId = "206DC524-6BEE-4011-B4E8-F862EC5B14D0";
paths = (
{
closed = 1;
nodes = (
"234 -43 LINE",
"188 -193 LINE",
"284 -193 LINE",
"367 -43 LINE"
);
},
{
closed = 1;
nodes = (
"575 649 LINE",
"20 649 LINE",
"20 538 LINE",
"220 538 LINE",
"220 0 LINE",
"376 0 LINE",
"376 538 LINE",
"575 538 LINE"
);
}
);
width = 593;
}
);
unicode = 021A;
},
{
glyphname = U;
layers = (
{
anchors = (
{
name = bottom;
position = "{338, 0}";
},
{
name = ogonek;
position = "{608, 10}";
},
{
name = top;
position = "{338, 649}";
},
{
name = topright;
position = "{605, 649}";
}
);
layerId = UUID0;
paths = (
{
closed = 1;
nodes = (
"498 649 LINE",
"498 167 LINE SMOOTH",
"498 82 OFFCURVE",
"440 55 OFFCURVE",
"339 55 CURVE SMOOTH",
"238 55 OFFCURVE",
"177 82 OFFCURVE",
"177 167 CURVE SMOOTH",
"177 649 LINE",
"84 649 LINE",
"84 166 LINE SMOOTH",
"84 94 OFFCURVE",
"115 44 OFFCURVE",
"167 21 CURVE SMOOTH",
"219 -3 OFFCURVE",
"269 -10 OFFCURVE",
"337 -10 CURVE SMOOTH",
"506 -10 OFFCURVE",
"591 49 OFFCURVE",
"591 166 CURVE SMOOTH",
"591 649 LINE"
);
}
);
width = 676;
},
{
anchors = (
{
name = bottom;
position = "{350, 0}";
},
{
name = ogonek;
position = "{629, 10}";
},
{
name = top;
position = "{350, 649}";
},
{
name = topright;
position = "{638, 649}";
}
);
layerId = "206DC524-6BEE-4011-B4E8-F862EC5B14D0";
paths = (
{
closed = 1;
nodes = (
"475 649 LINE",
"475 178 LINE SMOOTH",
"475 119 OFFCURVE",
"442 101 OFFCURVE",
"351 101 CURVE SMOOTH",
"259 101 OFFCURVE",
"224 119 OFFCURVE",
"224 178 CURVE SMOOTH",
"224 649 LINE",
"68 649 LINE",
"68 178 LINE SMOOTH",
"68 53 OFFCURVE",
"162 -10 OFFCURVE",
"349 -10 CURVE SMOOTH",
"537 -10 OFFCURVE",
"631 53 OFFCURVE",
"631 178 CURVE SMOOTH",
"631 649 LINE"
);
}
);
width = 699;
}
);
unicode = 0055;
},
{
glyphname = Ubreve;
layers = (
{
layerId = UUID0;
paths = (
{
closed = 1;
nodes = (
"498 649 LINE",
"498 167 LINE SMOOTH",
"498 82 OFFCURVE",
"440 55 OFFCURVE",
"339 55 CURVE SMOOTH",
"238 55 OFFCURVE",
"177 82 OFFCURVE",
"177 167 CURVE SMOOTH",
"177 649 LINE",
"84 649 LINE",
"84 166 LINE SMOOTH",
"84 94 OFFCURVE",
"115 44 OFFCURVE",
"167 21 CURVE SMOOTH",
"219 -3 OFFCURVE",
"269 -10 OFFCURVE",
"337 -10 CURVE SMOOTH",
"506 -10 OFFCURVE",
"591 49 OFFCURVE",
"591 166 CURVE SMOOTH",
"591 649 LINE"
);
},
{
closed = 1;
nodes = (
"444 776 OFFCURVE",
"455 806 OFFCURVE",
"456 845 CURVE",
"402 845 LINE",
"398 800 OFFCURVE",
"377 777 OFFCURVE",
"338 777 CURVE SMOOTH",
"299 777 OFFCURVE",
"278 800 OFFCURVE",
"274 845 CURVE",
"220 845 LINE",
"223 768 OFFCURVE",
"266 718 OFFCURVE",
"338 718 CURVE SMOOTH",
"374 718 OFFCURVE",
"402 730 OFFCURVE",
"423 753 CURVE SMOOTH"
);
}
);
width = 676;
},
{
layerId = "206DC524-6BEE-4011-B4E8-F862EC5B14D0";
paths = (
{
closed = 1;
nodes = (
"475 649 LINE",
"475 178 LINE SMOOTH",
"475 119 OFFCURVE",
"442 101 OFFCURVE",
"351 101 CURVE SMOOTH",
"259 101 OFFCURVE",
"224 119 OFFCURVE",
"224 178 CURVE SMOOTH",
"224 649 LINE",
"68 649 LINE",
"68 178 LINE SMOOTH",
"68 53 OFFCURVE",
"162 -10 OFFCURVE",
"349 -10 CURVE SMOOTH",
"537 -10 OFFCURVE",
"631 53 OFFCURVE",
"631 178 CURVE SMOOTH",
"631 649 LINE"
);
},
{
closed = 1;
nodes = (
"405 845 LINE",
"401 808 OFFCURVE",
"382 790 OFFCURVE",
"349 790 CURVE SMOOTH",
"313 790 OFFCURVE",
"300 806 OFFCURVE",
"292 845 CURVE",
"211 845 LINE",
"215 769 OFFCURVE",
"266 718 OFFCURVE",
"349 718 CURVE SMOOTH",
"430 718 OFFCURVE",
"482 769 OFFCURVE",
"487 845 CURVE"
);
}
);
width = 699;
}
);
unicode = 016C;
},
{
glyphname = Ucircumflex;
layers = (
{
layerId = UUID0;
paths = (
{
closed = 1;
nodes = (
"498 649 LINE",
"498 167 LINE SMOOTH",
"498 82 OFFCURVE",
"440 55 OFFCURVE",
"339 55 CURVE SMOOTH",
"238 55 OFFCURVE",
"177 82 OFFCURVE",
"177 167 CURVE SMOOTH",
"177 649 LINE",
"84 649 LINE",
"84 166 LINE SMOOTH",
"84 94 OFFCURVE",
"115 44 OFFCURVE",
"167 21 CURVE SMOOTH",
"219 -3 OFFCURVE",
"269 -10 OFFCURVE",
"337 -10 CURVE SMOOTH",
"506 -10 OFFCURVE",
"591 49 OFFCURVE",
"591 166 CURVE SMOOTH",
"591 649 LINE"
);
},
{
closed = 1;
nodes = (
"269 703 LINE",
"332 790 LINE",
"394 703 LINE",
"452 703 LINE",
"386 830 LINE",
"279 830 LINE",
"211 703 LINE"
);
}
);
width = 676;
},
{
layerId = "206DC524-6BEE-4011-B4E8-F862EC5B14D0";
paths = (
{
closed = 1;
nodes = (
"475 649 LINE",
"475 178 LINE SMOOTH",
"475 119 OFFCURVE",
"442 101 OFFCURVE",
"351 101 CURVE SMOOTH",
"259 101 OFFCURVE",
"224 119 OFFCURVE",
"224 178 CURVE SMOOTH",
"224 649 LINE",
"68 649 LINE",
"68 178 LINE SMOOTH",
"68 53 OFFCURVE",
"162 -10 OFFCURVE",
"349 -10 CURVE SMOOTH",
"537 -10 OFFCURVE",
"631 53 OFFCURVE",
"631 178 CURVE SMOOTH",
"631 649 LINE"
);
},
{
closed = 1;
nodes = (
"442 845 LINE",
"255 845 LINE",
"199 718 LINE",
"297 718 LINE",
"349 805 LINE",
"402 718 LINE",
"500 718 LINE"
);
}
);
width = 699;
}
);
unicode = 00DB;
},
{
glyphname = Udieresis;
layers = (
{
layerId = UUID0;
paths = (
{
closed = 1;
nodes = (
"498 649 LINE",
"498 167 LINE SMOOTH",
"498 82 OFFCURVE",
"440 55 OFFCURVE",
"339 55 CURVE SMOOTH",
"238 55 OFFCURVE",
"177 82 OFFCURVE",
"177 167 CURVE SMOOTH",
"177 649 LINE",
"84 649 LINE",
"84 166 LINE SMOOTH",
"84 94 OFFCURVE",
"115 44 OFFCURVE",
"167 21 CURVE SMOOTH",
"219 -3 OFFCURVE",
"269 -10 OFFCURVE",
"337 -10 CURVE SMOOTH",
"506 -10 OFFCURVE",
"591 49 OFFCURVE",
"591 166 CURVE SMOOTH",
"591 649 LINE"
);
},
{
closed = 1;
nodes = (
"291 809 LINE",
"201 809 LINE",
"201 715 LINE",
"291 715 LINE"
);
},
{
closed = 1;
nodes = (
"461 809 LINE",
"371 809 LINE",
"371 715 LINE",
"461 715 LINE"
);
}
);
width = 676;
},
{
layerId = "206DC524-6BEE-4011-B4E8-F862EC5B14D0";
paths = (
{
closed = 1;
nodes = (
"475 649 LINE",
"475 178 LINE SMOOTH",
"475 119 OFFCURVE",
"442 101 OFFCURVE",
"351 101 CURVE SMOOTH",
"259 101 OFFCURVE",
"224 119 OFFCURVE",
"224 178 CURVE SMOOTH",
"224 649 LINE",
"68 649 LINE",
"68 178 LINE SMOOTH",
"68 53 OFFCURVE",
"162 -10 OFFCURVE",
"349 -10 CURVE SMOOTH",
"537 -10 OFFCURVE",
"631 53 OFFCURVE",
"631 178 CURVE SMOOTH",
"631 649 LINE"
);
},
{
closed = 1;
nodes = (
"507 848 LINE",
"381 848 LINE",
"381 730 LINE",
"507 730 LINE"
);
},
{
closed = 1;
nodes = (
"317 848 LINE",
"191 848 LINE",
"191 730 LINE",
"317 730 LINE"
);
}
);
width = 699;
}
);
unicode = 00DC;
},
{
glyphname = Uhungarumlaut;
layers = (
{
layerId = UUID0;
paths = (
{
closed = 1;
nodes = (
"498 649 LINE",
"498 167 LINE SMOOTH",
"498 82 OFFCURVE",
"440 55 OFFCURVE",
"339 55 CURVE SMOOTH",
"238 55 OFFCURVE",
"177 82 OFFCURVE",
"177 167 CURVE SMOOTH",
"177 649 LINE",
"84 649 LINE",
"84 166 LINE SMOOTH",
"84 94 OFFCURVE",
"115 44 OFFCURVE",
"167 21 CURVE SMOOTH",
"219 -3 OFFCURVE",
"269 -10 OFFCURVE",
"337 -10 CURVE SMOOTH",
"506 -10 OFFCURVE",
"591 49 OFFCURVE",
"591 166 CURVE SMOOTH",
"591 649 LINE"
);
},
{
closed = 1;
nodes = (
"355 831 LINE",
"279 831 LINE",
"209 703 LINE",
"285 703 LINE"
);
},
{
closed = 1;
nodes = (
"482 831 LINE",
"406 831 LINE",
"336 703 LINE",
"412 703 LINE"
);
}
);
width = 676;
},
{
layerId = "206DC524-6BEE-4011-B4E8-F862EC5B14D0";
paths = (
{
closed = 1;
nodes = (
"475 649 LINE",
"475 178 LINE SMOOTH",
"475 119 OFFCURVE",
"442 101 OFFCURVE",
"351 101 CURVE SMOOTH",
"259 101 OFFCURVE",
"224 119 OFFCURVE",
"224 178 CURVE SMOOTH",
"224 649 LINE",
"68 649 LINE",
"68 178 LINE SMOOTH",
"68 53 OFFCURVE",
"162 -10 OFFCURVE",
"349 -10 CURVE SMOOTH",
"537 -10 OFFCURVE",
"631 53 OFFCURVE",
"631 178 CURVE SMOOTH",
"631 649 LINE"
);
},
{
closed = 1;
nodes = (
"410 845 LINE",
"340 717 LINE",
"436 717 LINE",
"506 845 LINE"
);
},
{
closed = 1;
nodes = (
"263 845 LINE",
"193 717 LINE",
"289 717 LINE",
"359 845 LINE"
);
}
);
width = 699;
}
);
unicode = 0170;
},
{
glyphname = Umacron;
layers = (
{
layerId = UUID0;
paths = (
{
closed = 1;
nodes = (
"498 649 LINE",
"498 167 LINE SMOOTH",
"498 82 OFFCURVE",
"440 55 OFFCURVE",
"339 55 CURVE SMOOTH",
"238 55 OFFCURVE",
"177 82 OFFCURVE",
"177 167 CURVE SMOOTH",
"177 649 LINE",
"84 649 LINE",
"84 166 LINE SMOOTH",
"84 94 OFFCURVE",
"115 44 OFFCURVE",
"167 21 CURVE SMOOTH",
"219 -3 OFFCURVE",
"269 -10 OFFCURVE",
"337 -10 CURVE SMOOTH",
"506 -10 OFFCURVE",
"591 49 OFFCURVE",
"591 166 CURVE SMOOTH",
"591 649 LINE"
);
},
{
closed = 1;
nodes = (
"443 798 LINE",
"225 798 LINE",
"225 739 LINE",
"443 739 LINE"
);
}
);
width = 676;
},
{
layerId = "206DC524-6BEE-4011-B4E8-F862EC5B14D0";
paths = (
{
closed = 1;
nodes = (
"475 649 LINE",
"475 178 LINE SMOOTH",
"475 119 OFFCURVE",
"442 101 OFFCURVE",
"351 101 CURVE SMOOTH",
"259 101 OFFCURVE",
"224 119 OFFCURVE",
"224 178 CURVE SMOOTH",
"224 649 LINE",
"68 649 LINE",
"68 178 LINE SMOOTH",
"68 53 OFFCURVE",
"162 -10 OFFCURVE",
"349 -10 CURVE SMOOTH",
"537 -10 OFFCURVE",
"631 53 OFFCURVE",
"631 178 CURVE SMOOTH",
"631 649 LINE"
);
},
{
closed = 1;
nodes = (
"488 814 LINE",
"210 814 LINE",
"210 725 LINE",
"488 725 LINE"
);
}
);
width = 699;
}
);
unicode = 016A;
},
{
glyphname = Uogonek;
layers = (
{
layerId = UUID0;
paths = (
{
closed = 1;
nodes = (
"398 -186 OFFCURVE",
"415 -183 OFFCURVE",
"429 -176 CURVE",
"429 -123 LINE",
"414 -128 OFFCURVE",
"403 -130 OFFCURVE",
"398 -130 CURVE SMOOTH",
"372 -130 OFFCURVE",
"359 -119 OFFCURVE",
"359 -97 CURVE SMOOTH",
"359 -68 OFFCURVE",
"368 -38 OFFCURVE",
"385 -8 CURVE",
"522 3 OFFCURVE",
"591 61 OFFCURVE",
"591 166 CURVE SMOOTH",
"591 649 LINE",
"498 649 LINE",
"498 167 LINE SMOOTH",
"498 82 OFFCURVE",
"440 55 OFFCURVE",
"339 55 CURVE SMOOTH",
"238 55 OFFCURVE",
"177 82 OFFCURVE",
"177 167 CURVE SMOOTH",
"177 649 LINE",
"84 649 LINE",
"84 166 LINE SMOOTH",
"84 55 OFFCURVE",
"159 -4 OFFCURVE",
"310 -9 CURVE",
"290 -43 OFFCURVE",
"280 -75 OFFCURVE",
"280 -106 CURVE SMOOTH",
"280 -163 OFFCURVE",
"314 -186 OFFCURVE",
"379 -186 CURVE SMOOTH"
);
}
);
width = 676;
},
{
layerId = "206DC524-6BEE-4011-B4E8-F862EC5B14D0";
paths = (
{
closed = 1;
nodes = (
"445 -109 LINE",
"433 -113 OFFCURVE",
"423 -115 OFFCURVE",
"415 -115 CURVE SMOOTH",
"386 -115 OFFCURVE",
"377 -104 OFFCURVE",
"377 -83 CURVE SMOOTH",
"377 -58 OFFCURVE",
"385 -33 OFFCURVE",
"401 -8 CURVE",
"556 3 OFFCURVE",
"633 65 OFFCURVE",
"633 178 CURVE SMOOTH",
"633 649 LINE",
"484 649 LINE",
"484 174 LINE SMOOTH",
"484 115 OFFCURVE",
"445 97 OFFCURVE",
"353 97 CURVE SMOOTH",
"260 97 OFFCURVE",
"219 117 OFFCURVE",
"219 174 CURVE SMOOTH",
"219 649 LINE",
"70 649 LINE",
"70 178 LINE SMOOTH",
"70 63 OFFCURVE",
"149 1 OFFCURVE",
"306 -8 CURVE",
"286 -42 OFFCURVE",
"276 -75 OFFCURVE",
"276 -106 CURVE SMOOTH",
"276 -163 OFFCURVE",
"310 -186 OFFCURVE",
"375 -186 CURVE SMOOTH",
"408 -186 OFFCURVE",
"431 -183 OFFCURVE",
"445 -176 CURVE"
);
}
);
width = 703;
}
);
unicode = 0172;
},
{
glyphname = Uring;
layers = (
{
layerId = UUID0;
paths = (
{
closed = 1;
nodes = (
"498 649 LINE",
"498 167 LINE SMOOTH",
"498 82 OFFCURVE",
"440 55 OFFCURVE",
"339 55 CURVE SMOOTH",
"238 55 OFFCURVE",
"177 82 OFFCURVE",
"177 167 CURVE SMOOTH",
"177 649 LINE",
"84 649 LINE",
"84 166 LINE SMOOTH",
"84 94 OFFCURVE",
"115 44 OFFCURVE",
"167 21 CURVE SMOOTH",
"219 -3 OFFCURVE",
"269 -10 OFFCURVE",
"337 -10 CURVE SMOOTH",
"506 -10 OFFCURVE",
"591 49 OFFCURVE",
"591 166 CURVE SMOOTH",
"591 649 LINE"
);
},
{
closed = 1;
nodes = (
"478 813 LINE",
"478 832 OFFCURVE",
"476 849 OFFCURVE",
"471 862 CURVE SMOOTH",
"462 889 OFFCURVE",
"450 901 OFFCURVE",
"425 909 CURVE SMOOTH",
"400 916 OFFCURVE",
"381 917 OFFCURVE",
"344 917 CURVE SMOOTH",
"296 917 OFFCURVE",
"276 915 OFFCURVE",
"249 903 CURVE SMOOTH",
"221 890 OFFCURVE",
"211 861 OFFCURVE",
"211 813 CURVE SMOOTH",
"211 801 LINE SMOOTH",
"211 756 OFFCURVE",
"221 729 OFFCURVE",
"249 717 CURVE SMOOTH",
"276 705 OFFCURVE",
"296 703 OFFCURVE",
"344 703 CURVE SMOOTH",
"392 703 OFFCURVE",
"413 705 OFFCURVE",
"441 717 CURVE SMOOTH",
"468 729 OFFCURVE",
"478 756 OFFCURVE",
"478 801 CURVE SMOOTH"
);
},
{
closed = 1;
nodes = (
"415 794 LINE",
"415 750 OFFCURVE",
"399 745 OFFCURVE",
"344 745 CURVE SMOOTH",
"289 745 OFFCURVE",
"274 750 OFFCURVE",
"274 794 CURVE SMOOTH",
"274 821 LINE SMOOTH",
"274 869 OFFCURVE",
"289 875 OFFCURVE",
"344 875 CURVE SMOOTH",
"399 875 OFFCURVE",
"415 869 OFFCURVE",
"415 821 CURVE SMOOTH"
);
}
);
width = 717;
},
{
layerId = "206DC524-6BEE-4011-B4E8-F862EC5B14D0";
paths = (
{
closed = 1;
nodes = (
"475 649 LINE",
"475 178 LINE SMOOTH",
"475 119 OFFCURVE",
"442 101 OFFCURVE",
"351 101 CURVE SMOOTH",
"259 101 OFFCURVE",
"224 119 OFFCURVE",
"224 178 CURVE SMOOTH",
"224 649 LINE",
"68 649 LINE",
"68 178 LINE SMOOTH",
"68 53 OFFCURVE",
"162 -10 OFFCURVE",
"349 -10 CURVE SMOOTH",
"537 -10 OFFCURVE",
"631 53 OFFCURVE",
"631 178 CURVE SMOOTH",
"631 649 LINE"
);
},
{
closed = 1;
nodes = (
"498 828 LINE",
"498 847 OFFCURVE",
"495 864 OFFCURVE",
"490 877 CURVE SMOOTH",
"478 904 OFFCURVE",
"464 916 OFFCURVE",
"436 924 CURVE SMOOTH",
"407 932 OFFCURVE",
"388 932 OFFCURVE",
"349 932 CURVE SMOOTH",
"330 932 OFFCURVE",
"314 932 OFFCURVE",
"302 931 CURVE SMOOTH",
"278 930 OFFCURVE",
"245 922 OFFCURVE",
"229 908 CURVE SMOOTH",
"213 894 OFFCURVE",
"200 867 OFFCURVE",
"200 828 CURVE SMOOTH",
"200 816 LINE SMOOTH",
"200 772 OFFCURVE",
"214 744 OFFCURVE",
"246 732 CURVE SMOOTH",
"277 720 OFFCURVE",
"301 718 OFFCURVE",
"349 718 CURVE SMOOTH",
"397 718 OFFCURVE",
"421 720 OFFCURVE",
"453 732 CURVE SMOOTH",
"484 744 OFFCURVE",
"498 772 OFFCURVE",
"498 816 CURVE SMOOTH"
);
},
{
closed = 1;
nodes = (
"419 809 LINE",
"419 777 OFFCURVE",
"404 770 OFFCURVE",
"349 770 CURVE SMOOTH",
"294 770 OFFCURVE",
"279 777 OFFCURVE",
"279 809 CURVE SMOOTH",
"279 836 LINE SMOOTH",
"279 875 OFFCURVE",
"288 880 OFFCURVE",
"349 880 CURVE SMOOTH",
"410 880 OFFCURVE",
"419 875 OFFCURVE",
"419 836 CURVE SMOOTH"
);
}
);
width = 699;
}
);
unicode = 016E;
},
{
glyphname = V;
layers = (
{
layerId = UUID0;
paths = (
{
closed = 1;
nodes = (
"541 649 LINE",
"333 92 LINE",
"324 92 LINE",
"116 649 LINE",
"15 649 LINE",
"267 0 LINE",
"379 0 LINE",
"637 649 LINE"
);
}
);
width = 652;
},
{
layerId = "206DC524-6BEE-4011-B4E8-F862EC5B14D0";
paths = (
{
closed = 1;
nodes = (
"510 649 LINE",
"336 130 LINE",
"332 130 LINE",
"158 649 LINE",
"0 649 LINE",
"233 0 LINE",
"424 0 LINE",
"664 649 LINE"
);
}
);
width = 664;
}
);
unicode = 0056;
},
{
glyphname = W;
layers = (
{
layerId = UUID0;
paths = (
{
closed = 1;
nodes = (
"862 649 LINE",
"701 92 LINE",
"699 92 LINE",
"538 649 LINE",
"435 649 LINE",
"274 92 LINE",
"272 92 LINE",
"111 649 LINE",
"8 649 LINE",
"211 0 LINE",
"324 0 LINE",
"483 540 LINE",
"638 0 LINE",
"751 0 LINE",
"960 649 LINE"
);
}
);
width = 968;
},
{
layerId = "206DC524-6BEE-4011-B4E8-F862EC5B14D0";
paths = (
{
closed = 1;
nodes = (
"819 649 LINE",
"703 175 LINE",
"567 649 LINE",
"422 649 LINE",
"296 175 LINE",
"170 649 LINE",
"8 649 LINE",
"209 0 LINE",
"363 0 LINE",
"491 471 LINE",
"615 0 LINE",
"769 0 LINE",
"977 649 LINE"
);
}
);
width = 985;
}
);
unicode = 0057;
},
{
glyphname = Wacute;
layers = (
{
layerId = UUID0;
paths = (
{
closed = 1;
nodes = (
"862 649 LINE",
"701 92 LINE",
"699 92 LINE",
"538 649 LINE",
"435 649 LINE",
"274 92 LINE",
"272 92 LINE",
"111 649 LINE",
"8 649 LINE",
"211 0 LINE",
"324 0 LINE",
"483 540 LINE",
"638 0 LINE",
"751 0 LINE",
"960 649 LINE"
);
},
{
closed = 1;
nodes = (
"520 830 LINE",
"430 703 LINE",
"504 703 LINE",
"629 830 LINE"
);
}
);
width = 968;
},
{
layerId = "206DC524-6BEE-4011-B4E8-F862EC5B14D0";
paths = (
{
closed = 1;
nodes = (
"819 649 LINE",
"703 175 LINE",
"567 649 LINE",
"422 649 LINE",
"296 175 LINE",
"170 649 LINE",
"8 649 LINE",
"209 0 LINE",
"363 0 LINE",
"491 471 LINE",
"615 0 LINE",
"769 0 LINE",
"977 649 LINE"
);
},
{
closed = 1;
nodes = (
"458 845 LINE",
"368 718 LINE",
"492 718 LINE",
"617 845 LINE"
);
}
);
width = 985;
}
);
unicode = 1E82;
},
{
glyphname = Wcircumflex;
layers = (
{
layerId = UUID0;
paths = (
{
closed = 1;
nodes = (
"862 649 LINE",
"701 92 LINE",
"699 92 LINE",
"538 649 LINE",
"435 649 LINE",
"274 92 LINE",
"272 92 LINE",
"111 649 LINE",
"8 649 LINE",
"211 0 LINE",
"324 0 LINE",
"483 540 LINE",
"638 0 LINE",
"751 0 LINE",
"960 649 LINE"
);
},
{
closed = 1;
nodes = (
"423 703 LINE",
"486 790 LINE",
"548 703 LINE",
"606 703 LINE",
"540 830 LINE",
"433 830 LINE",
"365 703 LINE"
);
}
);
width = 968;
},
{
layerId = "206DC524-6BEE-4011-B4E8-F862EC5B14D0";
paths = (
{
closed = 1;
nodes = (
"819 649 LINE",
"703 175 LINE",
"567 649 LINE",
"422 649 LINE",
"296 175 LINE",
"170 649 LINE",
"8 649 LINE",
"209 0 LINE",
"363 0 LINE",
"491 471 LINE",
"615 0 LINE",
"769 0 LINE",
"977 649 LINE"
);
},
{
closed = 1;
nodes = (
"585 845 LINE",
"398 845 LINE",
"342 718 LINE",
"440 718 LINE",
"492 805 LINE",
"545 718 LINE",
"643 718 LINE"
);
}
);
width = 985;
}
);
unicode = 0174;
},
{
glyphname = Wdieresis;
layers = (
{
layerId = UUID0;
paths = (
{
closed = 1;
nodes = (
"862 649 LINE",
"701 92 LINE",
"699 92 LINE",
"538 649 LINE",
"435 649 LINE",
"274 92 LINE",
"272 92 LINE",
"111 649 LINE",
"8 649 LINE",
"211 0 LINE",
"324 0 LINE",
"483 540 LINE",
"638 0 LINE",
"751 0 LINE",
"960 649 LINE"
);
},
{
closed = 1;
nodes = (
"443 829 LINE",
"353 829 LINE",
"353 735 LINE",
"443 735 LINE"
);
},
{
closed = 1;
nodes = (
"613 829 LINE",
"523 829 LINE",
"523 735 LINE",
"613 735 LINE"
);
}
);
width = 968;
},
{
layerId = "206DC524-6BEE-4011-B4E8-F862EC5B14D0";
paths = (
{
closed = 1;
nodes = (
"819 649 LINE",
"703 175 LINE",
"567 649 LINE",
"422 649 LINE",
"296 175 LINE",
"170 649 LINE",
"8 649 LINE",
"209 0 LINE",
"363 0 LINE",
"491 471 LINE",
"615 0 LINE",
"769 0 LINE",
"977 649 LINE"
);
},
{
closed = 1;
nodes = (
"650 848 LINE",
"524 848 LINE",
"524 730 LINE",
"650 730 LINE"
);
},
{
closed = 1;
nodes = (
"460 848 LINE",
"334 848 LINE",
"334 730 LINE",
"460 730 LINE"
);
}
);
width = 985;
}
);
unicode = 1E84;
},
{
glyphname = Wgrave;
layers = (
{
layerId = UUID0;
paths = (
{
closed = 1;
nodes = (
"862 649 LINE",
"701 92 LINE",
"699 92 LINE",
"538 649 LINE",
"435 649 LINE",
"274 92 LINE",
"272 92 LINE",
"111 649 LINE",
"8 649 LINE",
"211 0 LINE",
"324 0 LINE",
"483 540 LINE",
"638 0 LINE",
"751 0 LINE",
"960 649 LINE"
);
},
{
closed = 1;
nodes = (
"433 830 LINE",
"324 830 LINE",
"449 703 LINE",
"523 703 LINE"
);
}
);
width = 968;
},
{
layerId = "206DC524-6BEE-4011-B4E8-F862EC5B14D0";
paths = (
{
closed = 1;
nodes = (
"819 649 LINE",
"703 175 LINE",
"567 649 LINE",
"422 649 LINE",
"296 175 LINE",
"170 649 LINE",
"8 649 LINE",
"209 0 LINE",
"363 0 LINE",
"491 471 LINE",
"615 0 LINE",
"769 0 LINE",
"977 649 LINE"
);
},
{
closed = 1;
nodes = (
"527 845 LINE",
"368 845 LINE",
"493 718 LINE",
"617 718 LINE"
);
}
);
width = 985;
}
);
unicode = 1E80;
},
{
glyphname = X;
layers = (
{
layerId = UUID0;
paths = (
{
closed = 1;
nodes = (
"357 331 LINE",
"586 649 LINE",
"475 649 LINE",
"302 398 LINE",
"129 649 LINE",
"18 649 LINE",
"247 331 LINE",
"8 0 LINE",
"119 0 LINE",
"302 264 LINE",
"485 0 LINE",
"596 0 LINE"
);
}
);
width = 604;
},
{
layerId = "206DC524-6BEE-4011-B4E8-F862EC5B14D0";
paths = (
{
closed = 1;
nodes = (
"428 331 LINE",
"657 649 LINE",
"477 649 LINE",
"339 433 LINE",
"200 649 LINE",
"20 649 LINE",
"249 331 LINE",
"10 0 LINE",
"190 0 LINE",
"339 230 LINE",
"487 0 LINE",
"668 0 LINE"
);
}
);
width = 677;
}
);
unicode = 0058;
},
{
glyphname = Y;
layers = (
{
anchors = (
{
name = bottom;
position = "{292, 0}";
},
{
name = top;
position = "{292, 649}";
},
{
name = topleft;
position = "{20, 649}";
}
);
layerId = UUID0;
paths = (
{
closed = 1;
nodes = (
"465 649 LINE",
"292 344 LINE",
"119 649 LINE",
"8 649 LINE",
"243 262 LINE",
"243 0 LINE",
"340 0 LINE",
"340 265 LINE",
"576 649 LINE"
);
}
);
width = 584;
},
{
anchors = (
{
name = bottom;
position = "{322, 0}";
},
{
name = top;
position = "{322, 649}";
},
{
name = topleft;
position = "{20, 649}";
}
);
layerId = "206DC524-6BEE-4011-B4E8-F862EC5B14D0";
paths = (
{
closed = 1;
nodes = (
"458 649 LINE",
"322 395 LINE",
"185 649 LINE",
"8 649 LINE",
"243 260 LINE",
"243 0 LINE",
"399 0 LINE",
"399 262 LINE",
"636 649 LINE"
);
}
);
width = 644;
}
);
unicode = 0059;
},
{
glyphname = Ycircumflex;
layers = (
{
layerId = UUID0;
paths = (
{
closed = 1;
nodes = (
"465 649 LINE",
"292 344 LINE",
"119 649 LINE",
"8 649 LINE",
"243 262 LINE",
"243 0 LINE",
"340 0 LINE",
"340 265 LINE",
"576 649 LINE"
);
},
{
closed = 1;
nodes = (
"230 703 LINE",
"293 790 LINE",
"355 703 LINE",
"413 703 LINE",
"347 830 LINE",
"240 830 LINE",
"172 703 LINE"
);
}
);
width = 584;
},
{
layerId = "206DC524-6BEE-4011-B4E8-F862EC5B14D0";
paths = (
{
closed = 1;
nodes = (
"458 649 LINE",
"322 395 LINE",
"185 649 LINE",
"8 649 LINE",
"243 260 LINE",
"243 0 LINE",
"399 0 LINE",
"399 262 LINE",
"636 649 LINE"
);
},
{
closed = 1;
nodes = (
"414 845 LINE",
"227 845 LINE",
"171 718 LINE",
"269 718 LINE",
"321 805 LINE",
"374 718 LINE",
"472 718 LINE"
);
}
);
width = 644;
}
);
unicode = 0176;
},
{
glyphname = Ydieresis;
layers = (
{
layerId = UUID0;
paths = (
{
closed = 1;
nodes = (
"465 649 LINE",
"292 344 LINE",
"119 649 LINE",
"8 649 LINE",
"243 262 LINE",
"243 0 LINE",
"340 0 LINE",
"340 265 LINE",
"576 649 LINE"
);
},
{
closed = 1;
nodes = (
"250 809 LINE",
"160 809 LINE",
"160 715 LINE",
"250 715 LINE"
);
},
{
closed = 1;
nodes = (
"420 809 LINE",
"330 809 LINE",
"330 715 LINE",
"420 715 LINE"
);
}
);
width = 584;
},
{
layerId = "206DC524-6BEE-4011-B4E8-F862EC5B14D0";
paths = (
{
closed = 1;
nodes = (
"458 649 LINE",
"322 395 LINE",
"185 649 LINE",
"8 649 LINE",
"243 260 LINE",
"243 0 LINE",
"399 0 LINE",
"399 262 LINE",
"636 649 LINE"
);
},
{
closed = 1;
nodes = (
"480 848 LINE",
"354 848 LINE",
"354 730 LINE",
"480 730 LINE"
);
},
{
closed = 1;
nodes = (
"290 848 LINE",
"164 848 LINE",
"164 730 LINE",
"290 730 LINE"
);
}
);
width = 644;
}
);
unicode = 0178;
},
{
glyphname = Z;
layers = (
{
layerId = UUID0;
paths = (
{
closed = 1;
nodes = (
"540 68 LINE",
"152 68 LINE",
"534 581 LINE",
"534 649 LINE",
"50 649 LINE",
"50 581 LINE",
"422 581 LINE",
"40 68 LINE",
"40 0 LINE",
"540 0 LINE"
);
}
);
width = 580;
},
{
layerId = "206DC524-6BEE-4011-B4E8-F862EC5B14D0";
paths = (
{
closed = 1;
nodes = (
"576 112 LINE",
"232 112 LINE",
"570 555 LINE",
"570 649 LINE",
"50 649 LINE",
"50 538 LINE",
"378 538 LINE",
"40 95 LINE",
"40 0 LINE",
"576 0 LINE"
);
}
);
width = 612;
}
);
unicode = 005A;
},
{
glyphname = Zacute;
layers = (
{
layerId = UUID0;
paths = (
{
closed = 1;
nodes = (
"540 68 LINE",
"152 68 LINE",
"534 581 LINE",
"534 649 LINE",
"50 649 LINE",
"50 581 LINE",
"422 581 LINE",
"40 68 LINE",
"40 0 LINE",
"540 0 LINE"
);
},
{
closed = 1;
nodes = (
"303 830 LINE",
"213 703 LINE",
"287 703 LINE",
"412 830 LINE"
);
}
);
width = 580;
},
{
layerId = "206DC524-6BEE-4011-B4E8-F862EC5B14D0";
paths = (
{
closed = 1;
nodes = (
"576 112 LINE",
"232 112 LINE",
"570 555 LINE",
"570 649 LINE",
"50 649 LINE",
"50 538 LINE",
"378 538 LINE",
"40 95 LINE",
"40 0 LINE",
"576 0 LINE"
);
},
{
closed = 1;
nodes = (
"271 845 LINE",
"181 718 LINE",
"305 718 LINE",
"430 845 LINE"
);
}
);
width = 612;
}
);
unicode = 0179;
},
{
glyphname = Zcaron;
layers = (
{
layerId = UUID0;
paths = (
{
closed = 1;
nodes = (
"540 68 LINE",
"152 68 LINE",
"534 581 LINE",
"534 649 LINE",
"50 649 LINE",
"50 581 LINE",
"422 581 LINE",
"40 68 LINE",
"40 0 LINE",
"540 0 LINE"
);
},
{
closed = 1;
nodes = (
"335 703 LINE",
"401 830 LINE",
"343 830 LINE",
"281 743 LINE",
"218 830 LINE",
"160 830 LINE",
"228 703 LINE"
);
}
);
width = 580;
},
{
layerId = "206DC524-6BEE-4011-B4E8-F862EC5B14D0";
paths = (
{
closed = 1;
nodes = (
"576 112 LINE",
"232 112 LINE",
"570 555 LINE",
"570 649 LINE",
"50 649 LINE",
"50 538 LINE",
"378 538 LINE",
"40 95 LINE",
"40 0 LINE",
"576 0 LINE"
);
},
{
closed = 1;
nodes = (
"358 845 LINE",
"306 758 LINE",
"253 845 LINE",
"155 845 LINE",
"213 718 LINE",
"400 718 LINE",
"456 845 LINE"
);
}
);
width = 612;
}
);
unicode = 017D;
},
{
glyphname = Zdotaccent;
layers = (
{
layerId = UUID0;
paths = (
{
closed = 1;
nodes = (
"540 68 LINE",
"152 68 LINE",
"534 581 LINE",
"534 649 LINE",
"50 649 LINE",
"50 581 LINE",
"422 581 LINE",
"40 68 LINE",
"40 0 LINE",
"540 0 LINE"
);
},
{
closed = 1;
nodes = (
"327 830 LINE",
"237 830 LINE",
"237 732 LINE",
"327 732 LINE"
);
}
);
width = 580;
},
{
layerId = "206DC524-6BEE-4011-B4E8-F862EC5B14D0";
paths = (
{
closed = 1;
nodes = (
"576 112 LINE",
"232 112 LINE",
"570 555 LINE",
"570 649 LINE",
"50 649 LINE",
"50 538 LINE",
"378 538 LINE",
"40 95 LINE",
"40 0 LINE",
"576 0 LINE"
);
},
{
closed = 1;
nodes = (
"379 845 LINE",
"233 845 LINE",
"233 730 LINE",
"379 730 LINE"
);
}
);
width = 612;
}
);
unicode = 017B;
},
{
glyphname = Eth.001;
layers = (
{
layerId = UUID0;
paths = (
{
closed = 1;
nodes = (
"84 0 LINE",
"313 0 LINE SMOOTH",
"494 0 OFFCURVE",
"585 59 OFFCURVE",
"585 176 CURVE SMOOTH",
"585 463 LINE SMOOTH",
"585 587 OFFCURVE",
"494 649 OFFCURVE",
"312 649 CURVE SMOOTH",
"84 649 LINE",
"84 369 LINE",
"20 369 LINE",
"20 301 LINE",
"84 301 LINE"
);
},
{
closed = 1;
nodes = (
"287 369 LINE",
"181 369 LINE",
"181 582 LINE",
"311 582 LINE SMOOTH",
"362 582 OFFCURVE",
"398 577 OFFCURVE",
"435 562 CURVE",
"471 546 OFFCURVE",
"492 513 OFFCURVE",
"492 464 CURVE SMOOTH",
"492 178 LINE SMOOTH",
"492 103 OFFCURVE",
"430 66 OFFCURVE",
"306 66 CURVE SMOOTH",
"181 66 LINE",
"181 301 LINE",
"287 301 LINE"
);
}
);
width = 649;
},
{
layerId = "206DC524-6BEE-4011-B4E8-F862EC5B14D0";
width = 600;
}
);
},
{
glyphname = K.alt;
layers = (
{
layerId = UUID0;
paths = (
{
closed = 1;
nodes = (
"298 349 LINE",
"590 649 LINE",
"473 649 LINE",
"183 345 LINE",
"493 0 LINE",
"619 0 LINE"
);
},
{
closed = 1;
nodes = (
"181 649 LINE",
"84 649 LINE",
"84 0 LINE",
"181 0 LINE"
);
}
);
width = 609;
},
{
layerId = "206DC524-6BEE-4011-B4E8-F862EC5B14D0";
paths = (
{
closed = 1;
nodes = (
"410 347 LINE",
"656 649 LINE",
"473 649 LINE",
"230 344 LINE",
"493 0 LINE",
"683 0 LINE"
);
},
{
closed = 1;
nodes = (
"226 649 LINE",
"70 649 LINE",
"70 0 LINE",
"226 0 LINE"
);
}
);
width = 682;
}
);
},
{
glyphname = Kcommaaccent.alt;
layers = (
{
layerId = UUID0;
paths = (
{
closed = 1;
nodes = (
"298 349 LINE",
"590 649 LINE",
"473 649 LINE",
"183 345 LINE",
"493 0 LINE",
"619 0 LINE"
);
},
{
closed = 1;
nodes = (
"181 649 LINE",
"84 649 LINE",
"84 0 LINE",
"181 0 LINE"
);
},
{
closed = 1;
nodes = (
"290 -40 LINE",
"244 -190 LINE",
"308 -190 LINE",
"391 -40 LINE"
);
}
);
width = 609;
},
{
layerId = "206DC524-6BEE-4011-B4E8-F862EC5B14D0";
paths = (
{
closed = 1;
nodes = (
"410 347 LINE",
"656 649 LINE",
"473 649 LINE",
"230 344 LINE",
"493 0 LINE",
"683 0 LINE"
);
},
{
closed = 1;
nodes = (
"226 649 LINE",
"70 649 LINE",
"70 0 LINE",
"226 0 LINE"
);
},
{
closed = 1;
nodes = (
"298 -46 LINE",
"252 -208 LINE",
"348 -208 LINE",
"431 -46 LINE"
);
}
);
width = 682;
}
);
},
{
glyphname = Q.alt;
layers = (
{
layerId = UUID0;
paths = (
{
closed = 1;
nodes = (
"613 474 LINE",
"613 597 OFFCURVE",
"521 659 OFFCURVE",
"338 659 CURVE SMOOTH",
"157 659 OFFCURVE",
"66 597 OFFCURVE",
"66 473 CURVE SMOOTH",
"66 166 LINE SMOOTH",
"66 49 OFFCURVE",
"157 -10 OFFCURVE",
"338 -10 CURVE SMOOTH",
"405 -10 OFFCURVE",
"459 -2 OFFCURVE",
"518 22 CURVE SMOOTH",
"577 45 OFFCURVE",
"613 95 OFFCURVE",
"613 166 CURVE SMOOTH"
);
},
{
closed = 1;
nodes = (
"519 167 LINE",
"519 92 OFFCURVE",
"459 55 OFFCURVE",
"340 55 CURVE SMOOTH",
"219 55 OFFCURVE",
"159 92 OFFCURVE",
"159 167 CURVE SMOOTH",
"159 476 LINE SMOOTH",
"159 525 OFFCURVE",
"180 558 OFFCURVE",
"216 575 CURVE SMOOTH",
"252 591 OFFCURVE",
"288 596 OFFCURVE",
"339 596 CURVE SMOOTH",
"459 596 OFFCURVE",
"519 556 OFFCURVE",
"519 476 CURVE SMOOTH"
);
},
{
closed = 1;
nodes = (
"678 -124 LINE",
"678 -55 LINE",
"312 -55 LINE",
"312 -124 LINE"
);
}
);
width = 679;
},
{
layerId = "206DC524-6BEE-4011-B4E8-F862EC5B14D0";
paths = (
{
closed = 1;
nodes = (
"672 462 LINE",
"672 496 OFFCURVE",
"665 526 OFFCURVE",
"650 551 CURVE SMOOTH",
"621 601 OFFCURVE",
"579 624 OFFCURVE",
"519 641 CURVE SMOOTH",
"459 657 OFFCURVE",
"416 659 OFFCURVE",
"363 659 CURVE SMOOTH",
"337 659 OFFCURVE",
"312 658 OFFCURVE",
"289 656 CURVE SMOOTH",
"242 652 OFFCURVE",
"175 635 OFFCURVE",
"133 608 CURVE SMOOTH",
"91 581 OFFCURVE",
"56 529 OFFCURVE",
"56 462 CURVE SMOOTH",
"56 178 LINE SMOOTH",
"56 99 OFFCURVE",
"100 45 OFFCURVE",
"169 21 CURVE SMOOTH",
"237 -3 OFFCURVE",
"294 -10 OFFCURVE",
"363 -10 CURVE SMOOTH",
"388 -10 OFFCURVE",
"417 -8 OFFCURVE",
"451 -5 CURVE SMOOTH",
"485 -2 OFFCURVE",
"508 0 OFFCURVE",
"519 0 CURVE SMOOTH",
"732 0 LINE",
"732 112 LINE",
"590 112 LINE",
"645 129 OFFCURVE",
"672 187 OFFCURVE",
"672 285 CURVE SMOOTH"
);
},
{
closed = 1;
nodes = (
"516 178 LINE",
"516 145 OFFCURVE",
"499 122 OFFCURVE",
"467 113 CURVE SMOOTH",
"435 104 OFFCURVE",
"409 101 OFFCURVE",
"365 101 CURVE SMOOTH",
"321 101 OFFCURVE",
"295 104 OFFCURVE",
"263 113 CURVE SMOOTH",
"230 122 OFFCURVE",
"212 145 OFFCURVE",
"212 178 CURVE SMOOTH",
"212 463 LINE SMOOTH",
"212 527 OFFCURVE",
"263 548 OFFCURVE",
"364 548 CURVE SMOOTH",
"464 548 OFFCURVE",
"516 526 OFFCURVE",
"516 463 CURVE SMOOTH"
);
}
);
width = 740;
}
);
},
{
glyphname = a;
layers = (
{
anchors = (
{
name = bottom;
position = "{269, 0}";
},
{
name = ogonek;
position = "{484, 10}";
},
{
name = top;
position = "{269, 484}";
}
);
layerId = UUID0;
paths = (
{
closed = 1;
nodes = (
"460 342 LINE",
"460 466 OFFCURVE",
"429 494 OFFCURVE",
"266 494 CURVE SMOOTH",
"213 494 OFFCURVE",
"153 491 OFFCURVE",
"87 485 CURVE",
"87 419 LINE",
"148 427 OFFCURVE",
"204 431 OFFCURVE",
"253 431 CURVE SMOOTH",
"344 431 OFFCURVE",
"370 416 OFFCURVE",
"370 363 CURVE SMOOTH",
"370 286 LINE",
"225 286 LINE SMOOTH",
"88 286 OFFCURVE",
"50 252 OFFCURVE",
"50 144 CURVE SMOOTH",
"50 20 OFFCURVE",
"94 -10 OFFCURVE",
"227 -10 CURVE SMOOTH",
"317 -10 OFFCURVE",
"366 9 OFFCURVE",
"373 46 CURVE",
"373 0 LINE",
"460 0 LINE"
);
},
{
closed = 1;
nodes = (
"370 98 LINE",
"370 75 OFFCURVE",
"354 62 OFFCURVE",
"325 56 CURVE SMOOTH",
"296 50 OFFCURVE",
"277 49 OFFCURVE",
"242 49 CURVE SMOOTH",
"224 49 LINE SMOOTH",
"153 49 OFFCURVE",
"138 73 OFFCURVE",
"138 141 CURVE SMOOTH",
"138 217 OFFCURVE",
"148 230 OFFCURVE",
"231 230 CURVE SMOOTH",
"370 230 LINE"
);
}
);
width = 538;
},
{
anchors = (
{
name = bottom;
position = "{282, 0}";
},
{
name = ogonek;
position = "{508, 10}";
},
{
name = top;
position = "{282, 484}";
}
);
layerId = "206DC524-6BEE-4011-B4E8-F862EC5B14D0";
paths = (
{
closed = 1;
nodes = (
"500 333 LINE",
"500 461 OFFCURVE",
"441 494 OFFCURVE",
"262 494 CURVE SMOOTH",
"194 494 OFFCURVE",
"132 491 OFFCURVE",
"77 484 CURVE",
"77 392 LINE",
"149 400 OFFCURVE",
"206 404 OFFCURVE",
"247 404 CURVE SMOOTH",
"335 404 OFFCURVE",
"354 390 OFFCURVE",
"354 331 CURVE SMOOTH",
"354 298 LINE",
"190 298 LINE SMOOTH",
"77 298 OFFCURVE",
"39 260 OFFCURVE",
"39 145 CURVE SMOOTH",
"39 18 OFFCURVE",
"70 -10 OFFCURVE",
"201 -10 CURVE SMOOTH",
"254 -10 OFFCURVE",
"291 -6 OFFCURVE",
"311 3 CURVE SMOOTH",
"331 11 OFFCURVE",
"346 25 OFFCURVE",
"357 44 CURVE",
"357 0 LINE",
"500 0 LINE"
);
},
{
closed = 1;
nodes = (
"354 124 LINE",
"354 115 OFFCURVE",
"353 108 OFFCURVE",
"350 103 CURVE SMOOTH",
"345 92 OFFCURVE",
"340 87 OFFCURVE",
"321 84 CURVE SMOOTH",
"302 81 OFFCURVE",
"291 81 OFFCURVE",
"258 81 CURVE SMOOTH",
"190 81 OFFCURVE",
"182 85 OFFCURVE",
"182 148 CURVE SMOOTH",
"182 212 OFFCURVE",
"190 218 OFFCURVE",
"254 218 CURVE SMOOTH",
"354 218 LINE"
);
}
);
width = 564;
}
);
unicode = 0061;
},
{
glyphname = adieresis;
layers = (
{
layerId = UUID0;
paths = (
{
closed = 1;
nodes = (
"460 342 LINE",
"460 466 OFFCURVE",
"429 494 OFFCURVE",
"266 494 CURVE SMOOTH",
"213 494 OFFCURVE",
"153 491 OFFCURVE",
"87 485 CURVE",
"87 419 LINE",
"148 427 OFFCURVE",
"204 431 OFFCURVE",
"253 431 CURVE SMOOTH",
"344 431 OFFCURVE",
"370 416 OFFCURVE",
"370 363 CURVE SMOOTH",
"370 286 LINE",
"225 286 LINE SMOOTH",
"88 286 OFFCURVE",
"50 252 OFFCURVE",
"50 144 CURVE SMOOTH",
"50 20 OFFCURVE",
"94 -10 OFFCURVE",
"227 -10 CURVE SMOOTH",
"317 -10 OFFCURVE",
"366 9 OFFCURVE",
"373 46 CURVE",
"373 0 LINE",
"460 0 LINE"
);
},
{
closed = 1;
nodes = (
"370 98 LINE",
"370 75 OFFCURVE",
"354 62 OFFCURVE",
"325 56 CURVE SMOOTH",
"296 50 OFFCURVE",
"277 49 OFFCURVE",
"242 49 CURVE SMOOTH",
"224 49 LINE SMOOTH",
"153 49 OFFCURVE",
"138 73 OFFCURVE",
"138 141 CURVE SMOOTH",
"138 217 OFFCURVE",
"148 230 OFFCURVE",
"231 230 CURVE SMOOTH",
"370 230 LINE"
);
},
{
closed = 1;
nodes = (
"220 659 LINE",
"130 659 LINE",
"130 565 LINE",
"220 565 LINE"
);
},
{
closed = 1;
nodes = (
"390 659 LINE",
"300 659 LINE",
"300 565 LINE",
"390 565 LINE"
);
}
);
width = 538;
},
{
layerId = "206DC524-6BEE-4011-B4E8-F862EC5B14D0";
paths = (
{
closed = 1;
nodes = (
"500 333 LINE",
"500 461 OFFCURVE",
"441 494 OFFCURVE",
"262 494 CURVE SMOOTH",
"194 494 OFFCURVE",
"132 491 OFFCURVE",
"77 484 CURVE",
"77 392 LINE",
"149 400 OFFCURVE",
"206 404 OFFCURVE",
"247 404 CURVE SMOOTH",
"335 404 OFFCURVE",
"354 390 OFFCURVE",
"354 331 CURVE SMOOTH",
"354 298 LINE",
"190 298 LINE SMOOTH",
"77 298 OFFCURVE",
"39 260 OFFCURVE",
"39 145 CURVE SMOOTH",
"39 18 OFFCURVE",
"70 -10 OFFCURVE",
"201 -10 CURVE SMOOTH",
"254 -10 OFFCURVE",
"291 -6 OFFCURVE",
"311 3 CURVE SMOOTH",
"331 11 OFFCURVE",
"346 25 OFFCURVE",
"357 44 CURVE",
"357 0 LINE",
"500 0 LINE"
);
},
{
closed = 1;
nodes = (
"354 124 LINE",
"354 115 OFFCURVE",
"353 108 OFFCURVE",
"350 103 CURVE SMOOTH",
"345 92 OFFCURVE",
"340 87 OFFCURVE",
"321 84 CURVE SMOOTH",
"302 81 OFFCURVE",
"291 81 OFFCURVE",
"258 81 CURVE SMOOTH",
"190 81 OFFCURVE",
"182 85 OFFCURVE",
"182 148 CURVE SMOOTH",
"182 212 OFFCURVE",
"190 218 OFFCURVE",
"254 218 CURVE SMOOTH",
"354 218 LINE"
);
},
{
closed = 1;
nodes = (
"440 683 LINE",
"314 683 LINE",
"314 565 LINE",
"440 565 LINE"
);
},
{
closed = 1;
nodes = (
"250 683 LINE",
"124 683 LINE",
"124 565 LINE",
"250 565 LINE"
);
}
);
width = 564;
}
);
unicode = 00E4;
},
{
glyphname = amacron;
layers = (
{
layerId = UUID0;
paths = (
{
closed = 1;
nodes = (
"460 342 LINE",
"460 466 OFFCURVE",
"429 494 OFFCURVE",
"266 494 CURVE SMOOTH",
"213 494 OFFCURVE",
"153 491 OFFCURVE",
"87 485 CURVE",
"87 419 LINE",
"148 427 OFFCURVE",
"204 431 OFFCURVE",
"253 431 CURVE SMOOTH",
"344 431 OFFCURVE",
"370 416 OFFCURVE",
"370 363 CURVE SMOOTH",
"370 286 LINE",
"225 286 LINE SMOOTH",
"88 286 OFFCURVE",
"50 252 OFFCURVE",
"50 144 CURVE SMOOTH",
"50 20 OFFCURVE",
"94 -10 OFFCURVE",
"227 -10 CURVE SMOOTH",
"317 -10 OFFCURVE",
"366 9 OFFCURVE",
"373 46 CURVE",
"373 0 LINE",
"460 0 LINE"
);
},
{
closed = 1;
nodes = (
"370 98 LINE",
"370 75 OFFCURVE",
"354 62 OFFCURVE",
"325 56 CURVE SMOOTH",
"296 50 OFFCURVE",
"277 49 OFFCURVE",
"242 49 CURVE SMOOTH",
"224 49 LINE SMOOTH",
"153 49 OFFCURVE",
"138 73 OFFCURVE",
"138 141 CURVE SMOOTH",
"138 217 OFFCURVE",
"148 230 OFFCURVE",
"231 230 CURVE SMOOTH",
"370 230 LINE"
);
},
{
closed = 1;
nodes = (
"378 649 LINE",
"160 649 LINE",
"160 590 LINE",
"378 590 LINE"
);
}
);
width = 538;
},
{
layerId = "206DC524-6BEE-4011-B4E8-F862EC5B14D0";
paths = (
{
closed = 1;
nodes = (
"500 333 LINE",
"500 461 OFFCURVE",
"441 494 OFFCURVE",
"262 494 CURVE SMOOTH",
"194 494 OFFCURVE",
"132 491 OFFCURVE",
"77 484 CURVE",
"77 392 LINE",
"149 400 OFFCURVE",
"206 404 OFFCURVE",
"247 404 CURVE SMOOTH",
"335 404 OFFCURVE",
"354 390 OFFCURVE",
"354 331 CURVE SMOOTH",
"354 298 LINE",
"190 298 LINE SMOOTH",
"77 298 OFFCURVE",
"39 260 OFFCURVE",
"39 145 CURVE SMOOTH",
"39 18 OFFCURVE",
"70 -10 OFFCURVE",
"201 -10 CURVE SMOOTH",
"254 -10 OFFCURVE",
"291 -6 OFFCURVE",
"311 3 CURVE SMOOTH",
"331 11 OFFCURVE",
"346 25 OFFCURVE",
"357 44 CURVE",
"357 0 LINE",
"500 0 LINE"
);
},
{
closed = 1;
nodes = (
"354 124 LINE",
"354 115 OFFCURVE",
"353 108 OFFCURVE",
"350 103 CURVE SMOOTH",
"345 92 OFFCURVE",
"340 87 OFFCURVE",
"321 84 CURVE SMOOTH",
"302 81 OFFCURVE",
"291 81 OFFCURVE",
"258 81 CURVE SMOOTH",
"190 81 OFFCURVE",
"182 85 OFFCURVE",
"182 148 CURVE SMOOTH",
"182 212 OFFCURVE",
"190 218 OFFCURVE",
"254 218 CURVE SMOOTH",
"354 218 LINE"
);
},
{
closed = 1;
nodes = (
"421 649 LINE",
"143 649 LINE",
"143 560 LINE",
"421 560 LINE"
);
}
);
width = 564;
}
);
unicode = 0101;
},
{
glyphname = aogonek;
layers = (
{
layerId = UUID0;
paths = (
{
closed = 1;
nodes = (
"460 342 LINE",
"460 466 OFFCURVE",
"429 494 OFFCURVE",
"266 494 CURVE SMOOTH",
"213 494 OFFCURVE",
"153 491 OFFCURVE",
"87 485 CURVE",
"87 419 LINE",
"148 427 OFFCURVE",
"204 431 OFFCURVE",
"253 431 CURVE SMOOTH",
"344 431 OFFCURVE",
"370 416 OFFCURVE",
"370 363 CURVE SMOOTH",
"370 286 LINE",
"225 286 LINE SMOOTH",
"88 286 OFFCURVE",
"50 252 OFFCURVE",
"50 144 CURVE SMOOTH",
"50 20 OFFCURVE",
"94 -10 OFFCURVE",
"227 -10 CURVE SMOOTH",
"317 -10 OFFCURVE",
"366 9 OFFCURVE",
"373 46 CURVE",
"373 0 LINE",
"349 -37 OFFCURVE",
"337 -73 OFFCURVE",
"337 -106 CURVE SMOOTH",
"337 -163 OFFCURVE",
"369 -186 OFFCURVE",
"436 -186 CURVE SMOOTH",
"455 -186 OFFCURVE",
"472 -183 OFFCURVE",
"486 -176 CURVE",
"486 -123 LINE",
"471 -128 OFFCURVE",
"460 -130 OFFCURVE",
"455 -130 CURVE SMOOTH",
"429 -130 OFFCURVE",
"416 -119 OFFCURVE",
"416 -97 CURVE SMOOTH",
"416 -64 OFFCURVE",
"431 -32 OFFCURVE",
"460 0 CURVE"
);
},
{
closed = 1;
nodes = (
"370 96 LINE",
"370 73 OFFCURVE",
"354 60 OFFCURVE",
"325 54 CURVE SMOOTH",
"296 48 OFFCURVE",
"277 47 OFFCURVE",
"242 47 CURVE SMOOTH",
"224 47 LINE SMOOTH",
"153 47 OFFCURVE",
"138 72 OFFCURVE",
"138 141 CURVE SMOOTH",
"138 217 OFFCURVE",
"148 230 OFFCURVE",
"231 230 CURVE SMOOTH",
"370 230 LINE"
);
}
);
width = 538;
},
{
layerId = "206DC524-6BEE-4011-B4E8-F862EC5B14D0";
paths = (
{
closed = 1;
nodes = (
"479 -186 OFFCURVE",
"502 -183 OFFCURVE",
"516 -176 CURVE",
"516 -109 LINE",
"504 -113 OFFCURVE",
"494 -115 OFFCURVE",
"486 -115 CURVE SMOOTH",
"457 -115 OFFCURVE",
"448 -104 OFFCURVE",
"448 -83 CURVE SMOOTH",
"448 -52 OFFCURVE",
"464 -31 OFFCURVE",
"500 0 CURVE",
"500 333 LINE SMOOTH",
"500 461 OFFCURVE",
"441 494 OFFCURVE",
"262 494 CURVE SMOOTH",
"194 494 OFFCURVE",
"132 491 OFFCURVE",
"77 484 CURVE",
"77 392 LINE",
"149 400 OFFCURVE",
"206 404 OFFCURVE",
"247 404 CURVE SMOOTH",
"335 404 OFFCURVE",
"354 390 OFFCURVE",
"354 331 CURVE SMOOTH",
"354 298 LINE",
"190 298 LINE SMOOTH",
"77 298 OFFCURVE",
"39 260 OFFCURVE",
"39 145 CURVE SMOOTH",
"39 18 OFFCURVE",
"70 -10 OFFCURVE",
"201 -10 CURVE SMOOTH",
"254 -10 OFFCURVE",
"291 -6 OFFCURVE",
"311 3 CURVE SMOOTH",
"331 11 OFFCURVE",
"346 25 OFFCURVE",
"357 44 CURVE",
"357 0 LINE SMOOTH",
"357 -10 OFFCURVE",
"355 -27 OFFCURVE",
"352 -50 CURVE SMOOTH",
"349 -74 OFFCURVE",
"347 -93 OFFCURVE",
"347 -106 CURVE SMOOTH",
"347 -163 OFFCURVE",
"379 -186 OFFCURVE",
"446 -186 CURVE SMOOTH"
);
},
{
closed = 1;
nodes = (
"354 124 LINE",
"354 115 OFFCURVE",
"353 108 OFFCURVE",
"350 103 CURVE SMOOTH",
"345 92 OFFCURVE",
"340 87 OFFCURVE",
"321 84 CURVE SMOOTH",
"302 81 OFFCURVE",
"291 81 OFFCURVE",
"258 81 CURVE SMOOTH",
"190 81 OFFCURVE",
"182 85 OFFCURVE",
"182 148 CURVE SMOOTH",
"182 212 OFFCURVE",
"190 218 OFFCURVE",
"254 218 CURVE SMOOTH",
"354 218 LINE"
);
}
);
width = 564;
}
);
unicode = 0105;
},
{
glyphname = aring;
layers = (
{
layerId = UUID0;
paths = (
{
closed = 1;
nodes = (
"460 342 LINE",
"460 466 OFFCURVE",
"429 494 OFFCURVE",
"266 494 CURVE SMOOTH",
"213 494 OFFCURVE",
"153 491 OFFCURVE",
"87 485 CURVE",
"87 419 LINE",
"148 427 OFFCURVE",
"204 431 OFFCURVE",
"253 431 CURVE SMOOTH",
"344 431 OFFCURVE",
"370 416 OFFCURVE",
"370 363 CURVE SMOOTH",
"370 286 LINE",
"225 286 LINE SMOOTH",
"88 286 OFFCURVE",
"50 252 OFFCURVE",
"50 144 CURVE SMOOTH",
"50 20 OFFCURVE",
"94 -10 OFFCURVE",
"227 -10 CURVE SMOOTH",
"317 -10 OFFCURVE",
"366 9 OFFCURVE",
"373 46 CURVE",
"373 0 LINE",
"460 0 LINE"
);
},
{
closed = 1;
nodes = (
"370 98 LINE",
"370 75 OFFCURVE",
"354 62 OFFCURVE",
"325 56 CURVE SMOOTH",
"296 50 OFFCURVE",
"277 49 OFFCURVE",
"242 49 CURVE SMOOTH",
"224 49 LINE SMOOTH",
"153 49 OFFCURVE",
"138 73 OFFCURVE",
"138 141 CURVE SMOOTH",
"138 217 OFFCURVE",
"148 230 OFFCURVE",
"231 230 CURVE SMOOTH",
"370 230 LINE"
);
},
{
closed = 1;
nodes = (
"402 663 LINE",
"402 682 OFFCURVE",
"400 699 OFFCURVE",
"395 712 CURVE SMOOTH",
"386 739 OFFCURVE",
"374 751 OFFCURVE",
"349 759 CURVE SMOOTH",
"324 766 OFFCURVE",
"305 767 OFFCURVE",
"268 767 CURVE SMOOTH",
"220 767 OFFCURVE",
"200 765 OFFCURVE",
"173 753 CURVE SMOOTH",
"145 740 OFFCURVE",
"135 711 OFFCURVE",
"135 663 CURVE SMOOTH",
"135 651 LINE SMOOTH",
"135 606 OFFCURVE",
"145 579 OFFCURVE",
"173 567 CURVE SMOOTH",
"200 555 OFFCURVE",
"220 553 OFFCURVE",
"268 553 CURVE SMOOTH",
"316 553 OFFCURVE",
"337 555 OFFCURVE",
"365 567 CURVE SMOOTH",
"392 579 OFFCURVE",
"402 606 OFFCURVE",
"402 651 CURVE SMOOTH"
);
},
{
closed = 1;
nodes = (
"339 644 LINE",
"339 600 OFFCURVE",
"323 595 OFFCURVE",
"268 595 CURVE SMOOTH",
"213 595 OFFCURVE",
"198 600 OFFCURVE",
"198 644 CURVE SMOOTH",
"198 671 LINE SMOOTH",
"198 719 OFFCURVE",
"213 725 OFFCURVE",
"268 725 CURVE SMOOTH",
"323 725 OFFCURVE",
"339 719 OFFCURVE",
"339 671 CURVE SMOOTH"
);
}
);
width = 538;
},
{
layerId = "206DC524-6BEE-4011-B4E8-F862EC5B14D0";
paths = (
{
closed = 1;
nodes = (
"500 333 LINE",
"500 461 OFFCURVE",
"441 494 OFFCURVE",
"262 494 CURVE SMOOTH",
"194 494 OFFCURVE",
"132 491 OFFCURVE",
"77 484 CURVE",
"77 392 LINE",
"149 400 OFFCURVE",
"206 404 OFFCURVE",
"247 404 CURVE SMOOTH",
"335 404 OFFCURVE",
"354 390 OFFCURVE",
"354 331 CURVE SMOOTH",
"354 298 LINE",
"190 298 LINE SMOOTH",
"77 298 OFFCURVE",
"39 260 OFFCURVE",
"39 145 CURVE SMOOTH",
"39 18 OFFCURVE",
"70 -10 OFFCURVE",
"201 -10 CURVE SMOOTH",
"254 -10 OFFCURVE",
"291 -6 OFFCURVE",
"311 3 CURVE SMOOTH",
"331 11 OFFCURVE",
"346 25 OFFCURVE",
"357 44 CURVE",
"357 0 LINE",
"500 0 LINE"
);
},
{
closed = 1;
nodes = (
"354 124 LINE",
"354 115 OFFCURVE",
"353 108 OFFCURVE",
"350 103 CURVE SMOOTH",
"345 92 OFFCURVE",
"340 87 OFFCURVE",
"321 84 CURVE SMOOTH",
"302 81 OFFCURVE",
"291 81 OFFCURVE",
"258 81 CURVE SMOOTH",
"190 81 OFFCURVE",
"182 85 OFFCURVE",
"182 148 CURVE SMOOTH",
"182 212 OFFCURVE",
"190 218 OFFCURVE",
"254 218 CURVE SMOOTH",
"354 218 LINE"
);
},
{
closed = 1;
nodes = (
"431 663 LINE",
"431 682 OFFCURVE",
"428 699 OFFCURVE",
"423 712 CURVE SMOOTH",
"411 739 OFFCURVE",
"397 751 OFFCURVE",
"369 759 CURVE SMOOTH",
"340 767 OFFCURVE",
"321 767 OFFCURVE",
"282 767 CURVE SMOOTH",
"263 767 OFFCURVE",
"247 767 OFFCURVE",
"235 766 CURVE SMOOTH",
"211 765 OFFCURVE",
"178 757 OFFCURVE",
"162 743 CURVE SMOOTH",
"146 729 OFFCURVE",
"133 702 OFFCURVE",
"133 663 CURVE SMOOTH",
"133 651 LINE SMOOTH",
"133 607 OFFCURVE",
"147 579 OFFCURVE",
"179 567 CURVE SMOOTH",
"210 555 OFFCURVE",
"234 553 OFFCURVE",
"282 553 CURVE SMOOTH",
"330 553 OFFCURVE",
"354 555 OFFCURVE",
"386 567 CURVE SMOOTH",
"417 579 OFFCURVE",
"431 607 OFFCURVE",
"431 651 CURVE SMOOTH"
);
},
{
closed = 1;
nodes = (
"352 644 LINE",
"352 612 OFFCURVE",
"337 605 OFFCURVE",
"282 605 CURVE SMOOTH",
"227 605 OFFCURVE",
"212 612 OFFCURVE",
"212 644 CURVE SMOOTH",
"212 671 LINE SMOOTH",
"212 710 OFFCURVE",
"221 715 OFFCURVE",
"282 715 CURVE SMOOTH",
"343 715 OFFCURVE",
"352 710 OFFCURVE",
"352 671 CURVE SMOOTH"
);
}
);
width = 564;
}
);
unicode = 00E5;
},
{
glyphname = ae;
layers = (
{
layerId = UUID0;
paths = (
{
closed = 1;
nodes = (
"781 329 LINE",
"781 453 OFFCURVE",
"723 494 OFFCURVE",
"584 494 CURVE SMOOTH",
"515 494 OFFCURVE",
"464 482 OFFCURVE",
"431 459 CURVE",
"405 482 OFFCURVE",
"352 494 OFFCURVE",
"273 494 CURVE SMOOTH",
"199 494 OFFCURVE",
"137 489 OFFCURVE",
"87 480 CURVE",
"87 414 LINE",
"130 425 OFFCURVE",
"188 431 OFFCURVE",
"261 431 CURVE SMOOTH",
"345 431 OFFCURVE",
"375 412 OFFCURVE",
"375 361 CURVE SMOOTH",
"375 286 LINE",
"225 286 LINE SMOOTH",
"86 286 OFFCURVE",
"50 252 OFFCURVE",
"50 140 CURVE SMOOTH",
"50 19 OFFCURVE",
"90 -10 OFFCURVE",
"230 -10 CURVE SMOOTH",
"339 -10 OFFCURVE",
"399 9 OFFCURVE",
"408 47 CURVE",
"444 9 OFFCURVE",
"504 -10 OFFCURVE",
"589 -10 CURVE SMOOTH",
"644 -10 OFFCURVE",
"701 -3 OFFCURVE",
"762 10 CURVE",
"762 79 LINE",
"699 63 OFFCURVE",
"647 55 OFFCURVE",
"604 55 CURVE SMOOTH",
"509 55 OFFCURVE",
"466 81 OFFCURVE",
"466 149 CURVE SMOOTH",
"466 222 LINE",
"781 222 LINE"
);
},
{
closed = 1;
nodes = (
"466 281 LINE",
"466 357 LINE SMOOTH",
"466 417 OFFCURVE",
"501 434 OFFCURVE",
"580 434 CURVE SMOOTH",
"663 434 OFFCURVE",
"691 417 OFFCURVE",
"691 357 CURVE SMOOTH",
"691 281 LINE"
);
},
{
closed = 1;
nodes = (
"375 109 LINE",
"375 97 OFFCURVE",
"372 87 OFFCURVE",
"367 79 CURVE SMOOTH",
"355 63 OFFCURVE",
"343 56 OFFCURVE",
"314 52 CURVE SMOOTH",
"285 47 OFFCURVE",
"271 47 OFFCURVE",
"234 47 CURVE SMOOTH",
"150 47 OFFCURVE",
"138 69 OFFCURVE",
"138 141 CURVE SMOOTH",
"138 217 OFFCURVE",
"148 230 OFFCURVE",
"231 230 CURVE SMOOTH",
"375 230 LINE"
);
}
);
width = 840;
},
{
layerId = "206DC524-6BEE-4011-B4E8-F862EC5B14D0";
paths = (
{
closed = 1;
nodes = (
"797 321 LINE",
"797 450 OFFCURVE",
"726 494 OFFCURVE",
"578 494 CURVE SMOOTH",
"509 494 OFFCURVE",
"458 484 OFFCURVE",
"423 463 CURVE",
"390 484 OFFCURVE",
"337 494 OFFCURVE",
"262 494 CURVE SMOOTH",
"194 494 OFFCURVE",
"132 491 OFFCURVE",
"77 484 CURVE",
"77 392 LINE",
"149 400 OFFCURVE",
"206 404 OFFCURVE",
"247 404 CURVE SMOOTH",
"335 404 OFFCURVE",
"354 390 OFFCURVE",
"354 331 CURVE SMOOTH",
"354 298 LINE",
"190 298 LINE SMOOTH",
"77 298 OFFCURVE",
"39 260 OFFCURVE",
"39 145 CURVE SMOOTH",
"39 18 OFFCURVE",
"70 -10 OFFCURVE",
"201 -10 CURVE SMOOTH",
"312 -10 OFFCURVE",
"343 7 OFFCURVE",
"374 67 CURVE",
"406 16 OFFCURVE",
"480 -10 OFFCURVE",
"596 -10 CURVE SMOOTH",
"660 -10 OFFCURVE",
"723 -4 OFFCURVE",
"784 9 CURVE",
"784 102 LINE",
"724 88 OFFCURVE",
"671 81 OFFCURVE",
"624 81 CURVE SMOOTH",
"517 81 OFFCURVE",
"488 104 OFFCURVE",
"488 159 CURVE SMOOTH",
"488 203 LINE",
"797 203 LINE"
);
},
{
closed = 1;
nodes = (
"354 124 LINE",
"354 115 OFFCURVE",
"353 108 OFFCURVE",
"350 103 CURVE SMOOTH",
"345 92 OFFCURVE",
"340 87 OFFCURVE",
"321 84 CURVE SMOOTH",
"302 81 OFFCURVE",
"291 81 OFFCURVE",
"258 81 CURVE SMOOTH",
"190 81 OFFCURVE",
"182 85 OFFCURVE",
"182 148 CURVE SMOOTH",
"182 212 OFFCURVE",
"190 218 OFFCURVE",
"254 218 CURVE SMOOTH",
"354 218 LINE"
);
},
{
closed = 1;
nodes = (
"488 286 LINE",
"488 356 LINE SMOOTH",
"488 372 OFFCURVE",
"494 384 OFFCURVE",
"506 392 CURVE SMOOTH",
"517 400 OFFCURVE",
"541 404 OFFCURVE",
"576 404 CURVE SMOOTH",
"640 404 OFFCURVE",
"659 388 OFFCURVE",
"659 356 CURVE SMOOTH",
"659 286 LINE"
);
}
);
width = 845;
}
);
unicode = 00E6;
},
{
glyphname = b;
layers = (
{
layerId = UUID0;
paths = (
{
closed = 1;
nodes = (
"519 357 LINE",
"519 448 OFFCURVE",
"452 494 OFFCURVE",
"319 494 CURVE SMOOTH",
"270 494 OFFCURVE",
"234 489 OFFCURVE",
"209 479 CURVE SMOOTH",
"184 468 OFFCURVE",
"170 455 OFFCURVE",
"167 440 CURVE",
"167 453 OFFCURVE",
"167 472 OFFCURVE",
"168 498 CURVE SMOOTH",
"168 523 OFFCURVE",
"168 542 OFFCURVE",
"168 555 CURVE SMOOTH",
"168 700 LINE",
"78 700 LINE",
"78 158 LINE SMOOTH",
"78 85 OFFCURVE",
"99 37 OFFCURVE",
"143 16 CURVE SMOOTH",
"187 -5 OFFCURVE",
"225 -10 OFFCURVE",
"294 -10 CURVE SMOOTH",
"321 -10 OFFCURVE",
"343 -9 OFFCURVE",
"362 -7 CURVE SMOOTH",
"399 -4 OFFCURVE",
"448 9 OFFCURVE",
"474 33 CURVE SMOOTH",
"500 56 OFFCURVE",
"519 99 OFFCURVE",
"519 158 CURVE SMOOTH"
);
},
{
closed = 1;
nodes = (
"427 145 LINE",
"427 64 OFFCURVE",
"395 49 OFFCURVE",
"296 49 CURVE SMOOTH",
"199 49 OFFCURVE",
"168 64 OFFCURVE",
"168 145 CURVE SMOOTH",
"168 335 LINE SMOOTH",
"168 411 OFFCURVE",
"200 430 OFFCURVE",
"295 430 CURVE SMOOTH",
"394 430 OFFCURVE",
"427 418 OFFCURVE",
"427 335 CURVE SMOOTH"
);
}
);
width = 579;
},
{
layerId = "206DC524-6BEE-4011-B4E8-F862EC5B14D0";
paths = (
{
closed = 1;
nodes = (
"560 331 LINE",
"560 390 OFFCURVE",
"554 422 OFFCURVE",
"527 452 CURVE SMOOTH",
"500 482 OFFCURVE",
"450 494 OFFCURVE",
"367 494 CURVE SMOOTH",
"270 494 OFFCURVE",
"227 480 OFFCURVE",
"210 436 CURVE",
"210 700 LINE",
"64 700 LINE",
"64 172 LINE SMOOTH",
"64 45 OFFCURVE",
"124 -10 OFFCURVE",
"309 -10 CURVE SMOOTH",
"485 -10 OFFCURVE",
"560 40 OFFCURVE",
"560 172 CURVE SMOOTH"
);
},
{
closed = 1;
nodes = (
"414 153 LINE",
"414 96 OFFCURVE",
"396 81 OFFCURVE",
"311 81 CURVE SMOOTH",
"226 81 OFFCURVE",
"210 96 OFFCURVE",
"210 153 CURVE SMOOTH",
"210 332 LINE SMOOTH",
"210 385 OFFCURVE",
"227 404 OFFCURVE",
"310 404 CURVE SMOOTH",
"402 404 OFFCURVE",
"414 395 OFFCURVE",
"414 332 CURVE SMOOTH"
);
}
);
width = 610;
}
);
unicode = 0062;
},
{
glyphname = c;
layers = (
{
layerId = UUID0;
paths = (
{
closed = 1;
nodes = (
"428 72 LINE",
"378 59 OFFCURVE",
"329 53 OFFCURVE",
"282 53 CURVE SMOOTH",
"177 53 OFFCURVE",
"152 70 OFFCURVE",
"152 141 CURVE SMOOTH",
"152 339 LINE SMOOTH",
"152 416 OFFCURVE",
"172 433 OFFCURVE",
"272 433 CURVE SMOOTH",
"319 433 OFFCURVE",
"369 426 OFFCURVE",
"421 413 CURVE",
"421 479 LINE",
"375 489 OFFCURVE",
"329 494 OFFCURVE",
"283 494 CURVE SMOOTH",
"232 494 OFFCURVE",
"210 493 OFFCURVE",
"171 487 CURVE SMOOTH",
"131 481 OFFCURVE",
"112 466 OFFCURVE",
"91 442 CURVE SMOOTH",
"70 418 OFFCURVE",
"60 379 OFFCURVE",
"60 326 CURVE SMOOTH",
"60 148 LINE SMOOTH",
"60 118 OFFCURVE",
"64 93 OFFCURVE",
"72 73 CURVE SMOOTH",
"88 32 OFFCURVE",
"107 13 OFFCURVE",
"149 2 CURVE SMOOTH",
"191 -10 OFFCURVE",
"214 -10 OFFCURVE",
"273 -10 CURVE SMOOTH",
"332 -10 OFFCURVE",
"384 -5 OFFCURVE",
"428 4 CURVE"
);
}
);
width = 464;
},
{
layerId = "206DC524-6BEE-4011-B4E8-F862EC5B14D0";
paths = (
{
closed = 1;
nodes = (
"464 103 LINE",
"395 88 OFFCURVE",
"344 81 OFFCURVE",
"309 81 CURVE SMOOTH",
"235 81 OFFCURVE",
"198 107 OFFCURVE",
"198 158 CURVE SMOOTH",
"198 336 LINE SMOOTH",
"198 381 OFFCURVE",
"232 404 OFFCURVE",
"299 404 CURVE SMOOTH",
"335 404 OFFCURVE",
"388 396 OFFCURVE",
"457 380 CURVE",
"457 476 LINE",
"396 488 OFFCURVE",
"347 494 OFFCURVE",
"310 494 CURVE SMOOTH",
"288 494 OFFCURVE",
"270 494 OFFCURVE",
"257 494 CURVE SMOOTH",
"229 493 OFFCURVE",
"181 487 OFFCURVE",
"156 479 CURVE SMOOTH",
"131 470 OFFCURVE",
"96 452 OFFCURVE",
"80 428 CURVE SMOOTH",
"63 403 OFFCURVE",
"50 366 OFFCURVE",
"50 318 CURVE SMOOTH",
"50 157 LINE SMOOTH",
"50 104 OFFCURVE",
"63 64 OFFCURVE",
"91 41 CURVE",
"118 17 OFFCURVE",
"141 3 OFFCURVE",
"186 -3 CURVE SMOOTH",
"230 -9 OFFCURVE",
"251 -10 OFFCURVE",
"300 -10 CURVE SMOOTH",
"351 -10 OFFCURVE",
"405 -4 OFFCURVE",
"464 7 CURVE"
);
}
);
width = 482;
}
);
unicode = 0063;
},
{
glyphname = cacute;
layers = (
{
layerId = UUID0;
paths = (
{
closed = 1;
nodes = (
"428 72 LINE",
"378 59 OFFCURVE",
"329 53 OFFCURVE",
"282 53 CURVE SMOOTH",
"177 53 OFFCURVE",
"152 70 OFFCURVE",
"152 141 CURVE SMOOTH",
"152 339 LINE SMOOTH",
"152 416 OFFCURVE",
"172 433 OFFCURVE",
"272 433 CURVE SMOOTH",
"319 433 OFFCURVE",
"369 426 OFFCURVE",
"421 413 CURVE",
"421 479 LINE",
"375 489 OFFCURVE",
"329 494 OFFCURVE",
"283 494 CURVE SMOOTH",
"232 494 OFFCURVE",
"210 493 OFFCURVE",
"171 487 CURVE SMOOTH",
"131 481 OFFCURVE",
"112 466 OFFCURVE",
"91 442 CURVE SMOOTH",
"70 418 OFFCURVE",
"60 379 OFFCURVE",
"60 326 CURVE SMOOTH",
"60 148 LINE SMOOTH",
"60 118 OFFCURVE",
"64 93 OFFCURVE",
"72 73 CURVE SMOOTH",
"88 32 OFFCURVE",
"107 13 OFFCURVE",
"149 2 CURVE SMOOTH",
"191 -10 OFFCURVE",
"214 -10 OFFCURVE",
"273 -10 CURVE SMOOTH",
"332 -10 OFFCURVE",
"384 -5 OFFCURVE",
"428 4 CURVE"
);
},
{
closed = 1;
nodes = (
"299 680 LINE",
"209 553 LINE",
"283 553 LINE",
"408 680 LINE"
);
}
);
width = 464;
},
{
layerId = "206DC524-6BEE-4011-B4E8-F862EC5B14D0";
paths = (
{
closed = 1;
nodes = (
"464 103 LINE",
"395 88 OFFCURVE",
"344 81 OFFCURVE",
"309 81 CURVE SMOOTH",
"235 81 OFFCURVE",
"198 107 OFFCURVE",
"198 158 CURVE SMOOTH",
"198 336 LINE SMOOTH",
"198 381 OFFCURVE",
"232 404 OFFCURVE",
"299 404 CURVE SMOOTH",
"335 404 OFFCURVE",
"388 396 OFFCURVE",
"457 380 CURVE",
"457 476 LINE",
"396 488 OFFCURVE",
"347 494 OFFCURVE",
"310 494 CURVE SMOOTH",
"288 494 OFFCURVE",
"270 494 OFFCURVE",
"257 494 CURVE SMOOTH",
"229 493 OFFCURVE",
"181 487 OFFCURVE",
"156 479 CURVE SMOOTH",
"131 470 OFFCURVE",
"96 452 OFFCURVE",
"80 428 CURVE SMOOTH",
"63 403 OFFCURVE",
"50 366 OFFCURVE",
"50 318 CURVE SMOOTH",
"50 157 LINE SMOOTH",
"50 104 OFFCURVE",
"63 64 OFFCURVE",
"91 41 CURVE",
"118 17 OFFCURVE",
"141 3 OFFCURVE",
"186 -3 CURVE SMOOTH",
"230 -9 OFFCURVE",
"251 -10 OFFCURVE",
"300 -10 CURVE SMOOTH",
"351 -10 OFFCURVE",
"405 -4 OFFCURVE",
"464 7 CURVE"
);
},
{
closed = 1;
nodes = (
"266 680 LINE",
"176 553 LINE",
"300 553 LINE",
"425 680 LINE"
);
}
);
width = 482;
}
);
unicode = 0107;
},
{
glyphname = ccaron;
layers = (
{
layerId = UUID0;
paths = (
{
closed = 1;
nodes = (
"428 72 LINE",
"378 59 OFFCURVE",
"329 53 OFFCURVE",
"282 53 CURVE SMOOTH",
"177 53 OFFCURVE",
"152 70 OFFCURVE",
"152 141 CURVE SMOOTH",
"152 339 LINE SMOOTH",
"152 416 OFFCURVE",
"172 433 OFFCURVE",
"272 433 CURVE SMOOTH",
"319 433 OFFCURVE",
"369 426 OFFCURVE",
"421 413 CURVE",
"421 479 LINE",
"375 489 OFFCURVE",
"329 494 OFFCURVE",
"283 494 CURVE SMOOTH",
"232 494 OFFCURVE",
"210 493 OFFCURVE",
"171 487 CURVE SMOOTH",
"131 481 OFFCURVE",
"112 466 OFFCURVE",
"91 442 CURVE SMOOTH",
"70 418 OFFCURVE",
"60 379 OFFCURVE",
"60 326 CURVE SMOOTH",
"60 148 LINE SMOOTH",
"60 118 OFFCURVE",
"64 93 OFFCURVE",
"72 73 CURVE SMOOTH",
"88 32 OFFCURVE",
"107 13 OFFCURVE",
"149 2 CURVE SMOOTH",
"191 -10 OFFCURVE",
"214 -10 OFFCURVE",
"273 -10 CURVE SMOOTH",
"332 -10 OFFCURVE",
"384 -5 OFFCURVE",
"428 4 CURVE"
);
},
{
closed = 1;
nodes = (
"320 553 LINE",
"386 680 LINE",
"328 680 LINE",
"266 593 LINE",
"203 680 LINE",
"145 680 LINE",
"213 553 LINE"
);
}
);
width = 464;
},
{
layerId = "206DC524-6BEE-4011-B4E8-F862EC5B14D0";
paths = (
{
closed = 1;
nodes = (
"464 103 LINE",
"395 88 OFFCURVE",
"344 81 OFFCURVE",
"309 81 CURVE SMOOTH",
"235 81 OFFCURVE",
"198 107 OFFCURVE",
"198 158 CURVE SMOOTH",
"198 336 LINE SMOOTH",
"198 381 OFFCURVE",
"232 404 OFFCURVE",
"299 404 CURVE SMOOTH",
"335 404 OFFCURVE",
"388 396 OFFCURVE",
"457 380 CURVE",
"457 476 LINE",
"396 488 OFFCURVE",
"347 494 OFFCURVE",
"310 494 CURVE SMOOTH",
"288 494 OFFCURVE",
"270 494 OFFCURVE",
"257 494 CURVE SMOOTH",
"229 493 OFFCURVE",
"181 487 OFFCURVE",
"156 479 CURVE SMOOTH",
"131 470 OFFCURVE",
"96 452 OFFCURVE",
"80 428 CURVE SMOOTH",
"63 403 OFFCURVE",
"50 366 OFFCURVE",
"50 318 CURVE SMOOTH",
"50 157 LINE SMOOTH",
"50 104 OFFCURVE",
"63 64 OFFCURVE",
"91 41 CURVE",
"118 17 OFFCURVE",
"141 3 OFFCURVE",
"186 -3 CURVE SMOOTH",
"230 -9 OFFCURVE",
"251 -10 OFFCURVE",
"300 -10 CURVE SMOOTH",
"351 -10 OFFCURVE",
"405 -4 OFFCURVE",
"464 7 CURVE"
);
},
{
closed = 1;
nodes = (
"333 680 LINE",
"281 593 LINE",
"228 680 LINE",
"130 680 LINE",
"188 553 LINE",
"375 553 LINE",
"431 680 LINE"
);
}
);
width = 482;
}
);
unicode = 010D;
},
{
glyphname = ccedilla;
layers = (
{
layerId = UUID0;
paths = (
{
closed = 1;
nodes = (
"428 72 LINE",
"378 59 OFFCURVE",
"329 53 OFFCURVE",
"282 53 CURVE SMOOTH",
"175 53 OFFCURVE",
"152 68 OFFCURVE",
"152 139 CURVE SMOOTH",
"152 339 LINE SMOOTH",
"152 422 OFFCURVE",
"169 433 OFFCURVE",
"272 433 CURVE SMOOTH",
"319 433 OFFCURVE",
"369 426 OFFCURVE",
"421 413 CURVE",
"421 479 LINE",
"375 489 OFFCURVE",
"329 494 OFFCURVE",
"283 494 CURVE SMOOTH",
"232 494 OFFCURVE",
"210 493 OFFCURVE",
"171 487 CURVE SMOOTH",
"131 481 OFFCURVE",
"112 466 OFFCURVE",
"91 442 CURVE SMOOTH",
"70 418 OFFCURVE",
"60 379 OFFCURVE",
"60 326 CURVE SMOOTH",
"60 148 LINE SMOOTH",
"60 121 OFFCURVE",
"63 97 OFFCURVE",
"70 78 CURVE",
"82 39 OFFCURVE",
"101 19 OFFCURVE",
"134 7 CURVE SMOOTH",
"167 -6 OFFCURVE",
"194 -9 OFFCURVE",
"241 -10 CURVE",
"228 -37 OFFCURVE",
"213 -65 OFFCURVE",
"197 -92 CURVE",
"230 -92 LINE SMOOTH",
"275 -92 OFFCURVE",
"308 -108 OFFCURVE",
"308 -133 CURVE SMOOTH",
"308 -160 OFFCURVE",
"292 -173 OFFCURVE",
"261 -173 CURVE SMOOTH",
"242 -173 OFFCURVE",
"223 -167 OFFCURVE",
"203 -156 CURVE",
"182 -201 LINE",
"203 -214 OFFCURVE",
"230 -220 OFFCURVE",
"263 -220 CURVE SMOOTH",
"323 -220 OFFCURVE",
"376 -189 OFFCURVE",
"376 -130 CURVE SMOOTH",
"376 -79 OFFCURVE",
"332 -53 OFFCURVE",
"283 -52 CURVE",
"304 -9 LINE",
"348 -8 OFFCURVE",
"389 -3 OFFCURVE",
"428 4 CURVE"
);
}
);
width = 464;
},
{
layerId = "206DC524-6BEE-4011-B4E8-F862EC5B14D0";
paths = (
{
closed = 1;
nodes = (
"464 103 LINE",
"395 88 OFFCURVE",
"344 81 OFFCURVE",
"309 81 CURVE SMOOTH",
"235 81 OFFCURVE",
"198 107 OFFCURVE",
"198 158 CURVE SMOOTH",
"198 336 LINE SMOOTH",
"198 381 OFFCURVE",
"232 404 OFFCURVE",
"299 404 CURVE SMOOTH",
"335 404 OFFCURVE",
"388 396 OFFCURVE",
"457 380 CURVE",
"457 476 LINE",
"396 488 OFFCURVE",
"347 494 OFFCURVE",
"310 494 CURVE SMOOTH",
"288 494 OFFCURVE",
"270 494 OFFCURVE",
"257 494 CURVE SMOOTH",
"229 493 OFFCURVE",
"181 487 OFFCURVE",
"156 479 CURVE SMOOTH",
"131 470 OFFCURVE",
"96 452 OFFCURVE",
"80 428 CURVE SMOOTH",
"63 403 OFFCURVE",
"50 366 OFFCURVE",
"50 318 CURVE SMOOTH",
"50 157 LINE SMOOTH",
"50 89 OFFCURVE",
"73 44 OFFCURVE",
"114 22 CURVE SMOOTH",
"155 0 OFFCURVE",
"194 -8 OFFCURVE",
"251 -9 CURVE",
"248 -14 OFFCURVE",
"241 -24 OFFCURVE",
"231 -39 CURVE SMOOTH",
"220 -54 OFFCURVE",
"212 -67 OFFCURVE",
"205 -77 CURVE SMOOTH",
"198 -88 OFFCURVE",
"194 -94 OFFCURVE",
"193 -96 CURVE",
"233 -96 LINE SMOOTH",
"283 -96 OFFCURVE",
"308 -109 OFFCURVE",
"308 -134 CURVE SMOOTH",
"308 -157 OFFCURVE",
"292 -169 OFFCURVE",
"261 -169 CURVE SMOOTH",
"240 -169 OFFCURVE",
"219 -163 OFFCURVE",
"199 -151 CURVE",
"177 -197 LINE",
"200 -212 OFFCURVE",
"231 -220 OFFCURVE",
"268 -220 CURVE SMOOTH",
"331 -220 OFFCURVE",
"388 -189 OFFCURVE",
"388 -129 CURVE SMOOTH",
"388 -77 OFFCURVE",
"346 -54 OFFCURVE",
"291 -50 CURVE",
"320 -9 LINE",
"361 -8 OFFCURVE",
"409 -3 OFFCURVE",
"464 7 CURVE"
);
}
);
width = 482;
}
);
unicode = 00E7;
},
{
glyphname = ccircumflex;
layers = (
{
layerId = UUID0;
paths = (
{
closed = 1;
nodes = (
"428 72 LINE",
"378 59 OFFCURVE",
"329 53 OFFCURVE",
"282 53 CURVE SMOOTH",
"177 53 OFFCURVE",
"152 70 OFFCURVE",
"152 141 CURVE SMOOTH",
"152 339 LINE SMOOTH",
"152 416 OFFCURVE",
"172 433 OFFCURVE",
"272 433 CURVE SMOOTH",
"319 433 OFFCURVE",
"369 426 OFFCURVE",
"421 413 CURVE",
"421 479 LINE",
"375 489 OFFCURVE",
"329 494 OFFCURVE",
"283 494 CURVE SMOOTH",
"232 494 OFFCURVE",
"210 493 OFFCURVE",
"171 487 CURVE SMOOTH",
"131 481 OFFCURVE",
"112 466 OFFCURVE",
"91 442 CURVE SMOOTH",
"70 418 OFFCURVE",
"60 379 OFFCURVE",
"60 326 CURVE SMOOTH",
"60 148 LINE SMOOTH",
"60 118 OFFCURVE",
"64 93 OFFCURVE",
"72 73 CURVE SMOOTH",
"88 32 OFFCURVE",
"107 13 OFFCURVE",
"149 2 CURVE SMOOTH",
"191 -10 OFFCURVE",
"214 -10 OFFCURVE",
"273 -10 CURVE SMOOTH",
"332 -10 OFFCURVE",
"384 -5 OFFCURVE",
"428 4 CURVE"
);
},
{
closed = 1;
nodes = (
"210 553 LINE",
"273 640 LINE",
"335 553 LINE",
"393 553 LINE",
"327 680 LINE",
"220 680 LINE",
"152 553 LINE"
);
}
);
width = 464;
},
{
layerId = "206DC524-6BEE-4011-B4E8-F862EC5B14D0";
paths = (
{
closed = 1;
nodes = (
"464 103 LINE",
"395 88 OFFCURVE",
"344 81 OFFCURVE",
"309 81 CURVE SMOOTH",
"235 81 OFFCURVE",
"198 107 OFFCURVE",
"198 158 CURVE SMOOTH",
"198 336 LINE SMOOTH",
"198 381 OFFCURVE",
"232 404 OFFCURVE",
"299 404 CURVE SMOOTH",
"335 404 OFFCURVE",
"388 396 OFFCURVE",
"457 380 CURVE",
"457 476 LINE",
"396 488 OFFCURVE",
"347 494 OFFCURVE",
"310 494 CURVE SMOOTH",
"288 494 OFFCURVE",
"270 494 OFFCURVE",
"257 494 CURVE SMOOTH",
"229 493 OFFCURVE",
"181 487 OFFCURVE",
"156 479 CURVE SMOOTH",
"131 470 OFFCURVE",
"96 452 OFFCURVE",
"80 428 CURVE SMOOTH",
"63 403 OFFCURVE",
"50 366 OFFCURVE",
"50 318 CURVE SMOOTH",
"50 157 LINE SMOOTH",
"50 104 OFFCURVE",
"63 64 OFFCURVE",
"91 41 CURVE",
"118 17 OFFCURVE",
"141 3 OFFCURVE",
"186 -3 CURVE SMOOTH",
"230 -9 OFFCURVE",
"251 -10 OFFCURVE",
"300 -10 CURVE SMOOTH",
"351 -10 OFFCURVE",
"405 -4 OFFCURVE",
"464 7 CURVE"
);
},
{
closed = 1;
nodes = (
"373 680 LINE",
"186 680 LINE",
"130 553 LINE",
"228 553 LINE",
"280 640 LINE",
"333 553 LINE",
"431 553 LINE"
);
}
);
width = 482;
}
);
unicode = 0109;
},
{
glyphname = cdotaccent;
layers = (
{
layerId = UUID0;
paths = (
{
closed = 1;
nodes = (
"428 72 LINE",
"378 59 OFFCURVE",
"329 53 OFFCURVE",
"282 53 CURVE SMOOTH",
"177 53 OFFCURVE",
"152 70 OFFCURVE",
"152 141 CURVE SMOOTH",
"152 339 LINE SMOOTH",
"152 416 OFFCURVE",
"172 433 OFFCURVE",
"272 433 CURVE SMOOTH",
"319 433 OFFCURVE",
"369 426 OFFCURVE",
"421 413 CURVE",
"421 479 LINE",
"375 489 OFFCURVE",
"329 494 OFFCURVE",
"283 494 CURVE SMOOTH",
"232 494 OFFCURVE",
"210 493 OFFCURVE",
"171 487 CURVE SMOOTH",
"131 481 OFFCURVE",
"112 466 OFFCURVE",
"91 442 CURVE SMOOTH",
"70 418 OFFCURVE",
"60 379 OFFCURVE",
"60 326 CURVE SMOOTH",
"60 148 LINE SMOOTH",
"60 118 OFFCURVE",
"64 93 OFFCURVE",
"72 73 CURVE SMOOTH",
"88 32 OFFCURVE",
"107 13 OFFCURVE",
"149 2 CURVE SMOOTH",
"191 -10 OFFCURVE",
"214 -10 OFFCURVE",
"273 -10 CURVE SMOOTH",
"332 -10 OFFCURVE",
"384 -5 OFFCURVE",
"428 4 CURVE"
);
},
{
closed = 1;
nodes = (
"316 666 LINE",
"226 666 LINE",
"226 568 LINE",
"316 568 LINE"
);
}
);
width = 464;
},
{
layerId = "206DC524-6BEE-4011-B4E8-F862EC5B14D0";
paths = (
{
closed = 1;
nodes = (
"464 103 LINE",
"395 88 OFFCURVE",
"344 81 OFFCURVE",
"309 81 CURVE SMOOTH",
"235 81 OFFCURVE",
"198 107 OFFCURVE",
"198 158 CURVE SMOOTH",
"198 336 LINE SMOOTH",
"198 381 OFFCURVE",
"232 404 OFFCURVE",
"299 404 CURVE SMOOTH",
"335 404 OFFCURVE",
"388 396 OFFCURVE",
"457 380 CURVE",
"457 476 LINE",
"396 488 OFFCURVE",
"347 494 OFFCURVE",
"310 494 CURVE SMOOTH",
"288 494 OFFCURVE",
"270 494 OFFCURVE",
"257 494 CURVE SMOOTH",
"229 493 OFFCURVE",
"181 487 OFFCURVE",
"156 479 CURVE SMOOTH",
"131 470 OFFCURVE",
"96 452 OFFCURVE",
"80 428 CURVE SMOOTH",
"63 403 OFFCURVE",
"50 366 OFFCURVE",
"50 318 CURVE SMOOTH",
"50 157 LINE SMOOTH",
"50 104 OFFCURVE",
"63 64 OFFCURVE",
"91 41 CURVE",
"118 17 OFFCURVE",
"141 3 OFFCURVE",
"186 -3 CURVE SMOOTH",
"230 -9 OFFCURVE",
"251 -10 OFFCURVE",
"300 -10 CURVE SMOOTH",
"351 -10 OFFCURVE",
"405 -4 OFFCURVE",
"464 7 CURVE"
);
},
{
closed = 1;
nodes = (
"354 680 LINE",
"208 680 LINE",
"208 565 LINE",
"354 565 LINE"
);
}
);
width = 482;
}
);
unicode = 010B;
},
{
glyphname = d;
layers = (
{
layerId = UUID0;
paths = (
{
closed = 1;
nodes = (
"501 700 LINE",
"411 700 LINE",
"411 555 LINE SMOOTH",
"411 528 OFFCURVE",
"412 487 OFFCURVE",
"413 432 CURVE",
"411 432 LINE",
"410 475 OFFCURVE",
"332 494 OFFCURVE",
"256 494 CURVE SMOOTH",
"115 494 OFFCURVE",
"60 454 OFFCURVE",
"60 357 CURVE SMOOTH",
"60 144 LINE SMOOTH",
"60 27 OFFCURVE",
"111 -10 OFFCURVE",
"251 -10 CURVE SMOOTH",
"301 -10 OFFCURVE",
"341 -3 OFFCURVE",
"370 11 CURVE SMOOTH",
"399 24 OFFCURVE",
"413 40 OFFCURVE",
"413 57 CURVE SMOOTH",
"413 0 LINE",
"501 0 LINE"
);
},
{
closed = 1;
nodes = (
"411 127 LINE",
"411 72 OFFCURVE",
"369 52 OFFCURVE",
"270 52 CURVE SMOOTH",
"182 52 OFFCURVE",
"149 72 OFFCURVE",
"149 127 CURVE SMOOTH",
"149 366 LINE SMOOTH",
"149 393 OFFCURVE",
"157 411 OFFCURVE",
"174 419 CURVE SMOOTH",
"190 427 OFFCURVE",
"225 431 OFFCURVE",
"278 431 CURVE SMOOTH",
"367 431 OFFCURVE",
"411 409 OFFCURVE",
"411 366 CURVE SMOOTH"
);
}
);
width = 571;
},
{
layerId = "206DC524-6BEE-4011-B4E8-F862EC5B14D0";
paths = (
{
closed = 1;
nodes = (
"544 700 LINE",
"398 700 LINE",
"398 430 LINE",
"365 479 OFFCURVE",
"339 494 OFFCURVE",
"243 494 CURVE SMOOTH",
"110 494 OFFCURVE",
"50 457 OFFCURVE",
"50 348 CURVE SMOOTH",
"50 159 LINE SMOOTH",
"50 16 OFFCURVE",
"85 -10 OFFCURVE",
"250 -10 CURVE SMOOTH",
"285 -10 OFFCURVE",
"311 -8 OFFCURVE",
"330 -3 CURVE SMOOTH",
"367 5 OFFCURVE",
"380 19 OFFCURVE",
"403 55 CURVE",
"403 0 LINE",
"544 0 LINE"
);
},
{
closed = 1;
nodes = (
"398 145 LINE",
"398 93 OFFCURVE",
"382 81 OFFCURVE",
"287 81 CURVE SMOOTH",
"208 81 OFFCURVE",
"196 97 OFFCURVE",
"196 150 CURVE SMOOTH",
"196 335 LINE SMOOTH",
"196 392 OFFCURVE",
"206 404 OFFCURVE",
"295 404 CURVE SMOOTH",
"380 404 OFFCURVE",
"398 388 OFFCURVE",
"398 340 CURVE SMOOTH"
);
}
);
width = 608;
}
);
unicode = 0064;
},
{
glyphname = eth;
layers = (
{
layerId = UUID0;
paths = (
{
closed = 1;
nodes = (
"305 599 LINE",
"332 566 OFFCURVE",
"355 530 OFFCURVE",
"376 490 CURVE",
"352 493 OFFCURVE",
"321 494 OFFCURVE",
"283 494 CURVE SMOOTH",
"251 494 OFFCURVE",
"225 493 OFFCURVE",
"205 491 CURVE SMOOTH",
"164 487 OFFCURVE",
"119 475 OFFCURVE",
"98 451 CURVE SMOOTH",
"77 426 OFFCURVE",
"62 384 OFFCURVE",
"62 321 CURVE SMOOTH",
"62 153 LINE SMOOTH",
"62 122 OFFCURVE",
"65 97 OFFCURVE",
"72 77 CURVE SMOOTH",
"85 36 OFFCURVE",
"102 15 OFFCURVE",
"143 3 CURVE SMOOTH",
"184 -9 OFFCURVE",
"215 -10 OFFCURVE",
"283 -10 CURVE SMOOTH",
"316 -10 OFFCURVE",
"343 -9 OFFCURVE",
"362 -8 CURVE SMOOTH",
"401 -5 OFFCURVE",
"448 6 OFFCURVE",
"469 29 CURVE SMOOTH",
"489 52 OFFCURVE",
"504 92 OFFCURVE",
"504 153 CURVE SMOOTH",
"504 321 LINE SMOOTH",
"504 430 OFFCURVE",
"466 532 OFFCURVE",
"389 625 CURVE",
"450 643 LINE",
"450 700 LINE",
"349 670 LINE",
"318 700 LINE",
"212 700 LINE",
"236 676 OFFCURVE",
"254 658 OFFCURVE",
"265 645 CURVE",
"189 622 LINE",
"189 565 LINE"
);
},
{
closed = 1;
nodes = (
"414 140 LINE",
"414 59 OFFCURVE",
"383 48 OFFCURVE",
"283 48 CURVE SMOOTH",
"183 48 OFFCURVE",
"152 59 OFFCURVE",
"152 140 CURVE SMOOTH",
"152 336 LINE SMOOTH",
"152 425 OFFCURVE",
"180 436 OFFCURVE",
"283 436 CURVE SMOOTH",
"386 436 OFFCURVE",
"414 425 OFFCURVE",
"414 336 CURVE SMOOTH"
);
}
);
width = 568;
},
{
layerId = "206DC524-6BEE-4011-B4E8-F862EC5B14D0";
paths = (
{
closed = 1;
nodes = (
"316 584 LINE",
"339 553 OFFCURVE",
"359 522 OFFCURVE",
"376 490 CURVE",
"352 493 OFFCURVE",
"325 494 OFFCURVE",
"296 494 CURVE SMOOTH",
"269 494 OFFCURVE",
"246 493 OFFCURVE",
"227 492 CURVE",
"189 488 OFFCURVE",
"134 474 OFFCURVE",
"104 449 CURVE SMOOTH",
"74 424 OFFCURVE",
"50 376 OFFCURVE",
"50 309 CURVE SMOOTH",
"50 166 LINE SMOOTH",
"50 135 OFFCURVE",
"55 108 OFFCURVE",
"65 86 CURVE SMOOTH",
"85 41 OFFCURVE",
"112 18 OFFCURVE",
"160 5 CURVE SMOOTH",
"207 -8 OFFCURVE",
"240 -10 OFFCURVE",
"296 -10 CURVE SMOOTH",
"324 -10 OFFCURVE",
"348 -9 OFFCURVE",
"368 -7 CURVE SMOOTH",
"407 -4 OFFCURVE",
"461 9 OFFCURVE",
"490 34 CURVE SMOOTH",
"519 58 OFFCURVE",
"542 103 OFFCURVE",
"542 166 CURVE SMOOTH",
"542 321 LINE SMOOTH",
"542 426 OFFCURVE",
"505 525 OFFCURVE",
"430 618 CURVE",
"480 633 LINE",
"480 700 LINE",
"383 671 LINE",
"374 681 OFFCURVE",
"364 691 OFFCURVE",
"354 700 CURVE",
"212 700 LINE",
"239 673 OFFCURVE",
"259 653 OFFCURVE",
"272 638 CURVE",
"219 622 LINE",
"219 555 LINE"
);
},
{
closed = 1;
nodes = (
"396 149 LINE",
"396 98 OFFCURVE",
"377 81 OFFCURVE",
"296 81 CURVE SMOOTH",
"215 81 OFFCURVE",
"196 98 OFFCURVE",
"196 149 CURVE SMOOTH",
"196 332 LINE SMOOTH",
"196 384 OFFCURVE",
"216 404 OFFCURVE",
"296 404 CURVE SMOOTH",
"376 404 OFFCURVE",
"396 384 OFFCURVE",
"396 332 CURVE SMOOTH"
);
}
);
width = 592;
}
);
unicode = 00F0;
},
{
glyphname = dcaron;
layers = (
{
layerId = UUID0;
paths = (
{
closed = 1;
nodes = (
"501 693 LINE",
"411 693 LINE",
"411 555 LINE SMOOTH",
"411 528 OFFCURVE",
"412 487 OFFCURVE",
"413 432 CURVE",
"411 432 LINE",
"410 475 OFFCURVE",
"332 494 OFFCURVE",
"256 494 CURVE SMOOTH",
"115 494 OFFCURVE",
"60 454 OFFCURVE",
"60 357 CURVE SMOOTH",
"60 144 LINE SMOOTH",
"60 27 OFFCURVE",
"111 -10 OFFCURVE",
"251 -10 CURVE SMOOTH",
"301 -10 OFFCURVE",
"341 -3 OFFCURVE",
"370 11 CURVE SMOOTH",
"399 24 OFFCURVE",
"413 40 OFFCURVE",
"413 57 CURVE SMOOTH",
"413 0 LINE",
"501 0 LINE"
);
},
{
closed = 1;
nodes = (
"411 127 LINE",
"411 72 OFFCURVE",
"369 52 OFFCURVE",
"270 52 CURVE SMOOTH",
"182 52 OFFCURVE",
"149 72 OFFCURVE",
"149 127 CURVE SMOOTH",
"149 366 LINE SMOOTH",
"149 393 OFFCURVE",
"157 411 OFFCURVE",
"174 419 CURVE SMOOTH",
"190 427 OFFCURVE",
"225 431 OFFCURVE",
"278 431 CURVE SMOOTH",
"367 431 OFFCURVE",
"411 409 OFFCURVE",
"411 366 CURVE SMOOTH"
);
},
{
closed = 1;
nodes = (
"609 679 LINE",
"563 529 LINE",
"620 529 LINE",
"703 679 LINE"
);
}
);
width = 605;
},
{
layerId = "206DC524-6BEE-4011-B4E8-F862EC5B14D0";
paths = (
{
closed = 1;
nodes = (
"544 700 LINE",
"398 700 LINE",
"398 430 LINE",
"365 479 OFFCURVE",
"339 494 OFFCURVE",
"243 494 CURVE SMOOTH",
"110 494 OFFCURVE",
"50 457 OFFCURVE",
"50 348 CURVE SMOOTH",
"50 159 LINE SMOOTH",
"50 16 OFFCURVE",
"85 -10 OFFCURVE",
"250 -10 CURVE SMOOTH",
"285 -10 OFFCURVE",
"311 -8 OFFCURVE",
"330 -3 CURVE SMOOTH",
"367 5 OFFCURVE",
"380 19 OFFCURVE",
"403 55 CURVE",
"403 0 LINE",
"544 0 LINE"
);
},
{
closed = 1;
nodes = (
"398 145 LINE",
"398 93 OFFCURVE",
"382 81 OFFCURVE",
"287 81 CURVE SMOOTH",
"208 81 OFFCURVE",
"196 97 OFFCURVE",
"196 150 CURVE SMOOTH",
"196 335 LINE SMOOTH",
"196 392 OFFCURVE",
"206 404 OFFCURVE",
"295 404 CURVE SMOOTH",
"380 404 OFFCURVE",
"398 388 OFFCURVE",
"398 340 CURVE SMOOTH"
);
},
{
closed = 1;
nodes = (
"605 700 LINE",
"579 537 LINE",
"675 537 LINE",
"739 700 LINE"
);
}
);
width = 700;
}
);
unicode = 010F;
},
{
color = 9;
glyphname = dcroat;
layers = (
{
layerId = UUID0;
paths = (
{
closed = 1;
nodes = (
"501 553 LINE",
"566 553 LINE",
"566 605 LINE",
"501 605 LINE",
"501 700 LINE",
"411 700 LINE",
"411 605 LINE",
"307 605 LINE",
"307 553 LINE",
"411 553 LINE",
"411 526 OFFCURVE",
"412 485 OFFCURVE",
"413 432 CURVE",
"411 432 LINE",
"410 475 OFFCURVE",
"332 494 OFFCURVE",
"256 494 CURVE SMOOTH",
"115 494 OFFCURVE",
"60 454 OFFCURVE",
"60 357 CURVE SMOOTH",
"60 144 LINE SMOOTH",
"60 27 OFFCURVE",
"111 -10 OFFCURVE",
"251 -10 CURVE SMOOTH",
"300 -10 OFFCURVE",
"339 -3 OFFCURVE",
"368 10 CURVE SMOOTH",
"397 23 OFFCURVE",
"412 37 OFFCURVE",
"413 54 CURVE",
"413 0 LINE",
"501 0 LINE"
);
},
{
closed = 1;
nodes = (
"411 127 LINE",
"411 72 OFFCURVE",
"369 52 OFFCURVE",
"270 52 CURVE SMOOTH",
"182 52 OFFCURVE",
"149 72 OFFCURVE",
"149 127 CURVE SMOOTH",
"149 366 LINE SMOOTH",
"149 393 OFFCURVE",
"157 411 OFFCURVE",
"174 419 CURVE SMOOTH",
"190 427 OFFCURVE",
"225 431 OFFCURVE",
"278 431 CURVE SMOOTH",
"367 431 OFFCURVE",
"411 409 OFFCURVE",
"411 366 CURVE SMOOTH"
);
}
);
width = 571;
},
{
layerId = "206DC524-6BEE-4011-B4E8-F862EC5B14D0";
paths = (
{
closed = 1;
nodes = (
"544 553 LINE",
"586 553 LINE",
"586 635 LINE",
"544 635 LINE",
"544 700 LINE",
"398 700 LINE",
"398 635 LINE",
"287 635 LINE",
"287 553 LINE",
"398 553 LINE",
"398 430 LINE",
"365 479 OFFCURVE",
"339 494 OFFCURVE",
"243 494 CURVE SMOOTH",
"110 494 OFFCURVE",
"50 457 OFFCURVE",
"50 348 CURVE SMOOTH",
"50 159 LINE SMOOTH",
"50 16 OFFCURVE",
"85 -10 OFFCURVE",
"250 -10 CURVE SMOOTH",
"285 -10 OFFCURVE",
"311 -8 OFFCURVE",
"330 -3 CURVE SMOOTH",
"367 5 OFFCURVE",
"380 19 OFFCURVE",
"403 55 CURVE",
"403 0 LINE",
"544 0 LINE"
);
},
{
closed = 1;
nodes = (
"398 145 LINE",
"398 93 OFFCURVE",
"382 81 OFFCURVE",
"287 81 CURVE SMOOTH",
"208 81 OFFCURVE",
"196 97 OFFCURVE",
"196 150 CURVE SMOOTH",
"196 335 LINE SMOOTH",
"196 392 OFFCURVE",
"206 404 OFFCURVE",
"295 404 CURVE SMOOTH",
"380 404 OFFCURVE",
"398 388 OFFCURVE",
"398 340 CURVE SMOOTH"
);
}
);
width = 608;
}
);
unicode = 0111;
},
{
glyphname = e;
layers = (
{
anchors = (
{
name = bottom;
position = "{268, 0}";
},
{
name = ogonek;
position = "{481, 10}";
},
{
name = top;
position = "{268, 484}";
}
);
layerId = UUID0;
paths = (
{
closed = 1;
nodes = (
"476 329 LINE",
"476 452 OFFCURVE",
"414 494 OFFCURVE",
"274 494 CURVE SMOOTH",
"125 494 OFFCURVE",
"60 448 OFFCURVE",
"60 329 CURVE SMOOTH",
"60 138 LINE SMOOTH",
"60 39 OFFCURVE",
"134 -10 OFFCURVE",
"282 -10 CURVE SMOOTH",
"339 -10 OFFCURVE",
"397 -3 OFFCURVE",
"457 10 CURVE",
"457 79 LINE",
"394 63 OFFCURVE",
"340 55 OFFCURVE",
"294 55 CURVE SMOOTH",
"199 55 OFFCURVE",
"151 81 OFFCURVE",
"151 149 CURVE SMOOTH",
"151 222 LINE",
"476 222 LINE"
);
},
{
closed = 1;
nodes = (
"151 281 LINE",
"151 357 LINE SMOOTH",
"151 417 OFFCURVE",
"189 434 OFFCURVE",
"269 434 CURVE SMOOTH",
"353 434 OFFCURVE",
"386 416 OFFCURVE",
"386 357 CURVE SMOOTH",
"386 281 LINE"
);
}
);
width = 535;
},
{
anchors = (
{
name = bottom;
position = "{280, 0}";
},
{
name = ogonek;
position = "{503, 10}";
},
{
name = top;
position = "{280, 484}";
}
);
layerId = "206DC524-6BEE-4011-B4E8-F862EC5B14D0";
paths = (
{
closed = 1;
nodes = (
"511 321 LINE",
"511 450 OFFCURVE",
"438 494 OFFCURVE",
"289 494 CURVE SMOOTH",
"130 494 OFFCURVE",
"50 445 OFFCURVE",
"50 321 CURVE SMOOTH",
"50 147 LINE SMOOTH",
"50 42 OFFCURVE",
"136 -10 OFFCURVE",
"307 -10 CURVE SMOOTH",
"372 -10 OFFCURVE",
"436 -4 OFFCURVE",
"497 9 CURVE",
"497 102 LINE",
"437 88 OFFCURVE",
"383 81 OFFCURVE",
"335 81 CURVE SMOOTH",
"228 81 OFFCURVE",
"197 104 OFFCURVE",
"197 159 CURVE SMOOTH",
"197 203 LINE",
"511 203 LINE"
);
},
{
closed = 1;
nodes = (
"197 286 LINE",
"197 356 LINE SMOOTH",
"197 371 OFFCURVE",
"203 383 OFFCURVE",
"216 392 CURVE SMOOTH",
"228 400 OFFCURVE",
"252 404 OFFCURVE",
"287 404 CURVE SMOOTH",
"351 404 OFFCURVE",
"372 387 OFFCURVE",
"372 356 CURVE SMOOTH",
"372 286 LINE"
);
}
);
width = 559;
}
);
unicode = 0065;
},
{
glyphname = ebreve;
layers = (
{
layerId = UUID0;
paths = (
{
closed = 1;
nodes = (
"476 329 LINE",
"476 452 OFFCURVE",
"414 494 OFFCURVE",
"274 494 CURVE SMOOTH",
"125 494 OFFCURVE",
"60 448 OFFCURVE",
"60 329 CURVE SMOOTH",
"60 138 LINE SMOOTH",
"60 39 OFFCURVE",
"134 -10 OFFCURVE",
"282 -10 CURVE SMOOTH",
"339 -10 OFFCURVE",
"397 -3 OFFCURVE",
"457 10 CURVE",
"457 79 LINE",
"394 63 OFFCURVE",
"340 55 OFFCURVE",
"294 55 CURVE SMOOTH",
"199 55 OFFCURVE",
"151 81 OFFCURVE",
"151 149 CURVE SMOOTH",
"151 222 LINE",
"476 222 LINE"
);
},
{
closed = 1;
nodes = (
"151 281 LINE",
"151 357 LINE SMOOTH",
"151 417 OFFCURVE",
"189 434 OFFCURVE",
"269 434 CURVE SMOOTH",
"353 434 OFFCURVE",
"386 416 OFFCURVE",
"386 357 CURVE SMOOTH",
"386 281 LINE"
);
},
{
closed = 1;
nodes = (
"384 611 OFFCURVE",
"395 641 OFFCURVE",
"396 680 CURVE",
"342 680 LINE",
"338 635 OFFCURVE",
"317 612 OFFCURVE",
"278 612 CURVE SMOOTH",
"239 612 OFFCURVE",
"218 635 OFFCURVE",
"214 680 CURVE",
"160 680 LINE",
"163 603 OFFCURVE",
"206 553 OFFCURVE",
"278 553 CURVE SMOOTH",
"314 553 OFFCURVE",
"342 565 OFFCURVE",
"363 588 CURVE SMOOTH"
);
}
);
width = 535;
},
{
layerId = "206DC524-6BEE-4011-B4E8-F862EC5B14D0";
paths = (
{
closed = 1;
nodes = (
"511 321 LINE",
"511 450 OFFCURVE",
"438 494 OFFCURVE",
"289 494 CURVE SMOOTH",
"130 494 OFFCURVE",
"50 445 OFFCURVE",
"50 321 CURVE SMOOTH",
"50 147 LINE SMOOTH",
"50 42 OFFCURVE",
"136 -10 OFFCURVE",
"307 -10 CURVE SMOOTH",
"372 -10 OFFCURVE",
"436 -4 OFFCURVE",
"497 9 CURVE",
"497 102 LINE",
"437 88 OFFCURVE",
"383 81 OFFCURVE",
"335 81 CURVE SMOOTH",
"228 81 OFFCURVE",
"197 104 OFFCURVE",
"197 159 CURVE SMOOTH",
"197 203 LINE",
"511 203 LINE"
);
},
{
closed = 1;
nodes = (
"197 286 LINE",
"197 356 LINE SMOOTH",
"197 371 OFFCURVE",
"203 383 OFFCURVE",
"216 392 CURVE SMOOTH",
"228 400 OFFCURVE",
"252 404 OFFCURVE",
"287 404 CURVE SMOOTH",
"351 404 OFFCURVE",
"372 387 OFFCURVE",
"372 356 CURVE SMOOTH",
"372 286 LINE"
);
},
{
closed = 1;
nodes = (
"340 680 LINE",
"336 643 OFFCURVE",
"317 625 OFFCURVE",
"284 625 CURVE SMOOTH",
"248 625 OFFCURVE",
"235 641 OFFCURVE",
"227 680 CURVE",
"146 680 LINE",
"150 604 OFFCURVE",
"201 553 OFFCURVE",
"284 553 CURVE SMOOTH",
"365 553 OFFCURVE",
"417 604 OFFCURVE",
"422 680 CURVE"
);
}
);
width = 559;
}
);
unicode = 0115;
},
{
glyphname = ecaron;
layers = (
{
layerId = UUID0;
paths = (
{
closed = 1;
nodes = (
"476 329 LINE",
"476 452 OFFCURVE",
"414 494 OFFCURVE",
"274 494 CURVE SMOOTH",
"125 494 OFFCURVE",
"60 448 OFFCURVE",
"60 329 CURVE SMOOTH",
"60 138 LINE SMOOTH",
"60 39 OFFCURVE",
"134 -10 OFFCURVE",
"282 -10 CURVE SMOOTH",
"339 -10 OFFCURVE",
"397 -3 OFFCURVE",
"457 10 CURVE",
"457 79 LINE",
"394 63 OFFCURVE",
"340 55 OFFCURVE",
"294 55 CURVE SMOOTH",
"199 55 OFFCURVE",
"151 81 OFFCURVE",
"151 149 CURVE SMOOTH",
"151 222 LINE",
"476 222 LINE"
);
},
{
closed = 1;
nodes = (
"151 281 LINE",
"151 357 LINE SMOOTH",
"151 417 OFFCURVE",
"189 434 OFFCURVE",
"269 434 CURVE SMOOTH",
"353 434 OFFCURVE",
"386 416 OFFCURVE",
"386 357 CURVE SMOOTH",
"386 281 LINE"
);
},
{
closed = 1;
nodes = (
"325 553 LINE",
"391 680 LINE",
"333 680 LINE",
"271 593 LINE",
"208 680 LINE",
"150 680 LINE",
"218 553 LINE"
);
}
);
width = 535;
},
{
layerId = "206DC524-6BEE-4011-B4E8-F862EC5B14D0";
paths = (
{
closed = 1;
nodes = (
"511 321 LINE",
"511 450 OFFCURVE",
"438 494 OFFCURVE",
"289 494 CURVE SMOOTH",
"130 494 OFFCURVE",
"50 445 OFFCURVE",
"50 321 CURVE SMOOTH",
"50 147 LINE SMOOTH",
"50 42 OFFCURVE",
"136 -10 OFFCURVE",
"307 -10 CURVE SMOOTH",
"372 -10 OFFCURVE",
"436 -4 OFFCURVE",
"497 9 CURVE",
"497 102 LINE",
"437 88 OFFCURVE",
"383 81 OFFCURVE",
"335 81 CURVE SMOOTH",
"228 81 OFFCURVE",
"197 104 OFFCURVE",
"197 159 CURVE SMOOTH",
"197 203 LINE",
"511 203 LINE"
);
},
{
closed = 1;
nodes = (
"197 286 LINE",
"197 356 LINE SMOOTH",
"197 371 OFFCURVE",
"203 383 OFFCURVE",
"216 392 CURVE SMOOTH",
"228 400 OFFCURVE",
"252 404 OFFCURVE",
"287 404 CURVE SMOOTH",
"351 404 OFFCURVE",
"372 387 OFFCURVE",
"372 356 CURVE SMOOTH",
"372 286 LINE"
);
},
{
closed = 1;
nodes = (
"332 680 LINE",
"280 593 LINE",
"227 680 LINE",
"129 680 LINE",
"187 553 LINE",
"374 553 LINE",
"430 680 LINE"
);
}
);
width = 559;
}
);
unicode = 011B;
},
{
glyphname = edieresis;
layers = (
{
layerId = UUID0;
paths = (
{
closed = 1;
nodes = (
"476 329 LINE",
"476 452 OFFCURVE",
"414 494 OFFCURVE",
"274 494 CURVE SMOOTH",
"125 494 OFFCURVE",
"60 448 OFFCURVE",
"60 329 CURVE SMOOTH",
"60 138 LINE SMOOTH",
"60 39 OFFCURVE",
"134 -10 OFFCURVE",
"282 -10 CURVE SMOOTH",
"339 -10 OFFCURVE",
"397 -3 OFFCURVE",
"457 10 CURVE",
"457 79 LINE",
"394 63 OFFCURVE",
"340 55 OFFCURVE",
"294 55 CURVE SMOOTH",
"199 55 OFFCURVE",
"151 81 OFFCURVE",
"151 149 CURVE SMOOTH",
"151 222 LINE",
"476 222 LINE"
);
},
{
closed = 1;
nodes = (
"151 281 LINE",
"151 357 LINE SMOOTH",
"151 417 OFFCURVE",
"189 434 OFFCURVE",
"269 434 CURVE SMOOTH",
"353 434 OFFCURVE",
"386 416 OFFCURVE",
"386 357 CURVE SMOOTH",
"386 281 LINE"
);
},
{
closed = 1;
nodes = (
"220 659 LINE",
"130 659 LINE",
"130 565 LINE",
"220 565 LINE"
);
},
{
closed = 1;
nodes = (
"390 659 LINE",
"300 659 LINE",
"300 565 LINE",
"390 565 LINE"
);
}
);
width = 535;
},
{
layerId = "206DC524-6BEE-4011-B4E8-F862EC5B14D0";
paths = (
{
closed = 1;
nodes = (
"511 321 LINE",
"511 450 OFFCURVE",
"438 494 OFFCURVE",
"289 494 CURVE SMOOTH",
"130 494 OFFCURVE",
"50 445 OFFCURVE",
"50 321 CURVE SMOOTH",
"50 147 LINE SMOOTH",
"50 42 OFFCURVE",
"136 -10 OFFCURVE",
"307 -10 CURVE SMOOTH",
"372 -10 OFFCURVE",
"436 -4 OFFCURVE",
"497 9 CURVE",
"497 102 LINE",
"437 88 OFFCURVE",
"383 81 OFFCURVE",
"335 81 CURVE SMOOTH",
"228 81 OFFCURVE",
"197 104 OFFCURVE",
"197 159 CURVE SMOOTH",
"197 203 LINE",
"511 203 LINE"
);
},
{
closed = 1;
nodes = (
"197 286 LINE",
"197 356 LINE SMOOTH",
"197 371 OFFCURVE",
"203 383 OFFCURVE",
"216 392 CURVE SMOOTH",
"228 400 OFFCURVE",
"252 404 OFFCURVE",
"287 404 CURVE SMOOTH",
"351 404 OFFCURVE",
"372 387 OFFCURVE",
"372 356 CURVE SMOOTH",
"372 286 LINE"
);
},
{
closed = 1;
nodes = (
"437 683 LINE",
"311 683 LINE",
"311 565 LINE",
"437 565 LINE"
);
},
{
closed = 1;
nodes = (
"247 683 LINE",
"121 683 LINE",
"121 565 LINE",
"247 565 LINE"
);
}
);
width = 559;
}
);
unicode = 00EB;
},
{
glyphname = edotaccent;
layers = (
{
layerId = UUID0;
paths = (
{
closed = 1;
nodes = (
"476 329 LINE",
"476 452 OFFCURVE",
"414 494 OFFCURVE",
"274 494 CURVE SMOOTH",
"125 494 OFFCURVE",
"60 448 OFFCURVE",
"60 329 CURVE SMOOTH",
"60 138 LINE SMOOTH",
"60 39 OFFCURVE",
"134 -10 OFFCURVE",
"282 -10 CURVE SMOOTH",
"339 -10 OFFCURVE",
"397 -3 OFFCURVE",
"457 10 CURVE",
"457 79 LINE",
"394 63 OFFCURVE",
"340 55 OFFCURVE",
"294 55 CURVE SMOOTH",
"199 55 OFFCURVE",
"151 81 OFFCURVE",
"151 149 CURVE SMOOTH",
"151 222 LINE",
"476 222 LINE"
);
},
{
closed = 1;
nodes = (
"151 281 LINE",
"151 357 LINE SMOOTH",
"151 417 OFFCURVE",
"189 434 OFFCURVE",
"269 434 CURVE SMOOTH",
"353 434 OFFCURVE",
"386 416 OFFCURVE",
"386 357 CURVE SMOOTH",
"386 281 LINE"
);
},
{
closed = 1;
nodes = (
"316 666 LINE",
"226 666 LINE",
"226 568 LINE",
"316 568 LINE"
);
}
);
width = 535;
},
{
layerId = "206DC524-6BEE-4011-B4E8-F862EC5B14D0";
paths = (
{
closed = 1;
nodes = (
"511 321 LINE",
"511 450 OFFCURVE",
"438 494 OFFCURVE",
"289 494 CURVE SMOOTH",
"130 494 OFFCURVE",
"50 445 OFFCURVE",
"50 321 CURVE SMOOTH",
"50 147 LINE SMOOTH",
"50 42 OFFCURVE",
"136 -10 OFFCURVE",
"307 -10 CURVE SMOOTH",
"372 -10 OFFCURVE",
"436 -4 OFFCURVE",
"497 9 CURVE",
"497 102 LINE",
"437 88 OFFCURVE",
"383 81 OFFCURVE",
"335 81 CURVE SMOOTH",
"228 81 OFFCURVE",
"197 104 OFFCURVE",
"197 159 CURVE SMOOTH",
"197 203 LINE",
"511 203 LINE"
);
},
{
closed = 1;
nodes = (
"197 286 LINE",
"197 356 LINE SMOOTH",
"197 371 OFFCURVE",
"203 383 OFFCURVE",
"216 392 CURVE SMOOTH",
"228 400 OFFCURVE",
"252 404 OFFCURVE",
"287 404 CURVE SMOOTH",
"351 404 OFFCURVE",
"372 387 OFFCURVE",
"372 356 CURVE SMOOTH",
"372 286 LINE"
);
},
{
closed = 1;
nodes = (
"362 680 LINE",
"216 680 LINE",
"216 565 LINE",
"362 565 LINE"
);
}
);
width = 559;
}
);
unicode = 0117;
},
{
glyphname = emacron;
layers = (
{
layerId = UUID0;
paths = (
{
closed = 1;
nodes = (
"476 329 LINE",
"476 452 OFFCURVE",
"414 494 OFFCURVE",
"274 494 CURVE SMOOTH",
"125 494 OFFCURVE",
"60 448 OFFCURVE",
"60 329 CURVE SMOOTH",
"60 138 LINE SMOOTH",
"60 39 OFFCURVE",
"134 -10 OFFCURVE",
"282 -10 CURVE SMOOTH",
"339 -10 OFFCURVE",
"397 -3 OFFCURVE",
"457 10 CURVE",
"457 79 LINE",
"394 63 OFFCURVE",
"340 55 OFFCURVE",
"294 55 CURVE SMOOTH",
"199 55 OFFCURVE",
"151 81 OFFCURVE",
"151 149 CURVE SMOOTH",
"151 222 LINE",
"476 222 LINE"
);
},
{
closed = 1;
nodes = (
"151 281 LINE",
"151 357 LINE SMOOTH",
"151 417 OFFCURVE",
"189 434 OFFCURVE",
"269 434 CURVE SMOOTH",
"353 434 OFFCURVE",
"386 416 OFFCURVE",
"386 357 CURVE SMOOTH",
"386 281 LINE"
);
},
{
closed = 1;
nodes = (
"395 647 LINE",
"154 647 LINE",
"154 584 LINE",
"395 584 LINE"
);
}
);
width = 535;
},
{
layerId = "206DC524-6BEE-4011-B4E8-F862EC5B14D0";
paths = (
{
closed = 1;
nodes = (
"511 321 LINE",
"511 450 OFFCURVE",
"438 494 OFFCURVE",
"289 494 CURVE SMOOTH",
"130 494 OFFCURVE",
"50 445 OFFCURVE",
"50 321 CURVE SMOOTH",
"50 147 LINE SMOOTH",
"50 42 OFFCURVE",
"136 -10 OFFCURVE",
"307 -10 CURVE SMOOTH",
"372 -10 OFFCURVE",
"436 -4 OFFCURVE",
"497 9 CURVE",
"497 102 LINE",
"437 88 OFFCURVE",
"383 81 OFFCURVE",
"335 81 CURVE SMOOTH",
"228 81 OFFCURVE",
"197 104 OFFCURVE",
"197 159 CURVE SMOOTH",
"197 203 LINE",
"511 203 LINE"
);
},
{
closed = 1;
nodes = (
"197 286 LINE",
"197 356 LINE SMOOTH",
"197 371 OFFCURVE",
"203 383 OFFCURVE",
"216 392 CURVE SMOOTH",
"228 400 OFFCURVE",
"252 404 OFFCURVE",
"287 404 CURVE SMOOTH",
"351 404 OFFCURVE",
"372 387 OFFCURVE",
"372 356 CURVE SMOOTH",
"372 286 LINE"
);
},
{
closed = 1;
nodes = (
"418 649 LINE",
"140 649 LINE",
"140 560 LINE",
"418 560 LINE"
);
}
);
width = 559;
}
);
unicode = 0113;
},
{
glyphname = eogonek;
layers = (
{
layerId = UUID0;
paths = (
{
closed = 1;
nodes = (
"372 -186 OFFCURVE",
"389 -183 OFFCURVE",
"403 -176 CURVE",
"403 -123 LINE",
"388 -128 OFFCURVE",
"377 -130 OFFCURVE",
"372 -130 CURVE SMOOTH",
"346 -130 OFFCURVE",
"333 -119 OFFCURVE",
"333 -97 CURVE SMOOTH",
"333 -68 OFFCURVE",
"342 -37 OFFCURVE",
"361 -6 CURVE",
"389 -3 OFFCURVE",
"421 2 OFFCURVE",
"457 10 CURVE",
"457 79 LINE",
"394 63 OFFCURVE",
"341 55 OFFCURVE",
"298 55 CURVE SMOOTH",
"199 55 OFFCURVE",
"151 81 OFFCURVE",
"151 149 CURVE SMOOTH",
"151 222 LINE",
"476 222 LINE",
"476 329 LINE SMOOTH",
"476 452 OFFCURVE",
"414 494 OFFCURVE",
"274 494 CURVE SMOOTH",
"125 494 OFFCURVE",
"60 448 OFFCURVE",
"60 329 CURVE SMOOTH",
"60 138 LINE SMOOTH",
"60 35 OFFCURVE",
"146 -10 OFFCURVE",
"270 -10 CURVE SMOOTH",
"283 -10 LINE",
"264 -42 OFFCURVE",
"254 -74 OFFCURVE",
"254 -106 CURVE SMOOTH",
"254 -163 OFFCURVE",
"288 -186 OFFCURVE",
"353 -186 CURVE SMOOTH"
);
},
{
closed = 1;
nodes = (
"151 281 LINE",
"151 357 LINE SMOOTH",
"151 418 OFFCURVE",
"189 434 OFFCURVE",
"272 434 CURVE SMOOTH",
"353 434 OFFCURVE",
"386 416 OFFCURVE",
"386 357 CURVE SMOOTH",
"386 281 LINE"
);
}
);
width = 535;
},
{
layerId = "206DC524-6BEE-4011-B4E8-F862EC5B14D0";
paths = (
{
closed = 1;
nodes = (
"511 -109 LINE",
"499 -113 OFFCURVE",
"489 -115 OFFCURVE",
"481 -115 CURVE SMOOTH",
"452 -115 OFFCURVE",
"443 -104 OFFCURVE",
"443 -83 CURVE SMOOTH",
"443 -53 OFFCURVE",
"450 -25 OFFCURVE",
"463 2 CURVE",
"497 9 LINE",
"497 102 LINE",
"437 88 OFFCURVE",
"383 81 OFFCURVE",
"335 81 CURVE SMOOTH",
"228 81 OFFCURVE",
"197 104 OFFCURVE",
"197 159 CURVE SMOOTH",
"197 203 LINE",
"511 203 LINE",
"511 321 LINE SMOOTH",
"511 450 OFFCURVE",
"438 494 OFFCURVE",
"289 494 CURVE SMOOTH",
"130 494 OFFCURVE",
"50 445 OFFCURVE",
"50 321 CURVE SMOOTH",
"50 147 LINE SMOOTH",
"50 42 OFFCURVE",
"136 -10 OFFCURVE",
"307 -10 CURVE SMOOTH",
"338 -10 OFFCURVE",
"360 -10 OFFCURVE",
"372 -9 CURVE",
"352 -43 OFFCURVE",
"342 -75 OFFCURVE",
"342 -106 CURVE SMOOTH",
"342 -163 OFFCURVE",
"376 -186 OFFCURVE",
"441 -186 CURVE SMOOTH",
"474 -186 OFFCURVE",
"497 -183 OFFCURVE",
"511 -176 CURVE"
);
},
{
closed = 1;
nodes = (
"197 286 LINE",
"197 356 LINE SMOOTH",
"197 371 OFFCURVE",
"203 383 OFFCURVE",
"216 392 CURVE SMOOTH",
"228 400 OFFCURVE",
"252 404 OFFCURVE",
"287 404 CURVE SMOOTH",
"351 404 OFFCURVE",
"372 387 OFFCURVE",
"372 356 CURVE SMOOTH",
"372 286 LINE"
);
}
);
width = 559;
}
);
unicode = 0119;
},
{
glyphname = f;
layers = (
{
layerId = UUID0;
paths = (
{
closed = 1;
nodes = (
"372 484 LINE",
"211 484 LINE",
"211 568 LINE SMOOTH",
"211 633 OFFCURVE",
"239 651 OFFCURVE",
"304 651 CURVE SMOOTH",
"333 651 OFFCURVE",
"359 649 OFFCURVE",
"382 646 CURVE",
"382 705 LINE",
"354 708 OFFCURVE",
"327 710 OFFCURVE",
"301 710 CURVE SMOOTH",
"184 710 OFFCURVE",
"121 671 OFFCURVE",
"121 562 CURVE SMOOTH",
"121 484 LINE",
"10 484 LINE",
"10 425 LINE",
"121 425 LINE",
"121 0 LINE",
"211 0 LINE",
"211 425 LINE",
"372 425 LINE"
);
}
);
width = 380;
},
{
layerId = "206DC524-6BEE-4011-B4E8-F862EC5B14D0";
paths = (
{
closed = 1;
nodes = (
"398 702 LINE",
"353 707 OFFCURVE",
"317 710 OFFCURVE",
"289 710 CURVE SMOOTH",
"158 710 OFFCURVE",
"101 676 OFFCURVE",
"101 557 CURVE SMOOTH",
"101 484 LINE",
"10 484 LINE",
"10 394 LINE",
"101 394 LINE",
"101 0 LINE",
"247 0 LINE",
"247 394 LINE",
"380 394 LINE",
"380 484 LINE",
"247 484 LINE",
"247 565 LINE SMOOTH",
"247 608 OFFCURVE",
"264 620 OFFCURVE",
"312 620 CURVE SMOOTH",
"329 620 OFFCURVE",
"358 617 OFFCURVE",
"398 612 CURVE"
);
}
);
width = 388;
}
);
unicode = 0066;
},
